<?xml version="1.0" encoding="UTF-8" standalone="no"?><!DOCTYPE svg PUBLIC "-//W3C//DTD SVG 1.1//EN" "http://www.w3.org/Graphics/SVG/1.1/DTD/svg11.dtd"><svg width="100%" height="100%" viewBox="0 0 123 123" version="1.1" xmlns="http://www.w3.org/2000/svg" xmlns:xlink="http://www.w3.org/1999/xlink" xml:space="preserve" xmlns:serif="http://www.serif.com/" style="fill-rule:evenodd;clip-rule:evenodd;stroke-linecap:round;stroke-linejoin:round;stroke-miterlimit:1.5;"><rect x="0" y="0" width="122.88" height="122.88" style="fill:#1f0;"/><g transform="matrix(0.999562,-0.0296009,0.0296009,0.999562,-0.979542,0.208092)"><text x="25.147px" y="42.116px" style="font-family:'ComicSansMS', 'Comic Sans MS', cursive;font-size:14.282px;fill:#231f20;">COMPANY2</text></g><path d="M108.662,103.084c-1.852,-0.357 -37.383,4.99 -46.479,6.199c-9.097,1.21 -18.683,4.719 -26.041,4.555c-7.358,-0.165 -15.922,0.806 -15.305,-13.436c0.616,-14.242 5.059,-32.875 7.512,-39.126c2.454,-6.252 -7.423,-12.714 7.421,-8.827c14.844,3.887 25.605,14.509 25.605,14.509c-0,-0 0.502,-15.973 4.458,-26.266c3.955,-10.293 -2.226,-21.286 9.084,-12.496c11.311,8.791 25.774,39.046 28.485,45.951c2.711,6.905 7.113,29.294 5.26,28.937Z" style="fill:url(#_Linear1);stroke:#231f20;stroke-width:0.24px;"/><path d="M38.296,93.742c-0,-0 4.799,-8.355 10.487,-12.443c5.688,-4.088 9.599,-8.176 19.908,-6.576c10.309,1.599 16.708,-0.356 19.908,6.754c3.199,7.11 10.665,12.442 0.711,15.464c-9.954,3.022 -27.374,3.377 -31.462,5.155c-4.088,1.777 -10.131,6.754 -12.975,7.821c-2.844,1.066 -6.577,-16.175 -6.577,-16.175Z" style="fill:url(#_Radial2);"/><clipPath id="_clip3"><path d="M38.296,93.742c-0,-0 4.799,-8.355 10.487,-12.443c5.688,-4.088 9.599,-8.176 19.908,-6.576c10.309,1.599 16.708,-0.356 19.908,6.754c3.199,7.11 10.665,12.442 0.711,15.464c-9.954,3.022 -27.374,3.377 -31.462,5.155c-4.088,1.777 -10.131,6.754 -12.975,7.821c-2.844,1.066 -6.577,-16.175 -6.577,-16.175Z"/></clipPath><g clip-path="url(#_clip3)"><path d="M54.012,75.355l-3.435,1.461l2.364,5.562l3.436,-1.461l-2.365,-5.562Z" style="fill:#fff;"/><path d="M59.812,72.662l-3.435,1.46l2.364,5.562l3.435,-1.461l-2.364,-5.561Z" style="fill:#fff;"/></g><path d="M38.296,93.742c-0,-0 4.799,-8.355 10.487,-12.443c5.688,-4.088 9.599,-8.176 19.908,-6.576c10.309,1.599 16.708,-0.356 19.908,6.754c3.199,7.11 10.665,12.442 0.711,15.464c-9.954,3.022 -27.374,3.377 -31.462,5.155c-4.088,1.777 -10.131,6.754 -12.975,7.821c-2.844,1.066 -6.577,-16.175 -6.577,-16.175Z" style="fill:none;stroke:#231f20;stroke-width:0.24px;"/><ellipse cx="38.029" cy="70.279" rx="7.377" ry="6.754" style="fill:#fff;"/><clipPath id="_clip4"><ellipse cx="38.029" cy="70.279" rx="7.377" ry="6.754"/></clipPath><g clip-path="url(#_clip4)"><ellipse cx="43.584" cy="74.469" rx="5.555" ry="5.052"/></g><path d="M73.381,67.951c-3.924,-1.083 -6.305,-4.88 -5.313,-8.474c0.992,-3.593 4.984,-5.631 8.908,-4.548c3.924,1.083 6.305,4.88 5.313,8.474c-0.992,3.593 -4.983,5.631 -8.908,4.548Z" style="fill:#fff;"/><clipPath id="_clip5"><path d="M73.381,67.951c-3.924,-1.083 -6.305,-4.88 -5.313,-8.474c0.992,-3.593 4.984,-5.631 8.908,-4.548c3.924,1.083 6.305,4.88 5.313,8.474c-0.992,3.593 -4.983,5.631 -8.908,4.548Z"/></clipPath><g clip-path="url(#_clip5)"><path d="M69.595,60.793c-2.955,-0.816 -4.752,-3.661 -4.01,-6.349c0.742,-2.688 3.744,-4.207 6.699,-3.392c2.955,0.816 4.752,3.661 4.01,6.348c-0.742,2.688 -3.744,4.208 -6.699,3.393Z"/></g><defs><linearGradient id="_Linear1" x1="0" y1="0" x2="1" y2="0" gradientUnits="userSpaceOnUse" gradientTransform="matrix(-63.7558,-67.706,68.7561,-64.7446,94.0599,116.953)"><stop offset="0" style="stop-color:#ff1700;stop-opacity:1"/><stop offset="1" style="stop-color:#00fff8;stop-opacity:1"/></linearGradient><radialGradient id="_Radial2" cx="0" cy="0" r="1" gradientUnits="userSpaceOnUse" gradientTransform="matrix(28.0035,0,0,17.7984,66.2994,92.1658)"><stop offset="0" style="stop-color:#5f0001;stop-opacity:1"/><stop offset="0.65" style="stop-color:#760001;stop-opacity:1"/><stop offset="0.84" style="stop-color:#b40001;stop-opacity:1"/><stop offset="1" style="stop-color:#f00;stop-opacity:1"/></radialGradient></defs></svg>