<?xml version="1.0" encoding="UTF-8" standalone="no"?><!DOCTYPE svg PUBLIC "-//W3C//DTD SVG 1.1//EN" "http://www.w3.org/Graphics/SVG/1.1/DTD/svg11.dtd"><svg width="100%" height="100%" viewBox="0 0 123 123" version="1.1" xmlns="http://www.w3.org/2000/svg" xmlns:xlink="http://www.w3.org/1999/xlink" xml:space="preserve" xmlns:serif="http://www.serif.com/" style="fill-rule:evenodd;clip-rule:evenodd;stroke-linecap:round;stroke-linejoin:round;stroke-miterlimit:1.5;"><path d="M46.655,82.849c-3.184,-3.332 -6.541,-4.267 -10.119,-2.122c-5.715,3.136 -5.461,9.909 -5.118,14.445l-6.704,-7.967c0,-0 -2.671,2.698 -2.826,3.409c-0.154,0.712 0.491,1.791 1.154,3.335c0.663,1.545 6.091,8.594 6.091,8.594l4.08,4.268l3.696,-4.74l1.273,-7.651l8.473,-11.571Z" style="fill:#7b481d;stroke:#000;stroke-width:0.24px;"/><g transform="matrix(0.999971,0.00756494,-0.00756494,0.999971,-0.124659,0.10466)"><text x="2.161px" y="19.407px" style="font-family:'ArialMT', 'Arial', sans-serif;font-size:21.473px;fill:#231f20;">COMP<tspan x="64.985px 79.307px " y="19.407px 19.407px ">AN</tspan>Y3</text></g><path d="M88.579,36.011l0,7.394l-11.376,-11.376l11.376,-11.375l0,7.394l19.908,-0l0,-7.394l11.376,11.375l-11.376,11.376l0,-7.394l-19.908,0Z" style="fill:#ff1200;"/><path d="M41.13,63.27c0,-0 -4.528,2.426 -6.834,2.898c-2.306,0.472 -3.728,2.75 -7.143,1.136c-3.416,-1.614 -1.774,3.75 -1.774,3.75l6.599,1.139l4.435,-1.425l3.962,-3.731" style="fill:#7a4600;stroke:#000;stroke-width:0.24px;"/><path d="M35.578,59.218c-0,0 0.888,5.333 -2.844,6.221c-3.733,0.889 -10.132,1.067 -13.331,-1.066c-3.2,-2.133 -9.066,-1.955 -5.866,-8.177c3.199,-6.221 0.178,-6.399 7.999,-9.598c7.82,-3.199 10.487,-2.475 16.352,-3.193c5.866,-0.717 9.243,-0.006 10.843,4.793c1.6,4.799 1.777,6.221 1.955,9.776c0.178,3.555 -0.533,2.666 1.244,7.11c1.778,4.444 1.422,4.799 3.2,8.887c1.777,4.088 -1.244,6.577 6.31,9.776c7.554,3.2 10.398,3.911 12.354,3.911c1.955,-0 3.377,1.066 5.865,-0.533c2.489,-1.6 3.022,-0.534 4.266,-4.622c1.244,-4.088 1.422,-2.133 3.555,-9.598c2.133,-7.466 2.844,-11.909 5.333,-15.109c2.488,-3.199 -3.135,-6.932 5.72,-4.799c8.855,2.133 13.476,1.955 13.121,6.754c-0.356,4.8 -0,4.977 -3.377,8.71c-3.378,3.733 -2.844,3.911 -5.511,6.577c-2.666,2.666 -3.845,2.133 -4.233,5.154c-0.388,3.022 0.856,1.067 -1.81,5.866c-2.666,4.799 -2.844,6.044 -5.155,9.599c-2.31,3.555 3.378,6.043 -6.043,4.799c-9.421,-1.244 -8.354,-0.178 -15.997,-2.844c-7.644,-2.666 -8.532,-4.622 -12.798,-5.51c-4.266,-0.889 -1.245,0.711 -8.532,0.711c-7.288,-0 -12.62,-0.356 -13.865,-4.444c-1.244,-4.088 -1.777,-3.377 -0.888,-8.71c0.888,-5.332 0.888,-2.133 2.133,-7.998c1.244,-5.866 -0,-12.443 -0,-12.443Z" style="fill:#7a4600;stroke:#231f20;stroke-width:0.24px;"/><path d="M40.021,64.799c0,0 -3.839,3.413 -5.972,4.409c-2.133,0.995 -2.986,3.541 -6.683,2.766c-3.698,-0.776 -0.854,4.059 -0.854,4.059l6.684,-0.426l3.981,-2.418l2.987,-4.55" style="fill:#7a4600;stroke:#000;stroke-width:0.24px;"/><ellipse cx="23.74" cy="53.352" rx="4.621" ry="3.768" style="fill:#fff;"/><path d="M21.877,53.637c-0.116,-0.763 0.624,-1.509 1.652,-1.666c1.028,-0.157 1.957,0.335 2.073,1.097c0.117,0.762 -0.624,1.509 -1.651,1.666c-1.028,0.157 -1.958,-0.335 -2.074,-1.097Z"/><path d="M24.181,47.636l-4.977,2.053l0.345,0.836l4.977,-2.054l-0.345,-0.835Z"/><path d="M16.881,63.27c-0,-0 8.587,3.307 8.587,-0" style="fill:none;stroke:#000;stroke-width:0.24px;"/><path d="M45.989,82.01c-4.604,0.227 -7.507,2.153 -8.228,6.262c-1.369,6.373 3.918,10.614 7.572,13.323l-10.411,-0.145c0,-0 0.291,3.785 0.728,4.368c0.437,0.582 1.675,0.801 3.276,1.31c1.602,0.51 10.484,1.02 10.484,1.02l5.898,-0.292l-1.165,-5.897l-4.951,-5.97l-3.203,-13.979Z" style="fill:#7b481d;stroke:#000;stroke-width:0.24px;"/></svg>