<svg xmlns="http://www.w3.org/2000/svg" width="1001.55" height="717.488" viewBox="0 0 264.993 189.835">
  <path style="fill:currentColor;fill-opacity:1;stroke-width:.0846667" d="M117.024 171.19c-14.64-.468-28.473-5.302-40.132-14.027a70.533 70.533 0 0 1-20.696-24.693c-4.1-8.145-6.403-16.33-7.27-25.844l-.037-.403h4.392c2.416 0 4.392.029 4.392.064 0 .33.394 3.374.592 4.572 1.328 8.063 4.366 16.036 8.696 22.824l.41.643 5.205-3.938c2.863-2.165 5.251-3.983 5.307-4.039.08-.08-.01-.296-.405-.984-5.742-9.97-7.822-21.58-5.915-33.01C73.22 82.417 77.802 73.435 85 66.01l1.185-1.223-3.804-5.063c-2.092-2.784-3.839-5.063-3.881-5.063-.198 0-3.584 3.31-5.111 4.996-8.587 9.482-14.086 21.512-15.499 33.909a175.29 175.29 0 0 1-.181 1.545l-.046.36h-8.757l.027-.36a98.67 98.67 0 0 1 .195-1.926c1.429-13.293 6.692-25.936 15.162-36.418 5.04-6.237 11.236-11.683 18.021-15.838 13.005-7.965 28.214-11.483 43.466-10.056 15.219 1.424 29.426 7.695 40.777 17.997a71.898 71.898 0 0 1 9.119 10.055c8.073 10.827 12.896 23.835 13.739 37.054l.125 1.968.037.572h-53.158l-.037-.19c-.021-.106-.118-.64-.215-1.187-1.07-6.004-5.271-11.212-10.83-13.428-1.876-.747-3.538-1.095-5.6-1.17-5.127-.19-10.002 1.967-13.439 5.942-1.068 1.236-1.854 2.436-2.606 3.98-.966 1.985-1.352 3.27-1.783 5.947l-.045.275h-8.736l.06-.74c.079-.987.41-2.92.685-4.01 1.937-7.648 6.972-13.995 13.833-17.437 3.888-1.951 7.749-2.8 12.193-2.68 2.789.076 5.072.488 7.616 1.374 3.732 1.3 6.922 3.313 9.794 6.177 2.285 2.28 4.132 4.92 5.42 7.749l.444.973 18.339.022c18.16.02 18.338.02 18.338-.145 0-.247-.477-2.504-.815-3.856-1.227-4.907-3.036-9.638-5.345-13.97-9.686-18.18-27.696-30.369-48.027-32.504-4.06-.427-8.882-.427-12.996 0-9.46.979-18.899 4.306-26.86 9.466l-.615.398 3.738 4.97c2.056 2.734 3.765 5 3.797 5.037.032.037.512-.215 1.067-.56a44.188 44.188 0 0 1 4.56-2.52c8.146-3.96 17.174-5.503 26.21-4.48 17.685 2.006 32.835 13.769 39.464 30.642.227.579.413 1.083.413 1.122 0 .039-2.11.07-4.687.07h-4.687l-.598-1.206c-5.735-11.568-16.578-19.66-29.07-21.693-3.452-.562-7.486-.639-11.08-.21-9.9 1.178-19.354 6.51-25.789 14.543-8.714 10.879-11.23 25.45-6.682 38.691 3.448 10.038 10.812 18.406 20.245 23.008 4.528 2.21 9.05 3.43 14.3 3.858 1.552.126 5.553.05 7.07-.135 9.186-1.12 17.172-5.039 23.583-11.571 3.02-3.076 5.407-6.391 7.202-10l.495-.994h9.526l-.174.444c-3.733 9.523-10.146 17.516-18.535 23.102-5.946 3.96-12.757 6.554-19.727 7.516-2.504.346-3.28.391-6.689.391-4.014 0-5.947-.17-9.186-.813-9.976-1.976-18.828-6.925-25.913-14.486-.659-.703-1.123-1.134-1.176-1.094l-5.276 3.985-5.187 3.917.613.69c1.789 2.011 4.556 4.682 6.713 6.48 9.352 7.791 20.922 12.685 32.935 13.93 4.114.426 8.936.426 12.996-.001 12.833-1.348 24.94-6.739 34.663-15.432 8.556-7.651 14.922-17.76 18.083-28.714.57-1.973 1.441-5.689 1.441-6.142 0-.108-2.352-.123-18.453-.123H142.94l-.465.952c-1.844 3.773-4.589 7.11-7.9 9.602-9.453 7.116-22.41 6.888-31.563-.555-3.039-2.47-5.366-5.396-7.113-8.941-1.343-2.725-2.15-5.283-2.538-8.043a77.978 77.978 0 0 0-.17-1.165l-.039-.234 4.412.022 4.412.022.204 1.016c.559 2.781 1.927 5.686 3.73 7.916.673.832 2.267 2.375 3.088 2.988 2.682 2.002 5.598 3.1 8.979 3.384 4.68.391 9.648-1.485 13.118-4.956 2.47-2.47 4.306-5.836 4.976-9.12l.221-1.08.04-.19h53.232l-.031.529c-.338 5.668-.862 9.328-1.988 13.888-2.718 10.994-7.947 20.96-15.56 29.651-1.152 1.316-4.846 5.009-6.15 6.15-7.915 6.92-16.602 11.746-26.5 14.723-6.994 2.103-14.953 3.139-22.31 2.904z" transform="translate(13.955 -30.562)"/>
  <path style="fill:currentColor;stroke-width:.0846667" d="M217.1 220.351c-4.96-.52-8.47-4.181-8.973-9.36-.046-.475-.083-4.581-.084-9.454l-.002-8.615h1.941l.028 9.208.028 9.207.225.89c.123.488.304 1.092.401 1.341.987 2.527 2.87 4.24 5.42 4.936.64.174.902.195 2.329.191 1.383-.004 1.704-.03 2.286-.19 2.707-.74 4.72-2.694 5.579-5.418.48-1.525.475-1.38.475-11.159v-9.006h1.953l-.028 9.25c-.028 9.19-.03 9.255-.216 10.07-.49 2.147-1.317 3.778-2.617 5.156-1.349 1.43-3.251 2.44-5.315 2.82-.892.163-2.53.227-3.43.133zm23.919.003c-2.045-.222-3.543-.807-5.123-2.001-.442-.335-.983-.793-1.202-1.018l-.398-.41.294-.464c.339-.536.644-.74.915-.61.1.047.496.355.883.685.386.33.875.718 1.085.862.58.399 1.855.975 2.614 1.182.838.228 2.742.318 3.672.173 2.206-.342 3.99-1.579 4.837-3.351.979-2.052.866-4.421-.277-5.78-.943-1.121-1.886-1.619-5.165-2.723-1.381-.466-2.808-.968-3.17-1.116-3.102-1.27-4.572-3.445-4.397-6.51.063-1.1.215-1.689.69-2.667 1.481-3.059 5.035-4.524 9.23-3.805 1.638.28 3.56 1.25 4.546 2.294l.23.242-.298.528c-.458.813-.553.806-1.78-.127-.684-.52-1.682-1.027-2.572-1.305-.564-.176-.8-.198-2.117-.198-1.707 0-2.152.087-3.302.648-.973.476-1.876 1.364-2.31 2.273-.815 1.708-.71 3.646.267 4.936.896 1.184 2.122 1.86 5.388 2.97 3.685 1.253 4.737 1.773 5.842 2.889 1.266 1.278 1.728 2.616 1.623 4.699-.11 2.18-.846 3.915-2.262 5.33a8.177 8.177 0 0 1-4.342 2.243c-.936.163-2.538.225-3.401.131zm-79.121-.088c-4.461-.421-8.082-2.856-10.018-6.735-1.481-2.967-1.93-6.937-1.199-10.584.54-2.688 1.73-4.96 3.548-6.765 1.036-1.03 1.862-1.62 3.14-2.246 1.887-.925 3.566-1.287 5.968-1.287 1.824 0 2.96.166 4.435.65 4.339 1.42 7.407 5.13 8.273 10.001.224 1.257.31 3.833.17 5.108-.604 5.549-3.666 9.638-8.404 11.223-1.651.553-4.056.811-5.913.635zm3.184-1.696c4.184-.582 7.16-3.098 8.502-7.187.795-2.423.952-5.58.412-8.258-.72-3.573-2.674-6.3-5.537-7.725-1.462-.728-2.727-1.028-4.614-1.095-2.185-.078-3.773.213-5.397.987-3.424 1.632-5.483 4.756-6.028 9.143-.129 1.035-.11 3.224.037 4.349.705 5.377 3.993 8.984 8.89 9.754.855.134 2.874.152 3.735.032zM11.36 206.215v-13.886h17.526v4.064h-12.36v7.79h9.736v3.894h-9.737v7.96h12.361v4.063H11.36zm22.268.042v-13.843h5.079l.021 5.779.022 5.778.942-.015c1.097-.018 1.49-.106 1.916-.428.17-.129 2.137-2.528 4.371-5.33 2.452-3.077 4.202-5.198 4.413-5.351.55-.398.967-.446 3.647-.417l2.42.026-4.816 5.885c-2.649 3.236-4.938 6.01-5.087 6.166-.149.155-.452.4-.673.543-.22.144-.4.284-.398.311.001.027.19.137.418.244.229.107.607.367.841.577.236.212 1.792 2.218 3.494 4.505l5.043 6.774 1.976 2.652-2.692-.028c-3.072-.031-3.181-.053-3.78-.756-.174-.205-2.107-2.715-4.296-5.579-2.188-2.864-4.1-5.311-4.25-5.44-.443-.378-.96-.487-2.319-.487h-1.212V220.1h-5.08zm26.84 0v-13.843h1.653c1.859 0 2.011.034 2.505.562.169.18 3.571 4.47 7.561 9.535a2665.62 2665.62 0 0 0 7.271 9.207c.01 0 .006-4.343-.007-9.652l-.025-9.652h4.494v27.702l-1.633-.03c-1.556-.027-1.652-.038-2.053-.245-.384-.198-1.05-1.016-7.73-9.483a5077.74 5077.74 0 0 1-7.45-9.458c-.133-.18-.14.416-.116 9.504l.025 9.696h-4.496Zm29.802 0v-13.843h5.164V220.1H90.27Zm11.684 0v-13.843h5.079l.021 5.779.022 5.778.942-.015c1.097-.018 1.49-.106 1.916-.428.17-.129 2.137-2.528 4.371-5.33 2.452-3.077 4.202-5.198 4.413-5.351.55-.398.967-.446 3.647-.417l2.42.026-4.816 5.885c-2.649 3.236-4.938 6.01-5.087 6.166-.149.155-.452.4-.673.543-.22.144-.4.284-.398.311.002.027.19.137.418.244.229.107.607.367.841.577.236.212 1.792 2.218 3.494 4.505l5.043 6.774 1.976 2.652-2.692-.028c-3.072-.031-3.181-.053-3.78-.756-.174-.205-2.107-2.715-4.296-5.579-2.188-2.864-4.1-5.311-4.25-5.44-.443-.378-.96-.487-2.319-.487h-1.212V220.1h-5.08zm27.94.254v-13.589h16.34v1.609h-14.393v11.43h12.446v1.608h-12.446V220.1h-1.947zm53.51-.042v-13.632h1.946v12.616l1.25-.002c1.585-.002 1.73-.062 2.767-1.125 6.343-6.51 10.893-11.11 11.096-11.22.181-.096.547-.144 1.27-.166l1.016-.031-1.488 1.51a1825.5 1825.5 0 0 0-5.45 5.573c-5.039 5.17-5.617 5.742-5.952 5.889-.151.066-.274.14-.273.164.001.023.155.113.343.2.246.113 1.893 1.77 5.938 5.969a2257.99 2257.99 0 0 0 6.62 6.855l1.024 1.044-1.058-.03c-.818-.022-1.106-.06-1.27-.172-.116-.078-1.827-1.792-3.802-3.808-5.85-5.971-8.67-8.792-8.94-8.942-.202-.112-.546-.147-1.672-.17l-1.419-.029V220.1h-1.947zm-188.977 1.735v-11.726h-8.382v-4.149H7.974v4.149H-.408v23.453h-5.165z" transform="translate(13.955 -30.562)"/>
</svg>
