<svg xmlns="http://www.w3.org/2000/svg" width="531.724" height="531.628" viewBox="0 0 140.685 140.66">
  <path style="fill:currentColor;fill-opacity:1;stroke-width:.0846667" d="M117.024 171.19c-14.64-.468-28.473-5.302-40.132-14.027a70.533 70.533 0 0 1-20.696-24.693c-4.1-8.145-6.403-16.33-7.27-25.844l-.037-.403h4.392c2.416 0 4.392.029 4.392.064 0 .33.394 3.374.592 4.572 1.328 8.063 4.366 16.036 8.696 22.824l.41.643 5.205-3.938c2.863-2.165 5.251-3.983 5.307-4.039.08-.08-.01-.296-.405-.984-5.742-9.97-7.822-21.58-5.915-33.01C73.22 82.417 77.802 73.435 85 66.01l1.185-1.223-3.804-5.063c-2.092-2.784-3.839-5.063-3.881-5.063-.198 0-3.584 3.31-5.111 4.996-8.587 9.482-14.086 21.512-15.499 33.909a175.29 175.29 0 0 1-.181 1.545l-.046.36h-8.757l.027-.36a98.67 98.67 0 0 1 .195-1.926c1.429-13.293 6.692-25.936 15.162-36.418 5.04-6.237 11.236-11.683 18.021-15.838 13.005-7.965 28.214-11.483 43.466-10.056 15.219 1.424 29.426 7.695 40.777 17.997a71.898 71.898 0 0 1 9.119 10.055c8.073 10.827 12.896 23.835 13.739 37.054l.125 1.968.037.572h-53.158l-.037-.19c-.021-.106-.118-.64-.215-1.187-1.07-6.004-5.271-11.212-10.83-13.428-1.876-.747-3.538-1.095-5.6-1.17-5.127-.19-10.002 1.967-13.439 5.942-1.068 1.236-1.854 2.436-2.606 3.98-.966 1.985-1.352 3.27-1.783 5.947l-.045.275h-8.736l.06-.74c.079-.987.41-2.92.685-4.01 1.937-7.648 6.972-13.995 13.833-17.437 3.888-1.951 7.749-2.8 12.193-2.68 2.789.076 5.072.488 7.616 1.374 3.732 1.3 6.922 3.313 9.794 6.177 2.285 2.28 4.132 4.92 5.42 7.749l.444.973 18.339.022c18.16.02 18.338.02 18.338-.145 0-.247-.477-2.504-.815-3.856-1.227-4.907-3.036-9.638-5.345-13.97-9.686-18.18-27.696-30.369-48.027-32.504-4.06-.427-8.882-.427-12.996 0-9.46.979-18.899 4.306-26.86 9.466l-.615.398 3.738 4.97c2.056 2.734 3.765 5 3.797 5.037.032.037.512-.215 1.067-.56a44.188 44.188 0 0 1 4.56-2.52c8.146-3.96 17.174-5.503 26.21-4.48 17.685 2.006 32.835 13.769 39.464 30.642.227.579.413 1.083.413 1.122 0 .039-2.11.07-4.687.07h-4.687l-.598-1.206c-5.735-11.568-16.578-19.66-29.07-21.693-3.452-.562-7.486-.639-11.08-.21-9.9 1.178-19.354 6.51-25.789 14.543-8.714 10.879-11.23 25.45-6.682 38.691 3.448 10.038 10.812 18.406 20.245 23.008 4.528 2.21 9.05 3.43 14.3 3.858 1.552.126 5.553.05 7.07-.135 9.186-1.12 17.172-5.039 23.583-11.571 3.02-3.076 5.407-6.391 7.202-10l.495-.994h9.526l-.174.444c-3.733 9.523-10.146 17.516-18.535 23.102-5.946 3.96-12.757 6.554-19.727 7.516-2.504.346-3.28.391-6.689.391-4.014 0-5.947-.17-9.186-.813-9.976-1.976-18.828-6.925-25.913-14.486-.659-.703-1.123-1.134-1.176-1.094l-5.276 3.985-5.187 3.917.613.69c1.789 2.011 4.556 4.682 6.713 6.48 9.352 7.791 20.922 12.685 32.935 13.93 4.114.426 8.936.426 12.996-.001 12.833-1.348 24.94-6.739 34.663-15.432 8.556-7.651 14.922-17.76 18.083-28.714.57-1.973 1.441-5.689 1.441-6.142 0-.108-2.352-.123-18.453-.123H142.94l-.465.952c-1.844 3.773-4.589 7.11-7.9 9.602-9.453 7.116-22.41 6.888-31.563-.555-3.039-2.47-5.366-5.396-7.113-8.941-1.343-2.725-2.15-5.283-2.538-8.043a77.978 77.978 0 0 0-.17-1.165l-.039-.234 4.412.022 4.412.022.204 1.016c.559 2.781 1.927 5.686 3.73 7.916.673.832 2.267 2.375 3.088 2.988 2.682 2.002 5.598 3.1 8.979 3.384 4.68.391 9.648-1.485 13.118-4.956 2.47-2.47 4.306-5.836 4.976-9.12l.221-1.08.04-.19h53.232l-.031.529c-.338 5.668-.862 9.328-1.988 13.888-2.718 10.994-7.947 20.96-15.56 29.651-1.152 1.316-4.846 5.009-6.15 6.15-7.915 6.92-16.602 11.746-26.5 14.723-6.994 2.103-14.953 3.139-22.31 2.904z" transform="translate(-48.889 -30.562)"/>
</svg>
