<?xml version="1.0" encoding="UTF-8" standalone="no"?>
<svg
   width="210.68555"
   height="140.66039"
   class="mt-8 size-36 lg:hidden short:mt-4 short:size-20"
   data-astro-cid-j7pv25f6=""
   data-icon="logomark"
   version="1.1"
   id="svg1"
   sodipodi:docname="teknikfokus-logo.svg"
   inkscape:export-filename="teknikfokus-logo-double-gold.pdf"
   inkscape:export-xdpi="96"
   inkscape:export-ydpi="96"
   xmlns:inkscape="http://www.inkscape.org/namespaces/inkscape"
   xmlns:sodipodi="http://sodipodi.sourceforge.net/DTD/sodipodi-0.dtd"
   xmlns="http://www.w3.org/2000/svg"
   xmlns:svg="http://www.w3.org/2000/svg">
  <defs
     id="defs1">
    <meshgradient
       inkscape:collect="always"
       id="meshgradient604"
       gradientUnits="userSpaceOnUse"
       x="0"
       y="-1.6344393e-08"
       gradientTransform="translate(0,2.7869927e-4)">
      <meshrow
         id="meshrow604">
        <meshpatch
           id="meshpatch604">
          <stop
             path="c 46.895,0  93.79,0  140.685,0"
             style="stop-color:#fffecf;stop-opacity:1"
             id="stop604" />
          <stop
             path="c 0,46.8867  0,93.7734  0,140.66"
             style="stop-color:#ffcc00;stop-opacity:1"
             id="stop605" />
          <stop
             path="c -46.895,0  -93.79,0  -140.685,0"
             style="stop-color:#ffffff;stop-opacity:1"
             id="stop606" />
          <stop
             path="c 0,-46.8867  0,-93.7734  0,-140.66"
             style="stop-color:#ffcc00;stop-opacity:1"
             id="stop607" />
        </meshpatch>
      </meshrow>
    </meshgradient>
    <meshgradient
       inkscape:collect="always"
       id="meshgradient607"
       gradientUnits="userSpaceOnUse"
       x="69.371742"
       y="0.0053874939"
       gradientTransform="translate(0,2.7869927e-4)">
      <meshrow
         id="meshrow947">
        <meshpatch
           id="meshpatch947">
          <stop
             path="c 32.9948,6.46615e-08  108.321,-0.00566632  141.316,-0.00566632"
             style="stop-color:#f8ff8e;stop-opacity:1"
             id="stop947" />
          <stop
             path="c 0,46.8867  0,93.7733  0,140.66"
             style="stop-color:#ffcc00;stop-opacity:1"
             id="stop948" />
          <stop
             path="c -32.9948,0  -109.555,-0.0323597  -142.552,-0.0323612"
             style="stop-color:#ffffff;stop-opacity:1"
             id="stop949" />
          <stop
             path="c -0.00275871,-46.8867  1.23303,-93.735  1.23574,-140.622"
             style="stop-color:#ffcc00;stop-opacity:1"
             id="stop950" />
        </meshpatch>
      </meshrow>
    </meshgradient>
  </defs>
  <sodipodi:namedview
     id="namedview1"
     pagecolor="#505050"
     bordercolor="#eeeeee"
     borderopacity="0"
     inkscape:showpageshadow="0"
     inkscape:pageopacity="0"
     inkscape:pagecheckerboard="0"
     inkscape:deskcolor="#313131"
     inkscape:export-bgcolor="#98989800">
    <inkscape:page
       x="0"
       y="0"
       width="210.68555"
       height="140.66039"
       id="page2"
       margin="0"
       bleed="0" />
  </sodipodi:namedview>
  <path
     id="path15"
     style="fill:url(#meshgradient607);fill-opacity:1"
     d="m 137.82227,0.04129432 c -9.02719,0.30841901 -17.88639,2.33794638 -26.1211,5.98242188 a 76.467316,76.453796 0 0 1 8.2793,6.1503908 c 4.47681,-1.560935 9.1336,-2.613311 13.79492,-3.0957033 4.114,-0.427 8.93609,-0.427 12.99609,0 20.331,2.1350003 38.34135,14.3239063 48.02735,32.5039063 2.309,4.332 4.11675,9.063703 5.34375,13.970703 0.338,1.352 0.81445,3.608469 0.81445,3.855469 0,0.165 -0.17789,0.164531 -18.33789,0.144531 l -18.33789,-0.02148 -0.44336,-0.972656 c -1.288,-2.829 -3.13492,-5.47 -5.41992,-7.75 -2.872,-2.864 -6.06292,-4.875782 -9.79492,-6.175782 -2.27715,-0.793061 -4.34493,-1.20736 -6.75391,-1.339843 a 76.467316,76.453796 0 0 1 2.8457,9.267578 c 0.56802,0.160117 1.13917,0.354392 1.73047,0.589844 5.559,2.216 9.76008,7.425687 10.83008,13.429687 0.097,0.547 0.19384,1.079547 0.21484,1.185547 l 0.0371,0.191406 h 53.15821 l -0.0371,-0.572265 -0.125,-1.96875 c -0.843,-13.219 -5.66724,-26.225735 -13.74024,-37.052735 a 72,72 0 0 0 -9.11914,-10.05664 C 176.31306,8.004915 162.10767,1.7348255 146.88867,0.31082558 143.85926,0.02738934 140.83133,-0.06151201 137.82227,0.04129432 Z M 141.6582,21.101841 c -4.00827,-0.118012 -7.99028,0.267936 -11.86718,1.142579 a 76.467316,76.453796 0 0 1 5.58789,7.875 c 0.0158,-0.0019 0.033,-0.002 0.0488,-0.0039 3.594,-0.429 7.62808,-0.353015 11.08008,0.208985 12.492,2.033 23.33336,10.125359 29.06836,21.693359 l 0.59961,1.205078 h 4.68555 c 2.577,0 4.6875,-0.02936 4.6875,-0.06836 0,-0.039 -0.18511,-0.544047 -0.41211,-1.123047 -6.629,-16.873 -21.77984,-28.636578 -39.46484,-30.642578 -1.33924,-0.15162 -2.67759,-0.247772 -4.01368,-0.28711 z m 15.78516,51.681641 -0.041,0.189453 -0.2207,1.080078 c -0.67,3.284 -2.50656,6.649141 -4.97656,9.119141 -2.05076,2.051351 -4.62304,3.54531 -7.35156,4.34375 a 76.467316,76.453796 0 0 1 -2.78711,9.324219 c 4.80108,-0.344001 9.53651,-2.047786 13.61914,-5.121094 3.311,-2.492 6.05639,-5.828563 7.90039,-9.601562 l 0.46484,-0.953126 h 18.45508 c 16.101,0 18.45117,0.01505 18.45117,0.123047 0,0.453 -0.86945,4.169579 -1.43945,6.142579 -3.161,10.954 -9.52799,21.061893 -18.08399,28.712893 -9.723,8.693 -21.82911,14.08559 -34.66211,15.43359 -4.06,0.427 -8.88209,0.426 -12.99609,0 -4.70057,-0.48716 -9.33439,-1.5323 -13.79297,-3.09179 a 76.467316,76.453796 0 0 1 -8.2793,6.15039 c 8.25885,3.65977 17.18435,5.69657 26.43165,5.99218 h 0.002 c 7.357,0.235 15.31459,-0.80129 22.30859,-2.90429 9.898,-2.977 18.585,-7.80266 26.5,-14.72266 1.304,-1.141 4.99839,-4.83439 6.15039,-6.15039 7.613,-8.691 12.84255,-18.656392 15.56055,-29.650392 1.126,-4.56 1.65028,-8.220672 1.98828,-13.888672 l 0.0312,-0.527344 z m 18.4082,14.730469 -0.49609,0.99414 c -1.795,3.609 -4.18117,6.924002 -7.20117,10 -6.411,6.531999 -14.39799,10.452269 -23.58399,11.572269 -1.517,0.185 -5.51636,0.26076 -7.06836,0.13476 -0.61276,-0.0499 -1.21644,-0.11174 -1.81054,-0.18359 a 76.467316,76.453796 0 0 1 -5.53711,7.93359 c 0.30301,0.066 0.60697,0.12902 0.91211,0.18946 3.239,0.643 5.17154,0.8125 9.18554,0.8125 3.409,0 4.18546,-0.0446 6.68946,-0.39063 6.97,-0.962 13.78056,-3.55562 19.72656,-7.51562 8.389,-5.586 14.80216,-13.578567 18.53515,-23.101567 l 0.17383,-0.445312 z"
     inkscape:export-filename="path15.svg"
     inkscape:export-xdpi="96"
     inkscape:export-ydpi="96" />
  <path
     d="m 68.135,140.62764 c -14.64,-0.468 -28.473,-5.302 -40.132,-14.027 A 70.5,70.5 0 0 1 7.307,101.90764 C 3.207,93.762638 0.904,85.577638 0.037,76.063638 L 0,75.660638 h 4.392 c 2.416,0 4.392,0.029 4.392,0.064 0,0.33 0.394,3.374 0.592,4.572 1.328,8.063 4.366,16.036 8.696,22.824002 l 0.41,0.643 5.205,-3.938002 c 2.863,-2.165 5.251,-3.983 5.307,-4.039 0.08,-0.08 -0.01,-0.296 -0.405,-0.984 -5.742,-9.97 -7.822,-21.58 -5.915,-33.01 1.657,-9.938 6.239,-18.92 13.437,-26.345 l 1.185,-1.223 -3.804,-5.063 c -2.092,-2.784 -3.839,-5.063 -3.881,-5.063 -0.198,0 -3.584,3.31 -5.111,4.996 -8.587,9.482 -14.086,21.512 -15.499,33.909 a 175,175 0 0 1 -0.181,1.545 l -0.046,0.36 H 0.017 l 0.027,-0.36 a 99,99 0 0 1 0.195,-1.926 c 1.429,-13.293 6.692,-25.936 15.162,-36.418 5.04,-6.237 11.236,-11.683 18.021,-15.838 C 46.427,2.4016378 61.636,-1.1163622 76.888,0.31063784 92.107,1.7346378 106.314,8.0056378 117.665,18.307638 a 72,72 0 0 1 9.119,10.055 c 8.073,10.827 12.896,23.835 13.739,37.054 l 0.125,1.968 0.037,0.572 H 87.527 l -0.037,-0.19 c -0.021,-0.106 -0.118,-0.64 -0.215,-1.187 -1.07,-6.004 -5.271,-11.212 -10.83,-13.428 -1.876,-0.747 -3.538,-1.095 -5.6,-1.17 -5.127,-0.19 -10.002,1.967 -13.439,5.942 -1.068,1.236 -1.854,2.436 -2.606,3.98 -0.966,1.985 -1.352,3.27 -1.783,5.947 l -0.045,0.275 h -8.736 l 0.06,-0.74 c 0.079,-0.987 0.41,-2.92 0.685,-4.01 1.937,-7.648 6.972,-13.995 13.833,-17.437 3.888,-1.951 7.749,-2.8 12.193,-2.68 2.789,0.076 5.072,0.488 7.616,1.374 3.732,1.3 6.922,3.313 9.794,6.177 2.285,2.28 4.132,4.92 5.42,7.749 l 0.444,0.973 18.339,0.022 c 18.16,0.02 18.338,0.02 18.338,-0.145 0,-0.247 -0.477,-2.504 -0.815,-3.856 -1.227,-4.907 -3.036,-9.638 -5.345,-13.97 -9.686,-18.18 -27.696,-30.369 -48.027,-32.5040002 -4.06,-0.427 -8.882,-0.427 -12.996,0 -9.46,0.9790002 -18.899,4.3060002 -26.86,9.4660002 l -0.615,0.398 3.738,4.97 c 2.056,2.734 3.765,5 3.797,5.037 0.032,0.037 0.512,-0.215 1.067,-0.56 a 44,44 0 0 1 4.56,-2.52 c 8.146,-3.96 17.174,-5.503 26.21,-4.48 17.685,2.006 32.835,13.769 39.464,30.642 0.227,0.579 0.413,1.083 0.413,1.122 0,0.039 -2.11,0.07 -4.687,0.07 h -4.687 l -0.598,-1.206 c -5.735,-11.568 -16.578,-19.66 -29.07,-21.693 -3.452,-0.562 -7.486,-0.639 -11.08,-0.21 -9.9,1.178 -19.354,6.51 -25.789,14.543 -8.714,10.879 -11.23,25.45 -6.682,38.691 3.448,10.038 10.812,18.406002 20.245,23.008002 4.528,2.21 9.05,3.43 14.3,3.858 1.552,0.126 5.553,0.05 7.07,-0.135 9.186,-1.12 17.172,-5.039 23.583,-11.571002 3.02,-3.076 5.407,-6.391 7.202,-10 l 0.495,-0.994 h 9.526 l -0.174,0.444 c -3.733,9.523 -10.146,17.516002 -18.535,23.102002 -5.946,3.96 -12.757,6.554 -19.727,7.516 -2.504,0.346 -3.28,0.391 -6.689,0.391 -4.014,0 -5.947,-0.17 -9.186,-0.813 -9.976,-1.976 -18.828,-6.925 -25.913,-14.486 -0.659,-0.703 -1.123,-1.134 -1.176,-1.094 l -5.276,3.985 -5.187,3.917 0.613,0.69 c 1.789,2.011 4.556,4.682 6.713,6.48 9.352,7.791 20.922,12.685 32.935,13.93 4.114,0.426 8.936,0.426 12.996,-0.001 12.833,-1.348 24.94,-6.739 34.663,-15.432 8.556,-7.651 14.922,-17.760002 18.083,-28.714002 0.57,-1.973 1.441,-5.689 1.441,-6.142 0,-0.108 -2.352,-0.123 -18.453,-0.123 H 94.051 l -0.465,0.952 c -1.844,3.773 -4.589,7.11 -7.9,9.602 -9.453,7.116 -22.41,6.888 -31.563,-0.555 -3.039,-2.47 -5.366,-5.396 -7.113,-8.941 -1.343,-2.725 -2.15,-5.283 -2.538,-8.043 a 78,78 0 0 0 -0.17,-1.165 l -0.039,-0.234 4.412,0.022 4.412,0.022 0.204,1.016 c 0.559,2.781 1.927,5.686 3.73,7.916 0.673,0.832 2.267,2.375 3.088,2.988 2.682,2.002 5.598,3.1 8.979,3.384 4.68,0.391 9.648,-1.485 13.118,-4.956 2.47,-2.47 4.306,-5.836 4.976,-9.12 l 0.221,-1.08 0.04,-0.19 h 53.232 l -0.031,0.529 c -0.338,5.668 -0.862,9.328 -1.988,13.888 -2.718,10.994 -7.947,20.960002 -15.56,29.651002 -1.152,1.316 -4.846,5.009 -6.15,6.15 -7.915,6.92 -16.602,11.746 -26.5,14.723 -6.994,2.103 -14.953,3.139 -22.31,2.904 z"
     id="path1"
     style="fill:url(#meshgradient604);fill-opacity:1" />
  <script
     id="mesh_polyfill"
     type="text/javascript">
!function(){const t=&quot;http://www.w3.org/2000/svg&quot;,e=&quot;http://www.w3.org/1999/xlink&quot;,s=&quot;http://www.w3.org/1999/xhtml&quot;,r=2;if(document.createElementNS(t,&quot;meshgradient&quot;).x)return;const n=(t,e,s,r)=&gt;{let n=new x(.5*(e.x+s.x),.5*(e.y+s.y)),o=new x(.5*(t.x+e.x),.5*(t.y+e.y)),i=new x(.5*(s.x+r.x),.5*(s.y+r.y)),a=new x(.5*(n.x+o.x),.5*(n.y+o.y)),h=new x(.5*(n.x+i.x),.5*(n.y+i.y)),l=new x(.5*(a.x+h.x),.5*(a.y+h.y));return[[t,o,a,l],[l,h,i,r]]},o=t=&gt;{let e=t[0].distSquared(t[1]),s=t[2].distSquared(t[3]),r=.25*t[0].distSquared(t[2]),n=.25*t[1].distSquared(t[3]),o=e&gt;s?e:s,i=r&gt;n?r:n;return 18*(o&gt;i?o:i)},i=(t,e)=&gt;Math.sqrt(t.distSquared(e)),a=(t,e)=&gt;t.scale(2/3).add(e.scale(1/3)),h=t=&gt;{let e,s,r,n,o,i,a,h=new g;return t.match(/(\w+\(\s*[^)]+\))+/g).forEach(t=&gt;{let l=t.match(/[\w.-]+/g),d=l.shift();switch(d){case&quot;translate&quot;:2===l.length?e=new g(1,0,0,1,l[0],l[1]):(console.error(&quot;mesh.js: translate does not have 2 arguments!&quot;),e=new g(1,0,0,1,0,0)),h=h.append(e);break;case&quot;scale&quot;:1===l.length?s=new g(l[0],0,0,l[0],0,0):2===l.length?s=new g(l[0],0,0,l[1],0,0):(console.error(&quot;mesh.js: scale does not have 1 or 2 arguments!&quot;),s=new g(1,0,0,1,0,0)),h=h.append(s);break;case&quot;rotate&quot;:if(3===l.length&amp;&amp;(e=new g(1,0,0,1,l[1],l[2]),h=h.append(e)),l[0]){r=l[0]*Math.PI/180;let t=Math.cos(r),e=Math.sin(r);Math.abs(t)&lt;1e-16&amp;&amp;(t=0),Math.abs(e)&lt;1e-16&amp;&amp;(e=0),a=new g(t,e,-e,t,0,0),h=h.append(a)}else console.error(&quot;math.js: No argument to rotate transform!&quot;);3===l.length&amp;&amp;(e=new g(1,0,0,1,-l[1],-l[2]),h=h.append(e));break;case&quot;skewX&quot;:l[0]?(r=l[0]*Math.PI/180,n=Math.tan(r),o=new g(1,0,n,1,0,0),h=h.append(o)):console.error(&quot;math.js: No argument to skewX transform!&quot;);break;case&quot;skewY&quot;:l[0]?(r=l[0]*Math.PI/180,n=Math.tan(r),i=new g(1,n,0,1,0,0),h=h.append(i)):console.error(&quot;math.js: No argument to skewY transform!&quot;);break;case&quot;matrix&quot;:6===l.length?h=h.append(new g(...l)):console.error(&quot;math.js: Incorrect number of arguments for matrix!&quot;);break;default:console.error(&quot;mesh.js: Unhandled transform type: &quot;+d)}}),h},l=t=&gt;{let e=[],s=t.split(/[ ,]+/);for(let t=0,r=s.length-1;t&lt;r;t+=2)e.push(new x(parseFloat(s[t]),parseFloat(s[t+1])));return e},d=(t,e)=&gt;{for(let s in e)t.setAttribute(s,e[s])},c=(t,e,s,r,n)=&gt;{let o,i,a=[0,0,0,0];for(let h=0;h&lt;3;++h)e[h]&lt;t[h]&amp;&amp;e[h]&lt;s[h]||t[h]&lt;e[h]&amp;&amp;s[h]&lt;e[h]?a[h]=0:(a[h]=.5*((e[h]-t[h])/r+(s[h]-e[h])/n),o=Math.abs(3*(e[h]-t[h])/r),i=Math.abs(3*(s[h]-e[h])/n),a[h]&gt;o?a[h]=o:a[h]&gt;i&amp;&amp;(a[h]=i));return a},u=[[1,0,0,0,0,0,0,0,0,0,0,0,0,0,0,0],[0,0,0,0,1,0,0,0,0,0,0,0,0,0,0,0],[-3,3,0,0,-2,-1,0,0,0,0,0,0,0,0,0,0],[2,-2,0,0,1,1,0,0,0,0,0,0,0,0,0,0],[0,0,0,0,0,0,0,0,1,0,0,0,0,0,0,0],[0,0,0,0,0,0,0,0,0,0,0,0,1,0,0,0],[0,0,0,0,0,0,0,0,-3,3,0,0,-2,-1,0,0],[0,0,0,0,0,0,0,0,2,-2,0,0,1,1,0,0],[-3,0,3,0,0,0,0,0,-2,0,-1,0,0,0,0,0],[0,0,0,0,-3,0,3,0,0,0,0,0,-2,0,-1,0],[9,-9,-9,9,6,3,-6,-3,6,-6,3,-3,4,2,2,1],[-6,6,6,-6,-3,-3,3,3,-4,4,-2,2,-2,-2,-1,-1],[2,0,-2,0,0,0,0,0,1,0,1,0,0,0,0,0],[0,0,0,0,2,0,-2,0,0,0,0,0,1,0,1,0],[-6,6,6,-6,-4,-2,4,2,-3,3,-3,3,-2,-1,-2,-1],[4,-4,-4,4,2,2,-2,-2,2,-2,2,-2,1,1,1,1]],f=t=&gt;{let e=[];for(let s=0;s&lt;16;++s){e[s]=0;for(let r=0;r&lt;16;++r)e[s]+=u[s][r]*t[r]}return e},p=(t,e,s)=&gt;{const r=e*e,n=s*s,o=e*e*e,i=s*s*s;return t[0]+t[1]*e+t[2]*r+t[3]*o+t[4]*s+t[5]*s*e+t[6]*s*r+t[7]*s*o+t[8]*n+t[9]*n*e+t[10]*n*r+t[11]*n*o+t[12]*i+t[13]*i*e+t[14]*i*r+t[15]*i*o},y=t=&gt;{let e=[],s=[],r=[];for(let s=0;s&lt;4;++s)e[s]=[],e[s][0]=n(t[0][s],t[1][s],t[2][s],t[3][s]),e[s][1]=[],e[s][1].push(...n(...e[s][0][0])),e[s][1].push(...n(...e[s][0][1])),e[s][2]=[],e[s][2].push(...n(...e[s][1][0])),e[s][2].push(...n(...e[s][1][1])),e[s][2].push(...n(...e[s][1][2])),e[s][2].push(...n(...e[s][1][3]));for(let t=0;t&lt;8;++t){s[t]=[];for(let r=0;r&lt;4;++r)s[t][r]=[],s[t][r][0]=n(e[0][2][t][r],e[1][2][t][r],e[2][2][t][r],e[3][2][t][r]),s[t][r][1]=[],s[t][r][1].push(...n(...s[t][r][0][0])),s[t][r][1].push(...n(...s[t][r][0][1])),s[t][r][2]=[],s[t][r][2].push(...n(...s[t][r][1][0])),s[t][r][2].push(...n(...s[t][r][1][1])),s[t][r][2].push(...n(...s[t][r][1][2])),s[t][r][2].push(...n(...s[t][r][1][3]))}for(let t=0;t&lt;8;++t){r[t]=[];for(let e=0;e&lt;8;++e)r[t][e]=[],r[t][e][0]=s[t][0][2][e],r[t][e][1]=s[t][1][2][e],r[t][e][2]=s[t][2][2][e],r[t][e][3]=s[t][3][2][e]}return r};class x{constructor(t,e){this.x=t||0,this.y=e||0}toString(){return`(x=${this.x}, y=${this.y})`}clone(){return new x(this.x,this.y)}add(t){return new x(this.x+t.x,this.y+t.y)}scale(t){return void 0===t.x?new x(this.x*t,this.y*t):new x(this.x*t.x,this.y*t.y)}distSquared(t){let e=this.x-t.x,s=this.y-t.y;return e*e+s*s}transform(t){let e=this.x*t.a+this.y*t.c+t.e,s=this.x*t.b+this.y*t.d+t.f;return new x(e,s)}}class g{constructor(t,e,s,r,n,o){void 0===t?(this.a=1,this.b=0,this.c=0,this.d=1,this.e=0,this.f=0):(this.a=t,this.b=e,this.c=s,this.d=r,this.e=n,this.f=o)}toString(){return`affine: ${this.a} ${this.c} ${this.e} \n       ${this.b} ${this.d} ${this.f}`}append(t){t instanceof g||console.error(&quot;mesh.js: argument to Affine.append is not affine!&quot;);let e=this.a*t.a+this.c*t.b,s=this.b*t.a+this.d*t.b,r=this.a*t.c+this.c*t.d,n=this.b*t.c+this.d*t.d,o=this.a*t.e+this.c*t.f+this.e,i=this.b*t.e+this.d*t.f+this.f;return new g(e,s,r,n,o,i)}}class w{constructor(t,e){this.nodes=t,this.colors=e}paintCurve(t,e){if(o(this.nodes)&gt;r){const s=n(...this.nodes);let r=[[],[]],o=[[],[]];for(let t=0;t&lt;4;++t)r[0][t]=this.colors[0][t],r[1][t]=(this.colors[0][t]+this.colors[1][t])/2,o[0][t]=r[1][t],o[1][t]=this.colors[1][t];let i=new w(s[0],r),a=new w(s[1],o);i.paintCurve(t,e),a.paintCurve(t,e)}else{let s=Math.round(this.nodes[0].x);if(s&gt;=0&amp;&amp;s&lt;e){let r=4*(~~this.nodes[0].y*e+s);t[r]=Math.round(this.colors[0][0]),t[r+1]=Math.round(this.colors[0][1]),t[r+2]=Math.round(this.colors[0][2]),t[r+3]=Math.round(this.colors[0][3])}}}}class m{constructor(t,e){this.nodes=t,this.colors=e}split(){let t=[[],[],[],[]],e=[[],[],[],[]],s=[[[],[]],[[],[]]],r=[[[],[]],[[],[]]];for(let s=0;s&lt;4;++s){const r=n(this.nodes[0][s],this.nodes[1][s],this.nodes[2][s],this.nodes[3][s]);t[0][s]=r[0][0],t[1][s]=r[0][1],t[2][s]=r[0][2],t[3][s]=r[0][3],e[0][s]=r[1][0],e[1][s]=r[1][1],e[2][s]=r[1][2],e[3][s]=r[1][3]}for(let t=0;t&lt;4;++t)s[0][0][t]=this.colors[0][0][t],s[0][1][t]=this.colors[0][1][t],s[1][0][t]=(this.colors[0][0][t]+this.colors[1][0][t])/2,s[1][1][t]=(this.colors[0][1][t]+this.colors[1][1][t])/2,r[0][0][t]=s[1][0][t],r[0][1][t]=s[1][1][t],r[1][0][t]=this.colors[1][0][t],r[1][1][t]=this.colors[1][1][t];return[new m(t,s),new m(e,r)]}paint(t,e){let s,n=!1;for(let t=0;t&lt;4;++t)if((s=o([this.nodes[0][t],this.nodes[1][t],this.nodes[2][t],this.nodes[3][t]]))&gt;r){n=!0;break}if(n){let s=this.split();s[0].paint(t,e),s[1].paint(t,e)}else{new w([...this.nodes[0]],[...this.colors[0]]).paintCurve(t,e)}}}class b{constructor(t){this.readMesh(t),this.type=t.getAttribute(&quot;type&quot;)||&quot;bilinear&quot;}readMesh(t){let e=[[]],s=[[]],r=Number(t.getAttribute(&quot;x&quot;)),n=Number(t.getAttribute(&quot;y&quot;));e[0][0]=new x(r,n);let o=t.children;for(let t=0,r=o.length;t&lt;r;++t){e[3*t+1]=[],e[3*t+2]=[],e[3*t+3]=[],s[t+1]=[];let r=o[t].children;for(let n=0,o=r.length;n&lt;o;++n){let o=r[n].children;for(let r=0,i=o.length;r&lt;i;++r){let i=r;0!==t&amp;&amp;++i;let h,d=o[r].getAttribute(&quot;path&quot;),c=&quot;l&quot;;null!=d&amp;&amp;(c=(h=d.match(/\s*([lLcC])\s*(.*)/))[1]);let u=l(h[2]);switch(c){case&quot;l&quot;:0===i?(e[3*t][3*n+3]=u[0].add(e[3*t][3*n]),e[3*t][3*n+1]=a(e[3*t][3*n],e[3*t][3*n+3]),e[3*t][3*n+2]=a(e[3*t][3*n+3],e[3*t][3*n])):1===i?(e[3*t+3][3*n+3]=u[0].add(e[3*t][3*n+3]),e[3*t+1][3*n+3]=a(e[3*t][3*n+3],e[3*t+3][3*n+3]),e[3*t+2][3*n+3]=a(e[3*t+3][3*n+3],e[3*t][3*n+3])):2===i?(0===n&amp;&amp;(e[3*t+3][3*n+0]=u[0].add(e[3*t+3][3*n+3])),e[3*t+3][3*n+1]=a(e[3*t+3][3*n],e[3*t+3][3*n+3]),e[3*t+3][3*n+2]=a(e[3*t+3][3*n+3],e[3*t+3][3*n])):(e[3*t+1][3*n]=a(e[3*t][3*n],e[3*t+3][3*n]),e[3*t+2][3*n]=a(e[3*t+3][3*n],e[3*t][3*n]));break;case&quot;L&quot;:0===i?(e[3*t][3*n+3]=u[0],e[3*t][3*n+1]=a(e[3*t][3*n],e[3*t][3*n+3]),e[3*t][3*n+2]=a(e[3*t][3*n+3],e[3*t][3*n])):1===i?(e[3*t+3][3*n+3]=u[0],e[3*t+1][3*n+3]=a(e[3*t][3*n+3],e[3*t+3][3*n+3]),e[3*t+2][3*n+3]=a(e[3*t+3][3*n+3],e[3*t][3*n+3])):2===i?(0===n&amp;&amp;(e[3*t+3][3*n+0]=u[0]),e[3*t+3][3*n+1]=a(e[3*t+3][3*n],e[3*t+3][3*n+3]),e[3*t+3][3*n+2]=a(e[3*t+3][3*n+3],e[3*t+3][3*n])):(e[3*t+1][3*n]=a(e[3*t][3*n],e[3*t+3][3*n]),e[3*t+2][3*n]=a(e[3*t+3][3*n],e[3*t][3*n]));break;case&quot;c&quot;:0===i?(e[3*t][3*n+1]=u[0].add(e[3*t][3*n]),e[3*t][3*n+2]=u[1].add(e[3*t][3*n]),e[3*t][3*n+3]=u[2].add(e[3*t][3*n])):1===i?(e[3*t+1][3*n+3]=u[0].add(e[3*t][3*n+3]),e[3*t+2][3*n+3]=u[1].add(e[3*t][3*n+3]),e[3*t+3][3*n+3]=u[2].add(e[3*t][3*n+3])):2===i?(e[3*t+3][3*n+2]=u[0].add(e[3*t+3][3*n+3]),e[3*t+3][3*n+1]=u[1].add(e[3*t+3][3*n+3]),0===n&amp;&amp;(e[3*t+3][3*n+0]=u[2].add(e[3*t+3][3*n+3]))):(e[3*t+2][3*n]=u[0].add(e[3*t+3][3*n]),e[3*t+1][3*n]=u[1].add(e[3*t+3][3*n]));break;case&quot;C&quot;:0===i?(e[3*t][3*n+1]=u[0],e[3*t][3*n+2]=u[1],e[3*t][3*n+3]=u[2]):1===i?(e[3*t+1][3*n+3]=u[0],e[3*t+2][3*n+3]=u[1],e[3*t+3][3*n+3]=u[2]):2===i?(e[3*t+3][3*n+2]=u[0],e[3*t+3][3*n+1]=u[1],0===n&amp;&amp;(e[3*t+3][3*n+0]=u[2])):(e[3*t+2][3*n]=u[0],e[3*t+1][3*n]=u[1]);break;default:console.error(&quot;mesh.js: &quot;+c+&quot; invalid path type.&quot;)}if(0===t&amp;&amp;0===n||r&gt;0){let e=window.getComputedStyle(o[r]).stopColor.match(/^rgb\s*\(\s*(\d+)\s*,\s*(\d+)\s*,\s*(\d+)\s*\)$/i),a=window.getComputedStyle(o[r]).stopOpacity,h=255;a&amp;&amp;(h=Math.floor(255*a)),e&amp;&amp;(0===i?(s[t][n]=[],s[t][n][0]=Math.floor(e[1]),s[t][n][1]=Math.floor(e[2]),s[t][n][2]=Math.floor(e[3]),s[t][n][3]=h):1===i?(s[t][n+1]=[],s[t][n+1][0]=Math.floor(e[1]),s[t][n+1][1]=Math.floor(e[2]),s[t][n+1][2]=Math.floor(e[3]),s[t][n+1][3]=h):2===i?(s[t+1][n+1]=[],s[t+1][n+1][0]=Math.floor(e[1]),s[t+1][n+1][1]=Math.floor(e[2]),s[t+1][n+1][2]=Math.floor(e[3]),s[t+1][n+1][3]=h):3===i&amp;&amp;(s[t+1][n]=[],s[t+1][n][0]=Math.floor(e[1]),s[t+1][n][1]=Math.floor(e[2]),s[t+1][n][2]=Math.floor(e[3]),s[t+1][n][3]=h))}}e[3*t+1][3*n+1]=new x,e[3*t+1][3*n+2]=new x,e[3*t+2][3*n+1]=new x,e[3*t+2][3*n+2]=new x,e[3*t+1][3*n+1].x=(-4*e[3*t][3*n].x+6*(e[3*t][3*n+1].x+e[3*t+1][3*n].x)+-2*(e[3*t][3*n+3].x+e[3*t+3][3*n].x)+3*(e[3*t+3][3*n+1].x+e[3*t+1][3*n+3].x)+-1*e[3*t+3][3*n+3].x)/9,e[3*t+1][3*n+2].x=(-4*e[3*t][3*n+3].x+6*(e[3*t][3*n+2].x+e[3*t+1][3*n+3].x)+-2*(e[3*t][3*n].x+e[3*t+3][3*n+3].x)+3*(e[3*t+3][3*n+2].x+e[3*t+1][3*n].x)+-1*e[3*t+3][3*n].x)/9,e[3*t+2][3*n+1].x=(-4*e[3*t+3][3*n].x+6*(e[3*t+3][3*n+1].x+e[3*t+2][3*n].x)+-2*(e[3*t+3][3*n+3].x+e[3*t][3*n].x)+3*(e[3*t][3*n+1].x+e[3*t+2][3*n+3].x)+-1*e[3*t][3*n+3].x)/9,e[3*t+2][3*n+2].x=(-4*e[3*t+3][3*n+3].x+6*(e[3*t+3][3*n+2].x+e[3*t+2][3*n+3].x)+-2*(e[3*t+3][3*n].x+e[3*t][3*n+3].x)+3*(e[3*t][3*n+2].x+e[3*t+2][3*n].x)+-1*e[3*t][3*n].x)/9,e[3*t+1][3*n+1].y=(-4*e[3*t][3*n].y+6*(e[3*t][3*n+1].y+e[3*t+1][3*n].y)+-2*(e[3*t][3*n+3].y+e[3*t+3][3*n].y)+3*(e[3*t+3][3*n+1].y+e[3*t+1][3*n+3].y)+-1*e[3*t+3][3*n+3].y)/9,e[3*t+1][3*n+2].y=(-4*e[3*t][3*n+3].y+6*(e[3*t][3*n+2].y+e[3*t+1][3*n+3].y)+-2*(e[3*t][3*n].y+e[3*t+3][3*n+3].y)+3*(e[3*t+3][3*n+2].y+e[3*t+1][3*n].y)+-1*e[3*t+3][3*n].y)/9,e[3*t+2][3*n+1].y=(-4*e[3*t+3][3*n].y+6*(e[3*t+3][3*n+1].y+e[3*t+2][3*n].y)+-2*(e[3*t+3][3*n+3].y+e[3*t][3*n].y)+3*(e[3*t][3*n+1].y+e[3*t+2][3*n+3].y)+-1*e[3*t][3*n+3].y)/9,e[3*t+2][3*n+2].y=(-4*e[3*t+3][3*n+3].y+6*(e[3*t+3][3*n+2].y+e[3*t+2][3*n+3].y)+-2*(e[3*t+3][3*n].y+e[3*t][3*n+3].y)+3*(e[3*t][3*n+2].y+e[3*t+2][3*n].y)+-1*e[3*t][3*n].y)/9}}this.nodes=e,this.colors=s}paintMesh(t,e){let s=(this.nodes.length-1)/3,r=(this.nodes[0].length-1)/3;if(&quot;bilinear&quot;===this.type||s&lt;2||r&lt;2){let n;for(let o=0;o&lt;s;++o)for(let s=0;s&lt;r;++s){let r=[];for(let t=3*o,e=3*o+4;t&lt;e;++t)r.push(this.nodes[t].slice(3*s,3*s+4));let i=[];i.push(this.colors[o].slice(s,s+2)),i.push(this.colors[o+1].slice(s,s+2)),(n=new m(r,i)).paint(t,e)}}else{let n,o,a,h,l,d,u;const x=s,g=r;s++,r++;let w=new Array(s);for(let t=0;t&lt;s;++t){w[t]=new Array(r);for(let e=0;e&lt;r;++e)w[t][e]=[],w[t][e][0]=this.nodes[3*t][3*e],w[t][e][1]=this.colors[t][e]}for(let t=0;t&lt;s;++t)for(let e=0;e&lt;r;++e)0!==t&amp;&amp;t!==x&amp;&amp;(n=i(w[t-1][e][0],w[t][e][0]),o=i(w[t+1][e][0],w[t][e][0]),w[t][e][2]=c(w[t-1][e][1],w[t][e][1],w[t+1][e][1],n,o)),0!==e&amp;&amp;e!==g&amp;&amp;(n=i(w[t][e-1][0],w[t][e][0]),o=i(w[t][e+1][0],w[t][e][0]),w[t][e][3]=c(w[t][e-1][1],w[t][e][1],w[t][e+1][1],n,o));for(let t=0;t&lt;r;++t){w[0][t][2]=[],w[x][t][2]=[];for(let e=0;e&lt;4;++e)n=i(w[1][t][0],w[0][t][0]),o=i(w[x][t][0],w[x-1][t][0]),w[0][t][2][e]=n&gt;0?2*(w[1][t][1][e]-w[0][t][1][e])/n-w[1][t][2][e]:0,w[x][t][2][e]=o&gt;0?2*(w[x][t][1][e]-w[x-1][t][1][e])/o-w[x-1][t][2][e]:0}for(let t=0;t&lt;s;++t){w[t][0][3]=[],w[t][g][3]=[];for(let e=0;e&lt;4;++e)n=i(w[t][1][0],w[t][0][0]),o=i(w[t][g][0],w[t][g-1][0]),w[t][0][3][e]=n&gt;0?2*(w[t][1][1][e]-w[t][0][1][e])/n-w[t][1][3][e]:0,w[t][g][3][e]=o&gt;0?2*(w[t][g][1][e]-w[t][g-1][1][e])/o-w[t][g-1][3][e]:0}for(let s=0;s&lt;x;++s)for(let r=0;r&lt;g;++r){let n=i(w[s][r][0],w[s+1][r][0]),o=i(w[s][r+1][0],w[s+1][r+1][0]),c=i(w[s][r][0],w[s][r+1][0]),x=i(w[s+1][r][0],w[s+1][r+1][0]),g=[[],[],[],[]];for(let t=0;t&lt;4;++t){(d=[])[0]=w[s][r][1][t],d[1]=w[s+1][r][1][t],d[2]=w[s][r+1][1][t],d[3]=w[s+1][r+1][1][t],d[4]=w[s][r][2][t]*n,d[5]=w[s+1][r][2][t]*n,d[6]=w[s][r+1][2][t]*o,d[7]=w[s+1][r+1][2][t]*o,d[8]=w[s][r][3][t]*c,d[9]=w[s+1][r][3][t]*x,d[10]=w[s][r+1][3][t]*c,d[11]=w[s+1][r+1][3][t]*x,d[12]=0,d[13]=0,d[14]=0,d[15]=0,u=f(d);for(let e=0;e&lt;9;++e){g[t][e]=[];for(let s=0;s&lt;9;++s)g[t][e][s]=p(u,e/8,s/8),g[t][e][s]&gt;255?g[t][e][s]=255:g[t][e][s]&lt;0&amp;&amp;(g[t][e][s]=0)}}h=[];for(let t=3*s,e=3*s+4;t&lt;e;++t)h.push(this.nodes[t].slice(3*r,3*r+4));l=y(h);for(let s=0;s&lt;8;++s)for(let r=0;r&lt;8;++r)(a=new m(l[s][r],[[[g[0][s][r],g[1][s][r],g[2][s][r],g[3][s][r]],[g[0][s][r+1],g[1][s][r+1],g[2][s][r+1],g[3][s][r+1]]],[[g[0][s+1][r],g[1][s+1][r],g[2][s+1][r],g[3][s+1][r]],[g[0][s+1][r+1],g[1][s+1][r+1],g[2][s+1][r+1],g[3][s+1][r+1]]]])).paint(t,e)}}}transform(t){if(t instanceof x)for(let e=0,s=this.nodes.length;e&lt;s;++e)for(let s=0,r=this.nodes[0].length;s&lt;r;++s)this.nodes[e][s]=this.nodes[e][s].add(t);else if(t instanceof g)for(let e=0,s=this.nodes.length;e&lt;s;++e)for(let s=0,r=this.nodes[0].length;s&lt;r;++s)this.nodes[e][s]=this.nodes[e][s].transform(t)}scale(t){for(let e=0,s=this.nodes.length;e&lt;s;++e)for(let s=0,r=this.nodes[0].length;s&lt;r;++s)this.nodes[e][s]=this.nodes[e][s].scale(t)}}document.querySelectorAll(&quot;rect,circle,ellipse,path,text&quot;).forEach((r,n)=&gt;{let o=r.getAttribute(&quot;id&quot;);o||(o=&quot;patchjs_shape&quot;+n,r.setAttribute(&quot;id&quot;,o));const i=r.style.fill.match(/^url\(\s*&quot;?\s*#([^\s&quot;]+)&quot;?\s*\)/),a=r.style.stroke.match(/^url\(\s*&quot;?\s*#([^\s&quot;]+)&quot;?\s*\)/);if(i&amp;&amp;i[1]){const a=document.getElementById(i[1]);if(a&amp;&amp;&quot;meshgradient&quot;===a.nodeName){const i=r.getBBox();let l=document.createElementNS(s,&quot;canvas&quot;);d(l,{width:i.width,height:i.height});const c=l.getContext(&quot;2d&quot;);let u=c.createImageData(i.width,i.height);const f=new b(a);&quot;objectBoundingBox&quot;===a.getAttribute(&quot;gradientUnits&quot;)&amp;&amp;f.scale(new x(i.width,i.height));const p=a.getAttribute(&quot;gradientTransform&quot;);null!=p&amp;&amp;f.transform(h(p)),&quot;userSpaceOnUse&quot;===a.getAttribute(&quot;gradientUnits&quot;)&amp;&amp;f.transform(new x(-i.x,-i.y)),f.paintMesh(u.data,l.width),c.putImageData(u,0,0);const y=document.createElementNS(t,&quot;image&quot;);d(y,{width:i.width,height:i.height,x:i.x,y:i.y});let g=l.toDataURL();y.setAttributeNS(e,&quot;xlink:href&quot;,g),r.parentNode.insertBefore(y,r),r.style.fill=&quot;none&quot;;const w=document.createElementNS(t,&quot;use&quot;);w.setAttributeNS(e,&quot;xlink:href&quot;,&quot;#&quot;+o);const m=&quot;patchjs_clip&quot;+n,M=document.createElementNS(t,&quot;clipPath&quot;);M.setAttribute(&quot;id&quot;,m),M.appendChild(w),r.parentElement.insertBefore(M,r),y.setAttribute(&quot;clip-path&quot;,&quot;url(#&quot;+m+&quot;)&quot;),u=null,l=null,g=null}}if(a&amp;&amp;a[1]){const o=document.getElementById(a[1]);if(o&amp;&amp;&quot;meshgradient&quot;===o.nodeName){const i=parseFloat(r.style.strokeWidth.slice(0,-2))*(parseFloat(r.style.strokeMiterlimit)||parseFloat(r.getAttribute(&quot;stroke-miterlimit&quot;))||1),a=r.getBBox(),l=Math.trunc(a.width+i),c=Math.trunc(a.height+i),u=Math.trunc(a.x-i/2),f=Math.trunc(a.y-i/2);let p=document.createElementNS(s,&quot;canvas&quot;);d(p,{width:l,height:c});const y=p.getContext(&quot;2d&quot;);let g=y.createImageData(l,c);const w=new b(o);&quot;objectBoundingBox&quot;===o.getAttribute(&quot;gradientUnits&quot;)&amp;&amp;w.scale(new x(l,c));const m=o.getAttribute(&quot;gradientTransform&quot;);null!=m&amp;&amp;w.transform(h(m)),&quot;userSpaceOnUse&quot;===o.getAttribute(&quot;gradientUnits&quot;)&amp;&amp;w.transform(new x(-u,-f)),w.paintMesh(g.data,p.width),y.putImageData(g,0,0);const M=document.createElementNS(t,&quot;image&quot;);d(M,{width:l,height:c,x:0,y:0});let S=p.toDataURL();M.setAttributeNS(e,&quot;xlink:href&quot;,S);const k=&quot;pattern_clip&quot;+n,A=document.createElementNS(t,&quot;pattern&quot;);d(A,{id:k,patternUnits:&quot;userSpaceOnUse&quot;,width:l,height:c,x:u,y:f}),A.appendChild(M),o.parentNode.appendChild(A),r.style.stroke=&quot;url(#&quot;+k+&quot;)&quot;,g=null,p=null,S=null}}})}();
</script>
</svg>
