<?xml version="1.0" encoding="UTF-8" standalone="no"?>
<svg
   xmlns:dc="http://purl.org/dc/elements/1.1/"
   xmlns:cc="http://creativecommons.org/ns#"
   xmlns:rdf="http://www.w3.org/1999/02/22-rdf-syntax-ns#"
   xmlns:svg="http://www.w3.org/2000/svg"
   xmlns="http://www.w3.org/2000/svg"
   xmlns:sodipodi="http://sodipodi.sourceforge.net/DTD/sodipodi-0.dtd"
   xmlns:inkscape="http://www.inkscape.org/namespaces/inkscape"
   version="1.1"
   id="svg2"
   viewBox="0 0 168 50.000001"
   height="50"
   width="168"
   sodipodi:docname="logo-accenture-168x50.svg"
   inkscape:version="0.92.2 (5c3e80d, 2017-08-06)">
  <sodipodi:namedview
     pagecolor="#ffffff"
     bordercolor="#666666"
     borderopacity="1"
     objecttolerance="10"
     gridtolerance="10"
     guidetolerance="10"
     inkscape:pageopacity="0"
     inkscape:pageshadow="2"
     inkscape:window-width="1920"
     inkscape:window-height="1013"
     id="namedview18"
     showgrid="false"
     inkscape:zoom="5.402261"
     inkscape:cx="49.622886"
     inkscape:cy="23.992721"
     inkscape:window-x="3831"
     inkscape:window-y="-9"
     inkscape:window-maximized="1"
     inkscape:current-layer="svg2" />
  <metadata
     id="metadata4504">
    <rdf:RDF>
      <cc:Work
         rdf:about="">
        <dc:format>image/svg+xml</dc:format>
        <dc:type
           rdf:resource="http://purl.org/dc/dcmitype/StillImage" />
        <dc:title />
      </cc:Work>
    </rdf:RDF>
  </metadata>
  <defs
     id="defs4">
    <style
       id="style4236">.cls-1{fill:#ff9500;}</style>
    <clipPath
       id="clipPath4526">
      <path
         d="M 0,792 H 612 V 0 H 0 Z"
         id="path4528"
         inkscape:connector-curvature="0" />
    </clipPath>
  </defs>
  <g
     transform="matrix(1.1885658,0,0,1.1885658,-4.695905e-4,-15.758183)"
     id="layer2">
    <g
       id="g4516">
      <g
         id="g4518"
         transform="translate(0,14)">
        <path
           style="fill:#aa1133;fill-opacity:1"
           d="M 82.383,12.077 90.521,9.053 82.384,5.873 V 1.663 L 96.32,7.275 v 3.492 L 82.383,16.41 Z"
           id="path4520"
           inkscape:connector-curvature="0" />
      </g>
      <g
         id="g4522">
        <g
           transform="matrix(0.86617,0,0,-0.86617,-181.962,470.736)"
           id="g4524"
           clip-path="url(#clipPath4526)">
          <g
             id="g4530"
             transform="translate(0,-16.16311)">
            <path
               d="m 361.095,510.52 h 7.056 c -0.108,2.77 -1.368,3.96 -3.455,3.96 -1.656,0 -3.167,-0.9 -3.6,-3.96 m 3.744,-11.986 c -5.436,0 -9.143,3.24 -9.143,9.502 v 0.36 c 0,6.3 3.922,9.755 8.96,9.755 4.68,0 8.605,-2.627 8.605,-8.854 v -2.268 h -12.238 c 0.216,-3.383 1.655,-4.68 3.923,-4.68 2.015,0 3.095,1.08 3.456,2.448 h 4.86 c -0.577,-3.563 -3.492,-6.262 -8.424,-6.262 m -21.708,19.22 h 5.255 V 514.3 c 1.116,2.52 2.88,3.706 5.65,3.706 v -5.182 c -3.562,0 -5.65,-1.08 -5.65,-4.212 v -9.683 h -5.255 v 18.824 z m -3.817,-18.825 h -5.256 v 2.77 c -0.9,-1.8 -2.664,-3.166 -5.473,-3.166 -3.383,0 -5.867,2.052 -5.867,6.478 v 12.742 h 5.292 v -11.95 c 0,-2.16 0.863,-3.167 2.735,-3.167 1.836,0 3.312,1.152 3.312,3.49 v 11.627 h 5.255 V 498.93 Z m -23.4,24.512 v -5.688 h 3.6 v -3.922 h -3.6 v -8.927 c 0,-1.405 0.648,-2.052 1.872,-2.052 0.756,0 1.33,0.108 1.835,0.323 v -4.103 c -0.61,-0.18 -1.655,-0.396 -2.95,-0.396 -4.104,0 -6.048,1.872 -6.048,5.688 v 9.467 h -2.196 v 3.922 h 2.196 v 3.53 l 5.29,2.158 z m -26.46,-5.688 h 5.256 v -2.807 c 0.938,1.764 2.81,3.204 5.69,3.204 3.42,0 5.686,-2.05 5.686,-6.622 v -12.6 h -5.256 v 11.808 c 0,2.195 -0.9,3.168 -2.807,3.168 -1.835,0 -3.312,-1.116 -3.312,-3.492 V 498.93 h -5.254 v 18.824 z m -15.407,-7.234 h 7.056 c -0.11,2.77 -1.368,3.96 -3.456,3.96 -1.656,0 -3.167,-0.9 -3.6,-3.96 m 3.744,-11.986 c -5.435,0 -9.142,3.24 -9.142,9.502 v 0.36 c 0,6.3 3.923,9.755 8.962,9.755 4.68,0 8.603,-2.627 8.603,-8.854 v -2.268 h -12.238 c 0.216,-3.383 1.655,-4.68 3.923,-4.68 2.015,0 3.095,1.08 3.456,2.448 h 4.86 c -0.577,-3.563 -3.492,-6.262 -8.424,-6.262 m -19.728,0 c -5.22,0 -8.998,3.24 -8.998,9.61 v 0.252 c 0,6.37 4.03,9.755 9.034,9.755 4.283,0 7.81,-2.16 8.243,-7.09 h -5.04 c -0.323,1.835 -1.26,3.024 -3.095,3.024 -2.232,0 -3.78,-1.764 -3.78,-5.472 v -0.576 c 0,-3.816 1.368,-5.543 3.816,-5.543 1.8,0 3.13,1.332 3.42,3.384 h 4.787 c -0.36,-4.284 -3.275,-7.343 -8.386,-7.343 m -19.584,0 c -5.22,0 -8.998,3.24 -8.998,9.61 v 0.252 c 0,6.37 4.03,9.755 9.034,9.755 4.283,0 7.81,-2.16 8.243,-7.09 h -5.04 c -0.324,1.835 -1.26,3.024 -3.096,3.024 -2.232,0 -3.78,-1.764 -3.78,-5.472 v -0.576 c 0,-3.816 1.368,-5.543 3.816,-5.543 1.8,0 3.13,1.332 3.42,3.384 h 4.787 c -0.36,-4.284 -3.276,-7.343 -8.387,-7.343 m -17.172,6.66 v 1.798 h -2.088 c -2.592,0 -3.923,-0.72 -3.923,-2.41 v -0.18 c 0,-1.297 0.792,-2.197 2.556,-2.197 1.8,0 3.455,1.007 3.455,2.988 m -5.04,-6.66 c -3.383,0 -6.19,1.728 -6.19,5.544 v 0.216 c 0,4.643 4.03,6.155 8.89,6.155 h 2.34 v 0.9 c 0,1.87 -0.828,3.024 -2.772,3.024 -1.763,0 -2.7,-1.008 -2.843,-2.45 h -5.04 c 0.36,4.177 3.67,6.23 8.135,6.23 4.536,0 7.776,-1.945 7.776,-6.624 v -12.6 h -5.148 v 2.16 c -0.9,-1.367 -2.628,-2.554 -5.147,-2.554"
               id="path4532"
               inkscape:connector-curvature="0" />
          </g>
        </g>
      </g>
    </g>
  </g>
  <style
     id="style4299">.st0{fill:#FFD42E;} .st1{fill:#FFFFFF;}</style>
  <style
     id="style4364">.st0{fill:#FFD42E;} .st1{fill:#FFFFFF;}</style>
</svg>
