<?xml version="1.0" encoding="UTF-8" standalone="no"?>
<svg
   xmlns:dc="http://purl.org/dc/elements/1.1/"
   xmlns:cc="http://creativecommons.org/ns#"
   xmlns:rdf="http://www.w3.org/1999/02/22-rdf-syntax-ns#"
   xmlns:svg="http://www.w3.org/2000/svg"
   xmlns="http://www.w3.org/2000/svg"
   viewBox="0 0 3733.3333 933.33331"
   height="933.33331"
   width="3733.3333"
   xml:space="preserve"
   id="svg2"
   version="1.1"><metadata
     id="metadata8"><rdf:RDF><cc:Work
         rdf:about=""><dc:format>image/svg+xml</dc:format><dc:type
           rdf:resource="http://purl.org/dc/dcmitype/StillImage" /></cc:Work></rdf:RDF></metadata><defs
     id="defs6"><clipPath
       id="clipPath20"
       clipPathUnits="userSpaceOnUse"><path
         id="path18"
         d="M 0,700 H 2800 V 0 H 0 Z" /></clipPath></defs><g
     transform="matrix(1.3333333,0,0,-1.3333333,0,933.33333)"
     id="g10"><path
       id="path12"
       style="fill:#ffffff;fill-opacity:1;fill-rule:nonzero;stroke:none"
       d="M 0,0 H 2800 V 700 H 0 Z" /><g
       id="g14"><g
         clip-path="url(#clipPath20)"
         id="g16"><g
           transform="translate(2578.2954,324.3475)"
           id="g22"><path
             id="path24"
             style="fill:#1b2f3e;fill-opacity:1;fill-rule:nonzero;stroke:none"
             d="m 0,0 c -9.399,0 -17.45,-7.996 -24.157,-23.984 -6.699,-15.981 -10.046,-34.282 -10.046,-54.907 0,-15.242 4.812,-22.859 14.437,-22.859 9.281,0 17.359,7.961 24.234,23.891 6.875,15.925 10.313,34.258 10.313,55 0,7.562 -1.32,13.258 -3.953,17.093 C 8.191,-1.922 4.582,0 0,0 m -27.157,-151.594 c -23.949,0 -42.429,6.473 -55.437,19.422 -13,12.946 -19.5,31.453 -19.5,55.516 0,24.062 4.551,45.801 13.656,65.219 9.113,19.425 21.922,34.523 38.422,45.296 16.5,10.77 35.75,16.157 57.75,16.157 23.945,0 42.422,-6.477 55.422,-19.422 13.008,-12.949 19.516,-31.453 19.516,-55.516 0,-24.062 -4.559,-45.808 -13.672,-65.234 -9.106,-19.418 -21.907,-34.512 -38.407,-45.281 -16.5,-10.774 -35.75,-16.157 -57.75,-16.157" /></g><g
           transform="translate(2410.6892,413.7225)"
           id="g26"><path
             id="path28"
             style="fill:#1b2f3e;fill-opacity:1;fill-rule:nonzero;stroke:none"
             d="m 0,0 c 0,11.801 3.406,20.738 10.219,26.813 6.82,6.07 16.363,9.109 28.625,9.109 10.426,0 18.473,-2.094 24.141,-6.281 C 68.66,25.461 71.5,19.477 71.5,11.688 71.5,0.227 68.176,-8.625 61.531,-14.875 54.883,-21.117 45.317,-24.234 32.828,-24.234 10.942,-24.234 0,-16.156 0,0 m 17.36,-237.981 h -66.516 l 41.078,195 h 66.859 z" /></g><g
           transform="translate(2256.5801,226.5398)"
           id="g30"><path
             id="path32"
             style="fill:#1b2f3e;fill-opacity:1;fill-rule:nonzero;stroke:none"
             d="m 0,0 c 5.726,0 11.195,3.348 16.406,10.047 5.219,6.707 9.375,15.676 12.469,26.907 3.094,11.226 4.64,22.226 4.64,33 0,16.5 -4.586,24.75 -13.75,24.75 -5.617,0 -11.117,-3.383 -16.5,-10.141 C -2.121,77.801 -6.477,68.891 -9.797,57.829 -13.121,46.774 -14.781,35.692 -14.781,24.579 -14.781,8.192 -9.856,0 0,0 m 3.609,148.157 c 8.594,0 15.813,-1.665 21.656,-5.165 5.844,-3.492 12.204,-10.79 19.079,-20.79 h 1.375 l 0.343,6.274 c 0.801,15.813 2.235,28.089 4.297,37.144 l 10.656,51.582 h 67.204 L 71.5,-49.798 H 18.39 l 1.719,21 h -1.375 c -6.531,-9 -13.406,-15.453 -20.625,-19.117 -7.219,-3.664 -15.699,-5.519 -25.437,-5.519 -18.106,0 -31.856,6.374 -41.25,19.148 -9.399,12.781 -14.094,31.139 -14.094,55.088 0,20.395 4.094,41.189 12.281,62.388 8.195,21.195 18.711,37.319 31.547,48.374 12.832,11.062 26.984,16.593 42.453,16.593" /></g><g
           transform="translate(2127.1895,175.7414)"
           id="g34"><path
             id="path36"
             style="fill:#1b2f3e;fill-opacity:1;fill-rule:nonzero;stroke:none"
             d="m 0,0 h -53.109 l 1.719,22 h -1.375 C -59.183,13 -66.117,6.522 -73.562,2.795 c -7.45,-3.718 -15.871,-5.68 -25.266,-5.68 -18.105,0 -31.855,6.331 -41.25,19.105 -9.398,12.781 -14.094,31.119 -14.094,55.068 0,20.508 4.18,41.409 12.547,62.722 8.363,21.312 18.93,37.404 31.703,48.291 12.782,10.882 26.907,16.324 42.375,16.324 9.625,0 18.102,-2.215 25.438,-6.515 7.332,-4.293 13.863,-11.11 19.594,-21.11 h 1.375 l 9.109,24 H 41.25 Z m -71.5,50.465 c 5.727,0 11.195,3.348 16.406,10.047 5.219,6.707 9.375,15.676 12.469,26.907 3.094,11.226 4.641,22.226 4.641,33 0,7.445 -1.149,13.429 -3.438,17.953 -2.293,4.531 -5.843,6.797 -10.656,6.797 -8.711,0 -16.59,-7.25 -23.641,-21.75 -7.043,-14.493 -10.562,-30.618 -10.562,-48.375 0,-16.387 4.926,-24.579 14.781,-24.579" /></g><g
           transform="translate(1850.4982,318.7414)"
           id="g38"><path
             id="path40"
             style="fill:#1b2f3e;fill-opacity:1;fill-rule:nonzero;stroke:none"
             d="m 0,0 h 8.766 c 10.882,0 19.535,3.084 25.953,9.327 6.414,6.25 9.625,14.972 9.625,26.202 0,7.102 -1.981,12.337 -5.938,16.056 C 34.457,55.311 28.703,57 21.141,57 h -9.11 z m -10.828,-51 -19.422,-92 h -67.203 l 53.109,252 h 66.516 c 28.875,0 50.988,-5.864 66.344,-17.321 15.351,-11.461 23.031,-28.772 23.031,-51.803 0,-17.875 -4.07,-33.494 -12.203,-46.783 C 91.207,-20.2 79.117,-30.357 63.078,-37.346 l 38.5,-88.921 6.875,-16.733 H 35.234 L 1.719,-51 Z" /></g><g
           transform="translate(1675.5292,329.3315)"
           id="g42"><path
             id="path44"
             style="fill:#1b2f3e;fill-opacity:1;fill-rule:nonzero;stroke:none"
             d="m 0,0 c -6.992,0 -13.523,-4.272 -19.594,-12.241 -6.074,-7.961 -9.742,-16.349 -11,-27.349 h 4.985 c 12.488,0 22.285,2.662 29.39,7.412 7.102,4.758 10.657,11.179 10.657,18.972 0,3.664 -1.149,6.83 -3.438,9.353 C 8.707,-1.333 5.039,0 0,0 m -27.156,-156.578 c -24.293,0 -43.199,6.785 -56.719,20.36 -13.523,13.582 -20.281,32.461 -20.281,56.64 0,24.176 4.781,45.973 14.344,65.391 9.57,19.426 22.691,34.148 39.359,44.172 16.676,10.031 35.957,15.047 57.844,15.047 21.769,0 38.898,-4.93 51.39,-14.782 C 71.27,20.395 77.516,7.274 77.516,-9.109 77.516,-32.14 68.547,-49.811 50.609,-62.131 32.68,-74.444 6.758,-80.59 -27.156,-80.59 h -9.693 v -2.769 c 0,-16.961 9.171,-25.437 27.964,-25.437 9.05,0 17.759,1.343 26.47,4.031 8.707,2.695 18.566,6.969 29.566,12.812 v -47.093 c -13,-6.532 -24.752,-11.09 -35.865,-13.672 -11.117,-2.571 -23.891,-3.86 -38.442,-3.86" /></g><g
           transform="translate(1478.1958,172.7535)"
           id="g46"><path
             id="path48"
             style="fill:#1b2f3e;fill-opacity:1;fill-rule:nonzero;stroke:none"
             d="m 0,0 c -22.805,0 -40.594,6.899 -53.375,20.703 -12.773,13.813 -19.156,33.379 -19.156,58.704 0,23.031 4.379,43.91 13.14,62.64 8.77,18.738 21.086,33.348 36.954,43.828 15.875,10.489 33.894,15.735 54.062,15.735 22.344,0 43.367,-4.586 63.078,-13.75 l -21.14,-49.328 c -15.243,6.875 -28.133,10.312 -38.672,10.312 -7.106,0 -13.696,-2.75 -19.766,-8.25 -6.074,-5.5 -11.059,-13.726 -14.953,-24.672 -3.899,-10.937 -5.844,-21.679 -5.844,-32.219 0,-10.429 1.719,-18.078 5.156,-22.953 3.438,-4.867 8.879,-7.297 16.329,-7.297 8.25,0 16.254,1.317 23.984,3.954 7.739,2.632 15.687,6.242 24.687,10.828 V 15.469 C 55.484,10.426 45.645,6.586 35.5,3.953 25.364,1.321 13.52,0 0,0" /></g><g
           transform="translate(1339.8678,413.7225)"
           id="g50"><path
             id="path52"
             style="fill:#1b2f3e;fill-opacity:1;fill-rule:nonzero;stroke:none"
             d="m 0,0 c 0,11.801 3.406,20.738 10.219,26.813 6.82,6.07 16.363,9.109 28.625,9.109 10.425,0 18.472,-2.094 24.14,-6.281 C 68.66,25.461 71.5,19.477 71.5,11.688 71.5,0.227 68.176,-8.625 61.531,-14.875 54.883,-21.117 45.316,-24.234 32.828,-24.234 10.941,-24.234 0,-16.156 0,0 m 17.359,-237.981 h -66.515 l 41.078,195 h 66.859 z" /></g><g
           transform="translate(1136.3368,175.7414)"
           id="g54"><path
             id="path56"
             style="fill:#1b2f3e;fill-opacity:1;fill-rule:nonzero;stroke:none"
             d="M 0,0 -24.922,195 H 41.25 L 45.89,91.321 C 45.89,82.953 45.429,76 44.515,71 h 1.375 c 0.114,2 1.145,5.342 3.094,10.959 1.945,5.614 4.008,10.744 6.188,15.443 2.175,4.696 17.359,37.598 45.546,97.598 h 71.157 L 66.687,0 Z" /></g><g
           transform="translate(1013.0869,329.3315)"
           id="g58"><path
             id="path60"
             style="fill:#1b2f3e;fill-opacity:1;fill-rule:nonzero;stroke:none"
             d="m 0,0 c -6.993,0 -13.524,-4.272 -19.594,-12.241 -6.074,-7.961 -9.742,-16.349 -11,-27.349 h 4.984 c 12.489,0 22.285,2.662 29.391,7.412 7.101,4.758 10.656,11.179 10.656,18.972 0,3.664 -1.148,6.83 -3.437,9.353 C 8.707,-1.333 5.039,0 0,0 m -28.157,-156.59 c -24.293,0 -42.199,6.791 -55.718,20.366 -13.524,13.582 -20.282,32.464 -20.282,56.643 0,24.176 4.782,45.974 14.344,65.392 9.57,19.426 22.692,34.149 39.36,44.173 16.675,10.031 35.957,15.048 57.843,15.048 21.77,0 38.899,-4.93 51.391,-14.782 C 71.269,20.395 77.515,7.274 77.515,-9.109 77.515,-32.14 68.547,-49.811 50.609,-62.131 32.679,-74.444 6.757,-80.59 -27.157,-80.59 h -10.25 v -2.769 c 0,-16.961 9.449,-25.437 28.242,-25.437 9.051,0 18.121,1.343 26.833,4.031 8.707,2.695 18.925,6.969 29.925,12.812 v -47.093 c -13,-6.532 -24.972,-11.096 -36.086,-13.678 -11.117,-2.571 -24.113,-3.866 -38.664,-3.866 z" /></g><g
           transform="translate(757.4619,231.7414)"
           id="g62"><path
             id="path64"
             style="fill:#1b2f3e;fill-opacity:1;fill-rule:nonzero;stroke:none"
             d="m 0,0 c 12.601,0 23.859,4.077 33.765,12.101 9.914,8.019 17.625,19.479 23.125,34.315 5.5,14.844 8.25,31.79 8.25,50.814 0,14.32 -3.093,25.232 -9.281,32.619 C 49.672,137.244 41.019,141 29.906,141 H 17.703 L -11.86,0 Z m 133.031,100.684 c 0,-32.086 -5.672,-59.902 -17.016,-83.453 C 104.672,-6.312 88.195,-24.553 66.593,-37.041 45,-49.533 19.422,-56 -10.141,-56 h -80.953 l 53.109,252 h 71.5 c 31.625,0 56.114,-8.415 73.469,-24.978 17.363,-16.554 26.047,-40.088 26.047,-70.338" /></g><g
           transform="translate(437.6298,349.0115)"
           id="g66"><path
             id="path68"
             style="fill:#1b2f3e;fill-opacity:1;fill-rule:nonzero;stroke:none"
             d="m 0,0 c 0,28.242 -22.871,51.141 -51.082,51.141 -28.211,0 -51.082,-22.899 -51.082,-51.141 0,-28.242 22.871,-51.14 51.082,-51.14 C -22.871,-51.14 0,-28.242 0,0" /></g><g
           transform="translate(537.2509,374.7414)"
           id="g70"><path
             id="path72"
             style="fill:#1b2f3e;fill-opacity:1;fill-rule:nonzero;stroke:none"
             d="m 0,0 c -11.164,66 -63.024,115.008 -125.535,125.594 l -0.02,-52.19 C -90.774,64.381 -61.805,37 -52.184,0 Z" /></g><g
           transform="translate(640.2469,373.7414)"
           id="g74"><path
             id="path76"
             style="fill:#1b2f3e;fill-opacity:1;fill-rule:nonzero;stroke:none"
             d="m 0,0 c -12.363,124 -110.086,217.358 -228.547,229.171 l -0.004,-51.605 C -138.113,166.211 -63.321,95 -51.406,0 Z" /></g><g
           transform="translate(589.2778,323.3825)"
           id="g78"><path
             id="path80"
             style="fill:#1b2f3e;fill-opacity:1;fill-rule:nonzero;stroke:none"
             d="m 0,0 0.059,0.082 c -2.102,-16.664 -6.305,-33.34 -12.754,-49.679 l 33.914,-47.782 -28.949,-42.195 -56.719,14.547 0.097,0.023 c -12.339,-11.347 -26.285,-21.351 -41.726,-29.652 l -4.914,-58.406 -49.32,-13.512 -33.934,47.766 0.094,-0.047 c -16.742,-0.692 -33.844,0.683 -50.992,4.324 l -41.415,-41.43 -46.378,21.559 4.886,58.406 0.043,-0.094 c -13.234,10.293 -25.41,22.395 -36.152,36.258 l -58.348,-4.871 -21.519,46.438 41.402,41.445 -0.031,-0.098 c -3.469,16.41 -4.961,33.52 -4.227,51.055 l -47.699,33.988 13.516,49.371 58.343,4.895 -0.086,-0.059 c 7.934,14.778 17.829,28.809 29.696,41.723 l -14.512,56.785 42.16,28.969 47.715,-33.969 -0.264,0.012 c 15.586,6.156 32.416,10.476 49.416,12.672 v -77.688 c -69,-14.125 -113.529,-81.656 -99.42,-150.836 14.106,-69.179 81.64,-113.816 150.75,-99.695 51.687,10.562 89.7,51.008 99.653,99.676 z" /></g></g></g></g></svg>