<?xml version="1.0" encoding="UTF-8" standalone="no"?>
<svg
   xmlns:dc="http://purl.org/dc/elements/1.1/"
   xmlns:cc="http://creativecommons.org/ns#"
   xmlns:rdf="http://www.w3.org/1999/02/22-rdf-syntax-ns#"
   xmlns:svg="http://www.w3.org/2000/svg"
   xmlns="http://www.w3.org/2000/svg"
   xmlns:sodipodi="http://sodipodi.sourceforge.net/DTD/sodipodi-0.dtd"
   xmlns:inkscape="http://www.inkscape.org/namespaces/inkscape"
   width="140.68532mm"
   height="140.65988mm"
   viewBox="0 0 140.68532 140.65988"
   version="1.1"
   id="svg8"
   sodipodi:docname="logo-black-text.svg"
   inkscape:version="1.0.2-2 (e86c870879, 2021-01-15)">
  <defs
     id="defs2" />
  <sodipodi:namedview
     id="base"
     pagecolor="#ffffff"
     bordercolor="#666666"
     borderopacity="1.0"
     inkscape:pageopacity="0.0"
     inkscape:pageshadow="2"
     inkscape:zoom="0.98994949"
     inkscape:cx="298.64901"
     inkscape:cy="449.18547"
     inkscape:document-units="mm"
     inkscape:current-layer="layer1"
     inkscape:document-rotation="0"
     showgrid="false"
     inkscape:window-width="1920"
     inkscape:window-height="1001"
     inkscape:window-x="-9"
     inkscape:window-y="-9"
     inkscape:window-maximized="1"
     inkscape:snap-bbox="true"
     inkscape:bbox-paths="true"
     inkscape:bbox-nodes="true"
     inkscape:snap-bbox-edge-midpoints="true"
     inkscape:snap-bbox-midpoints="true"
     inkscape:snap-object-midpoints="true"
     inkscape:snap-center="true"
     inkscape:snap-midpoints="true"
     inkscape:snap-smooth-nodes="true"
     inkscape:snap-intersection-paths="true"
     inkscape:object-paths="true"
     fit-margin-top="0"
     fit-margin-left="0"
     fit-margin-right="0"
     fit-margin-bottom="0" />
  <metadata
     id="metadata5">
    <rdf:RDF>
      <cc:Work
         rdf:about="">
        <dc:format>image/svg+xml</dc:format>
        <dc:type
           rdf:resource="http://purl.org/dc/dcmitype/StillImage" />
        <dc:title></dc:title>
      </cc:Work>
    </rdf:RDF>
  </metadata>
  <g
     inkscape:label="Layer 1"
     inkscape:groupmode="layer"
     id="layer1"
     transform="translate(-45.864776,-27.160776)">
    <g
       id="g53"
       transform="translate(-3.0238093,-3.4017857)">
      <path
         style="fill:#203959;fill-opacity:1;stroke-width:0.0846667"
         d="M 117.02445,171.18996 C 102.38368,170.72246 88.550715,165.8876 76.892454,157.16313 68.1911,150.65146 61.071438,142.15708 56.195688,132.47007 52.095933,124.32478 49.79344,116.13996 48.925285,106.62557 l -0.0367,-0.40217 h 4.392261 c 2.415752,0 4.392295,0.0286 4.392321,0.0635 0,0.32979 0.394098,3.37424 0.59143,4.57206 1.328429,8.06346 4.366277,16.0363 8.696621,22.82432 l 0.409745,0.64229 5.205247,-3.93734 c 2.862876,-2.16554 5.251145,-3.9832 5.307245,-4.03925 0.07955,-0.0795 -0.0098,-0.29601 -0.405697,-0.98355 -5.742026,-9.97108 -7.822243,-21.58066 -5.914873,-33.010596 1.658443,-9.938292 6.239155,-18.919343 13.4371,-26.345089 l 1.184774,-1.222279 -3.803836,-5.063032 c -2.092105,-2.784667 -3.838583,-5.063031 -3.881061,-5.063031 -0.198323,0 -3.583736,3.308653 -5.111216,4.995333 -8.586851,9.481797 -14.085663,21.512683 -15.498386,33.909001 -0.07429,0.651933 -0.155879,1.347258 -0.181305,1.545167 l -0.04621,0.359833 h -4.378553 -4.378554 l 0.02694,-0.359833 c 0.01482,-0.197909 0.102701,-1.064684 0.195292,-1.926167 1.42875,-13.292743 6.692392,-25.935279 15.162462,-36.418109 5.038937,-6.236343 11.23591,-11.682699 18.020783,-15.83798 13.004597,-7.964447 28.213655,-11.482999 43.465705,-10.055612 15.21887,1.424281 29.42633,7.694668 40.77762,17.996989 3.26549,2.963721 6.44571,6.470658 9.11848,10.055255 8.07294,10.827051 12.8959,23.834636 13.7387,37.053457 0.049,0.76835 0.10555,1.654175 0.12569,1.9685 l 0.0366,0.5715 h -26.57879 -26.57879 l -0.0376,-0.1905 c -0.0207,-0.104775 -0.11743,-0.638615 -0.21506,-1.186307 -1.07019,-6.003874 -5.27109,-11.212348 -10.83031,-13.427939 -1.8754,-0.74742 -3.53749,-1.094909 -5.59962,-1.170703 -5.12665,-0.188417 -10.00192,1.967391 -13.43863,5.942449 -1.06849,1.235879 -1.85453,2.436283 -2.6057,3.979333 -0.96671,1.985806 -1.35234,3.271732 -1.78366,5.947834 l -0.0443,0.275167 h -4.368135 -4.36814 l 0.05941,-0.740834 c 0.07912,-0.986604 0.409643,-2.919755 0.68541,-4.008848 1.936522,-7.648016 6.971925,-13.995663 13.832965,-17.437867 3.8884,-1.950821 7.74889,-2.799098 12.19262,-2.679116 2.78892,0.0753 5.07264,0.487135 7.61641,1.3735 3.7317,1.300299 6.92227,3.312645 9.79446,6.177527 2.28485,2.279032 4.13175,4.91926 5.4201,7.748304 l 0.44342,0.973667 18.33857,0.02136 c 18.16033,0.02115 18.33858,0.01974 18.33858,-0.144475 0,-0.247015 -0.47701,-2.503915 -0.81503,-3.85622 -1.2266,-4.907187 -3.03647,-9.637884 -5.34464,-13.97 -9.68613,-18.179522 -27.6963,-30.368692 -48.027,-32.504386 -4.06031,-0.426527 -8.88245,-0.426756 -12.99633,-5.93e-4 -9.46001,0.979926 -18.898917,4.306708 -26.860775,9.467193 l -0.614104,0.398037 3.737965,4.969885 c 2.055885,2.733437 3.764407,4.999981 3.796724,5.036763 0.03231,0.03678 0.512522,-0.215071 1.067139,-0.559673 1.699565,-1.056005 2.791341,-1.659162 4.560485,-2.519463 8.145896,-3.961202 17.173226,-5.504235 26.209156,-4.479904 17.68486,2.004791 32.83483,13.767804 39.46406,30.641411 0.22716,0.57818 0.41302,1.083005 0.41302,1.121833 0,0.03882 -2.10907,0.07059 -4.68682,0.07059 h -4.68681 l -0.59817,-1.2065 c -5.73512,-11.567763 -16.57843,-19.659668 -29.06967,-21.693486 -3.45224,-0.562092 -7.48618,-0.638722 -11.0812,-0.210502 -9.8996,1.179186 -19.352798,6.510628 -25.788065,14.544019 -8.714418,10.878538 -11.231,25.450017 -6.682173,38.691067 3.448329,10.03767 10.811679,18.40609 20.244688,23.00801 4.5288,2.20939 9.05054,3.42908 14.29988,3.85724 1.5528,0.12665 5.55387,0.0506 7.06967,-0.13435 9.18724,-1.12107 17.17291,-5.03921 23.58385,-11.5713 3.01909,-3.07616 5.40683,-6.39129 7.20208,-9.99937 l 0.495,-0.99483 h 4.76296 4.76297 l -0.17424,0.4445 c -3.73294,9.52258 -10.14575,17.5154 -18.53462,23.10125 -5.94659,3.95961 -12.75723,6.55474 -19.72733,7.5169 -2.50406,0.34566 -3.27994,0.39102 -6.68867,0.39102 -4.01404,0 -5.94695,-0.17105 -9.18633,-0.81296 -9.97529,-1.97666 -18.827427,-6.92546 -25.913104,-14.48674 -0.658241,-0.70242 -1.122401,-1.13388 -1.176139,-1.09326 -0.04881,0.0369 -2.422847,1.82985 -5.275631,3.98433 l -5.186866,3.91722 0.613283,0.6897 c 1.788668,2.01153 4.555583,4.68247 6.712458,6.47961 9.35173,7.79203 20.922589,12.68608 32.935329,13.93043 4.11388,0.42614 8.93602,0.42592 12.99633,-8.5e-4 12.83208,-1.34798 24.94043,-6.73865 34.66226,-15.43173 8.5566,-7.65114 14.92242,-17.75937 18.0833,-28.71432 0.56924,-1.97285 1.44111,-5.68879 1.44111,-6.14203 0,-0.10758 -2.3525,-0.12331 -18.45345,-0.12331 h -18.45345 l -0.46536,0.9525 c -1.84336,3.77299 -4.58842,7.10951 -7.90007,9.60229 -9.45264,7.11524 -22.41008,6.88744 -31.56267,-0.55492 -3.038962,-2.47111 -5.366076,-5.3963 -7.113351,-8.94153 -1.342991,-2.72495 -2.14983,-5.28264 -2.537307,-8.04334 -0.07189,-0.51223 -0.148345,-1.03644 -0.169892,-1.16492 l -0.03918,-0.23358 4.412022,0.0219 4.412028,0.0219 0.204,1.016 c 0.55854,2.78158 1.92685,5.68608 3.72939,7.91633 0.67272,0.83234 2.26737,2.3752 3.088,2.9877 2.68247,2.00212 5.59836,3.10095 8.97913,3.38369 4.68077,0.39147 9.64761,-1.48475 13.11826,-4.95541 2.46979,-2.46978 4.30622,-5.83576 4.97611,-9.12065 0.0997,-0.48895 0.19909,-0.97472 0.22083,-1.0795 l 0.0395,-0.1905 h 26.6163 26.61631 l -0.0315,0.52917 c -0.33729,5.66815 -0.86133,9.32878 -1.98823,13.88836 -2.71721,10.99425 -7.94703,20.96072 -15.55933,29.65147 -1.1524,1.31566 -4.84572,5.00806 -6.15045,6.14893 -7.9143,6.92026 -16.602,11.74707 -26.50067,14.72352 -6.99338,2.10286 -14.95186,3.13872 -22.30967,2.90378 z"
         id="path57"
         sodipodi:nodetypes="cssscsccscsscsscssssscccscssssssscccccssssccccssssssscssssscscsssssssscssssssscsscccsssssssscssscsssscscsssscccssssssscccssscscc" />
    </g>
  </g>
</svg>
