<?xml version="1.0" encoding="UTF-8" standalone="no"?>
<svg
   xmlns:dc="http://purl.org/dc/elements/1.1/"
   xmlns:cc="http://creativecommons.org/ns#"
   xmlns:rdf="http://www.w3.org/1999/02/22-rdf-syntax-ns#"
   xmlns:svg="http://www.w3.org/2000/svg"
   xmlns="http://www.w3.org/2000/svg"
   xmlns:sodipodi="http://sodipodi.sourceforge.net/DTD/sodipodi-0.dtd"
   xmlns:inkscape="http://www.inkscape.org/namespaces/inkscape"
   width="264.99335mm"
   height="189.83545mm"
   viewBox="0 0 264.99335 189.83545"
   version="1.1"
   id="svg8"
   sodipodi:docname="logo-black-text.svg"
   inkscape:version="1.0.2-2 (e86c870879, 2021-01-15)">
  <defs
     id="defs2" />
  <sodipodi:namedview
     id="base"
     pagecolor="#ffffff"
     bordercolor="#666666"
     borderopacity="1.0"
     inkscape:pageopacity="0.0"
     inkscape:pageshadow="2"
     inkscape:zoom="0.98994949"
     inkscape:cx="536.16761"
     inkscape:cy="449.18547"
     inkscape:document-units="mm"
     inkscape:current-layer="layer1"
     inkscape:document-rotation="0"
     showgrid="false"
     inkscape:window-width="1920"
     inkscape:window-height="1001"
     inkscape:window-x="-9"
     inkscape:window-y="-9"
     inkscape:window-maximized="1"
     inkscape:snap-bbox="true"
     inkscape:bbox-paths="true"
     inkscape:bbox-nodes="true"
     inkscape:snap-bbox-edge-midpoints="true"
     inkscape:snap-bbox-midpoints="true"
     inkscape:snap-object-midpoints="true"
     inkscape:snap-center="true"
     inkscape:snap-midpoints="true"
     inkscape:snap-smooth-nodes="true"
     inkscape:snap-intersection-paths="true"
     inkscape:object-paths="true"
     fit-margin-top="0"
     fit-margin-left="0"
     fit-margin-right="0"
     fit-margin-bottom="0" />
  <metadata
     id="metadata5">
    <rdf:RDF>
      <cc:Work
         rdf:about="">
        <dc:format>image/svg+xml</dc:format>
        <dc:type
           rdf:resource="http://purl.org/dc/dcmitype/StillImage" />
        <dc:title></dc:title>
      </cc:Work>
    </rdf:RDF>
  </metadata>
  <g
     inkscape:label="Layer 1"
     inkscape:groupmode="layer"
     id="layer1"
     transform="translate(16.978687,-27.160776)">
    <g
       id="g53"
       transform="translate(-3.0238093,-3.4017857)">
      <path
         style="fill:#203959;fill-opacity:1;stroke-width:0.0846667"
         d="M 117.02445,171.18996 C 102.38368,170.72246 88.550715,165.8876 76.892454,157.16313 68.1911,150.65146 61.071438,142.15708 56.195688,132.47007 52.095933,124.32478 49.79344,116.13996 48.925285,106.62557 l -0.0367,-0.40217 h 4.392261 c 2.415752,0 4.392295,0.0286 4.392321,0.0635 0,0.32979 0.394098,3.37424 0.59143,4.57206 1.328429,8.06346 4.366277,16.0363 8.696621,22.82432 l 0.409745,0.64229 5.205247,-3.93734 c 2.862876,-2.16554 5.251145,-3.9832 5.307245,-4.03925 0.07955,-0.0795 -0.0098,-0.29601 -0.405697,-0.98355 -5.742026,-9.97108 -7.822243,-21.58066 -5.914873,-33.010596 1.658443,-9.938292 6.239155,-18.919343 13.4371,-26.345089 l 1.184774,-1.222279 -3.803836,-5.063032 c -2.092105,-2.784667 -3.838583,-5.063031 -3.881061,-5.063031 -0.198323,0 -3.583736,3.308653 -5.111216,4.995333 -8.586851,9.481797 -14.085663,21.512683 -15.498386,33.909001 -0.07429,0.651933 -0.155879,1.347258 -0.181305,1.545167 l -0.04621,0.359833 h -4.378553 -4.378554 l 0.02694,-0.359833 c 0.01482,-0.197909 0.102701,-1.064684 0.195292,-1.926167 1.42875,-13.292743 6.692392,-25.935279 15.162462,-36.418109 5.038937,-6.236343 11.23591,-11.682699 18.020783,-15.83798 13.004597,-7.964447 28.213655,-11.482999 43.465705,-10.055612 15.21887,1.424281 29.42633,7.694668 40.77762,17.996989 3.26549,2.963721 6.44571,6.470658 9.11848,10.055255 8.07294,10.827051 12.8959,23.834636 13.7387,37.053457 0.049,0.76835 0.10555,1.654175 0.12569,1.9685 l 0.0366,0.5715 h -26.57879 -26.57879 l -0.0376,-0.1905 c -0.0207,-0.104775 -0.11743,-0.638615 -0.21506,-1.186307 -1.07019,-6.003874 -5.27109,-11.212348 -10.83031,-13.427939 -1.8754,-0.74742 -3.53749,-1.094909 -5.59962,-1.170703 -5.12665,-0.188417 -10.00192,1.967391 -13.43863,5.942449 -1.06849,1.235879 -1.85453,2.436283 -2.6057,3.979333 -0.96671,1.985806 -1.35234,3.271732 -1.78366,5.947834 l -0.0443,0.275167 h -4.368135 -4.36814 l 0.05941,-0.740834 c 0.07912,-0.986604 0.409643,-2.919755 0.68541,-4.008848 1.936522,-7.648016 6.971925,-13.995663 13.832965,-17.437867 3.8884,-1.950821 7.74889,-2.799098 12.19262,-2.679116 2.78892,0.0753 5.07264,0.487135 7.61641,1.3735 3.7317,1.300299 6.92227,3.312645 9.79446,6.177527 2.28485,2.279032 4.13175,4.91926 5.4201,7.748304 l 0.44342,0.973667 18.33857,0.02136 c 18.16033,0.02115 18.33858,0.01974 18.33858,-0.144475 0,-0.247015 -0.47701,-2.503915 -0.81503,-3.85622 -1.2266,-4.907187 -3.03647,-9.637884 -5.34464,-13.97 -9.68613,-18.179522 -27.6963,-30.368692 -48.027,-32.504386 -4.06031,-0.426527 -8.88245,-0.426756 -12.99633,-5.93e-4 -9.46001,0.979926 -18.898917,4.306708 -26.860775,9.467193 l -0.614104,0.398037 3.737965,4.969885 c 2.055885,2.733437 3.764407,4.999981 3.796724,5.036763 0.03231,0.03678 0.512522,-0.215071 1.067139,-0.559673 1.699565,-1.056005 2.791341,-1.659162 4.560485,-2.519463 8.145896,-3.961202 17.173226,-5.504235 26.209156,-4.479904 17.68486,2.004791 32.83483,13.767804 39.46406,30.641411 0.22716,0.57818 0.41302,1.083005 0.41302,1.121833 0,0.03882 -2.10907,0.07059 -4.68682,0.07059 h -4.68681 l -0.59817,-1.2065 c -5.73512,-11.567763 -16.57843,-19.659668 -29.06967,-21.693486 -3.45224,-0.562092 -7.48618,-0.638722 -11.0812,-0.210502 -9.8996,1.179186 -19.352798,6.510628 -25.788065,14.544019 -8.714418,10.878538 -11.231,25.450017 -6.682173,38.691067 3.448329,10.03767 10.811679,18.40609 20.244688,23.00801 4.5288,2.20939 9.05054,3.42908 14.29988,3.85724 1.5528,0.12665 5.55387,0.0506 7.06967,-0.13435 9.18724,-1.12107 17.17291,-5.03921 23.58385,-11.5713 3.01909,-3.07616 5.40683,-6.39129 7.20208,-9.99937 l 0.495,-0.99483 h 4.76296 4.76297 l -0.17424,0.4445 c -3.73294,9.52258 -10.14575,17.5154 -18.53462,23.10125 -5.94659,3.95961 -12.75723,6.55474 -19.72733,7.5169 -2.50406,0.34566 -3.27994,0.39102 -6.68867,0.39102 -4.01404,0 -5.94695,-0.17105 -9.18633,-0.81296 -9.97529,-1.97666 -18.827427,-6.92546 -25.913104,-14.48674 -0.658241,-0.70242 -1.122401,-1.13388 -1.176139,-1.09326 -0.04881,0.0369 -2.422847,1.82985 -5.275631,3.98433 l -5.186866,3.91722 0.613283,0.6897 c 1.788668,2.01153 4.555583,4.68247 6.712458,6.47961 9.35173,7.79203 20.922589,12.68608 32.935329,13.93043 4.11388,0.42614 8.93602,0.42592 12.99633,-8.5e-4 12.83208,-1.34798 24.94043,-6.73865 34.66226,-15.43173 8.5566,-7.65114 14.92242,-17.75937 18.0833,-28.71432 0.56924,-1.97285 1.44111,-5.68879 1.44111,-6.14203 0,-0.10758 -2.3525,-0.12331 -18.45345,-0.12331 h -18.45345 l -0.46536,0.9525 c -1.84336,3.77299 -4.58842,7.10951 -7.90007,9.60229 -9.45264,7.11524 -22.41008,6.88744 -31.56267,-0.55492 -3.038962,-2.47111 -5.366076,-5.3963 -7.113351,-8.94153 -1.342991,-2.72495 -2.14983,-5.28264 -2.537307,-8.04334 -0.07189,-0.51223 -0.148345,-1.03644 -0.169892,-1.16492 l -0.03918,-0.23358 4.412022,0.0219 4.412028,0.0219 0.204,1.016 c 0.55854,2.78158 1.92685,5.68608 3.72939,7.91633 0.67272,0.83234 2.26737,2.3752 3.088,2.9877 2.68247,2.00212 5.59836,3.10095 8.97913,3.38369 4.68077,0.39147 9.64761,-1.48475 13.11826,-4.95541 2.46979,-2.46978 4.30622,-5.83576 4.97611,-9.12065 0.0997,-0.48895 0.19909,-0.97472 0.22083,-1.0795 l 0.0395,-0.1905 h 26.6163 26.61631 l -0.0315,0.52917 c -0.33729,5.66815 -0.86133,9.32878 -1.98823,13.88836 -2.71721,10.99425 -7.94703,20.96072 -15.55933,29.65147 -1.1524,1.31566 -4.84572,5.00806 -6.15045,6.14893 -7.9143,6.92026 -16.602,11.74707 -26.50067,14.72352 -6.99338,2.10286 -14.95186,3.13872 -22.30967,2.90378 z"
         id="path57"
         sodipodi:nodetypes="cssscsccscsscsscssssscccscssssssscccccssssccccssssssscssssscscsssssssscssssssscsscccsssssssscssscsssscscsssscccssssssscccssscscc" />
      <path
         style="fill:#000000;stroke-width:0.0846667"
         d="m 217.10045,220.35107 c -4.96,-0.52047 -8.46982,-4.18153 -8.97335,-9.36 -0.0462,-0.47473 -0.0826,-4.58151 -0.0838,-9.45416 l -0.002,-8.61484 h 0.97047 0.97048 l 0.028,9.2075 0.028,9.2075 0.22445,0.889 c 0.12346,0.48895 0.3041,1.09286 0.40145,1.34203 0.9872,2.52688 2.86906,4.24039 5.42057,4.93568 0.63837,0.17395 0.90126,0.19559 2.32829,0.19155 1.3825,-0.004 1.7039,-0.0306 2.286,-0.18977 2.70689,-0.74017 4.7196,-2.69504 5.57868,-5.41835 0.48117,-1.52533 0.47499,-1.38002 0.47499,-11.15923 v -9.00591 h 0.97684 0.97685 l -0.0284,9.24984 c -0.0283,9.18986 -0.0297,9.25516 -0.2157,10.07101 -0.48945,2.14646 -1.31736,3.77724 -2.61711,5.15504 -1.34911,1.43013 -3.25146,2.43911 -5.31543,2.81923 -0.8918,0.16425 -2.53008,0.22821 -3.429,0.13388 z m 23.91833,0.003 c -2.04464,-0.22203 -3.54268,-0.80739 -5.12233,-2.00156 -0.44238,-0.33443 -0.9834,-0.79232 -1.20227,-1.01752 l -0.39794,-0.40946 0.29358,-0.46406 c 0.3392,-0.53621 0.64421,-0.73968 0.91558,-0.61078 0.0987,0.0469 0.49572,0.35505 0.88235,0.68486 0.38663,0.32981 0.87514,0.71812 1.08558,0.8629 0.57886,0.39827 1.85441,0.97483 2.61412,1.18162 0.8374,0.22793 2.74176,0.31787 3.67178,0.1734 2.20601,-0.34267 3.99026,-1.57925 4.83648,-3.35194 0.97925,-2.05135 0.8659,-4.42062 -0.2765,-5.77916 -0.94327,-1.12173 -1.88637,-1.61903 -5.16501,-2.72352 -1.38151,-0.4654 -2.80815,-0.96747 -3.1703,-1.1157 -3.10227,-1.26987 -4.57145,-3.44534 -4.39687,-6.51062 0.0626,-1.09885 0.21486,-1.68815 0.6892,-2.667 1.48202,-3.05833 5.0362,-4.52336 9.22989,-3.80455 1.63908,0.28095 3.56133,1.25059 4.54728,2.29381 l 0.22929,0.2426 -0.29744,0.52779 c -0.45819,0.81304 -0.55372,0.80622 -1.77941,-0.12684 -0.68456,-0.52113 -1.68275,-1.02758 -2.57272,-1.30531 -0.56409,-0.17603 -0.80047,-0.19816 -2.11667,-0.19816 -1.70734,0 -2.15295,0.0875 -3.302,0.6486 -0.9736,0.47541 -1.87637,1.36339 -2.31023,2.2724 -0.8154,1.70837 -0.7108,3.64586 0.2665,4.93655 0.89627,1.18367 2.12262,1.85961 5.38806,2.96981 3.68552,1.25301 4.73676,1.77281 5.842,2.88865 1.26597,1.27808 1.72813,2.61588 1.62333,4.69899 -0.10963,2.1792 -0.84609,3.91493 -2.26172,5.33058 -1.15931,1.15933 -2.70278,1.95625 -4.34272,2.24224 -0.93589,0.1632 -2.53788,0.22509 -3.40089,0.13138 z m -79.12099,-0.0877 c -4.46117,-0.42177 -8.082,-2.85611 -10.01804,-6.73525 -1.48087,-2.96717 -1.93039,-6.93725 -1.19839,-10.58422 0.53959,-2.68839 1.73042,-4.95914 3.5478,-6.76518 1.03545,-1.029 1.8622,-1.6206 3.13896,-2.24615 1.8879,-0.92498 3.56698,-1.28702 5.969,-1.28702 1.82396,0 2.95927,0.16632 4.43504,0.64975 4.33889,1.42132 7.4064,5.12986 8.27293,10.00174 0.22353,1.25673 0.30957,3.83326 0.17059,5.10837 -0.60477,5.54854 -3.66687,9.63724 -8.40488,11.22268 -1.65117,0.55251 -4.05585,0.81087 -5.91301,0.63528 z m 3.18416,-1.6965 c 4.18422,-0.58197 7.16027,-3.0977 8.50195,-7.18691 0.79487,-2.42258 0.95257,-5.57996 0.41247,-8.25812 -0.72042,-3.57234 -2.67485,-6.29891 -5.53692,-7.72436 -1.46282,-0.72857 -2.72762,-1.0289 -4.61433,-1.09571 -2.18466,-0.0774 -3.77276,0.21319 -5.39689,0.98737 -3.42408,1.63218 -5.48351,4.75543 -6.02863,9.14281 -0.12861,1.03504 -0.10956,3.22451 0.0378,4.34887 0.70488,5.37716 3.99243,8.98425 8.89001,9.75413 0.85475,0.13435 2.87392,0.15162 3.7345,0.0319 z M 11.360455,206.21474 v -13.88533 h 8.763 8.763 v 2.032 2.032 h -6.180667 -6.180666 v 3.89466 3.89467 h 4.868333 4.868333 v 1.94733 1.94734 h -4.868333 -4.868333 v 3.97933 3.97933 h 6.180666 6.180667 v 2.032 2.032 h -8.763 -8.763 z m 22.267333,0.0423 v -13.843 h 2.539416 2.539407 l 0.02176,5.7785 0.02175,5.7785 0.942162,-0.0151 c 1.09629,-0.0176 1.489905,-0.10557 1.915533,-0.42812 0.169884,-0.12876 2.136995,-2.52751 4.371365,-5.33058 2.451896,-3.07596 4.201507,-5.19719 4.41314,-5.3505 0.548996,-0.39768 0.966606,-0.44538 3.646924,-0.41645 l 2.41979,0.0261 -4.816145,5.88433 c -2.648873,3.23638 -4.937929,6.01106 -5.08679,6.16596 -0.148853,0.15489 -0.451621,0.39943 -0.672812,0.54342 -0.221192,0.144 -0.400609,0.28396 -0.398696,0.31104 0.0019,0.0271 0.190416,0.13689 0.418906,0.244 0.22849,0.10711 0.606831,0.36683 0.840765,0.57716 0.235949,0.21213 1.791496,2.21768 3.493601,4.50424 1.68755,2.26702 3.957176,5.31532 5.043618,6.774 l 1.975358,2.65217 -2.691688,-0.0275 c -3.072215,-0.0314 -3.181113,-0.0532 -3.780088,-0.75633 -0.174193,-0.20451 -2.107201,-2.71498 -4.295571,-5.57883 -2.188363,-2.86385 -4.101067,-5.31151 -4.250445,-5.43925 -0.442679,-0.37856 -0.960594,-0.48741 -2.31896,-0.48741 h -1.2123 v 6.13833 6.13833 h -2.54 -2.54 z m 26.839333,0 v -13.843 h 1.653718 c 1.858661,0 2.011273,0.0342 2.505142,0.56165 0.16858,0.18004 3.571079,4.47073 7.561089,9.53485 3.99001,5.06413 7.262029,9.20751 7.271139,9.20752 0.0091,1e-5 0.0057,-4.34339 -0.0076,-9.652 l -0.02426,-9.65202 h 2.246731 2.246732 v 13.85079 13.85079 l -1.632373,-0.0289 c -1.556233,-0.0276 -1.652008,-0.0391 -2.053167,-0.24561 -0.384514,-0.19798 -1.050993,-1.01562 -7.729508,-9.48267 -4.019795,-5.09631 -7.372595,-9.3524 -7.450666,-9.45799 -0.133062,-0.17996 -0.140361,0.41512 -0.116493,9.50384 l 0.02546,9.6958 H 62.71508 60.467121 Z m 29.802666,0 v -13.843 h 2.582333 2.582333 v 13.843 13.843 H 92.85212 90.269787 Z m 11.684003,0 v -13.843 h 2.53941 2.53941 l 0.0218,5.7785 0.0217,5.7785 0.94216,-0.0151 c 1.09629,-0.0176 1.48991,-0.10557 1.91553,-0.42812 0.16989,-0.12876 2.137,-2.52751 4.37137,-5.33058 2.4519,-3.07596 4.20151,-5.19719 4.41314,-5.3505 0.549,-0.39768 0.96661,-0.44538 3.64692,-0.41645 l 2.41979,0.0261 -4.81614,5.88433 c -2.64887,3.23638 -4.93793,6.01106 -5.08679,6.16596 -0.14885,0.15489 -0.45162,0.39943 -0.67281,0.54342 -0.2212,0.144 -0.40061,0.28396 -0.3987,0.31104 0.002,0.0271 0.19042,0.13689 0.41891,0.244 0.22849,0.10711 0.60683,0.36683 0.84076,0.57716 0.23595,0.21213 1.7915,2.21768 3.4936,4.50424 1.68755,2.26702 3.95718,5.31532 5.04362,6.774 l 1.97536,2.65217 -2.69169,-0.0275 c -3.07221,-0.0314 -3.18111,-0.0532 -3.78009,-0.75633 -0.17419,-0.20451 -2.1072,-2.71498 -4.29557,-5.57883 -2.18836,-2.86385 -4.10107,-5.31151 -4.25044,-5.43925 -0.44268,-0.37856 -0.9606,-0.48741 -2.31896,-0.48741 h -1.2123 v 6.13833 6.13833 h -2.54 -2.54 z m 27.94,0.254 v -13.589 h 8.17033 8.17033 v 0.80434 0.80433 h -7.19666 -7.19667 v 5.715 5.715 h 6.223 6.223 v 0.80433 0.80434 h -6.223 -6.223 v 6.26533 6.26533 h -0.97367 -0.97366 z m 53.50933,-0.0423 v -13.63133 h 0.97367 0.97366 v 6.30766 6.30767 l 1.24884,-0.002 c 1.58559,-0.002 1.73102,-0.0615 2.76724,-1.12487 6.3439,-6.51024 10.89342,-11.10981 11.09692,-11.21901 0.18089,-0.0971 0.54643,-0.1452 1.27,-0.16727 l 1.016,-0.031 -1.48851,1.50949 c -0.81869,0.83022 -3.27099,3.33829 -5.44957,5.57349 -5.03904,5.17003 -5.61713,5.74199 -5.95242,5.88938 -0.15134,0.0665 -0.27418,0.14023 -0.27298,0.16379 0.001,0.0236 0.15548,0.11354 0.34285,0.19996 0.24615,0.11355 1.89344,1.76952 5.93773,5.969 3.0784,3.19653 6.05783,6.28158 6.62099,6.85566 l 1.02391,1.04379 -1.05833,-0.0292 c -0.81858,-0.0226 -1.10628,-0.0617 -1.27,-0.17247 -0.11642,-0.0788 -1.82755,-1.79265 -3.80252,-3.80858 -5.84981,-5.97114 -8.66976,-8.79173 -8.93982,-8.94184 -0.20176,-0.11215 -0.54564,-0.14711 -1.67216,-0.16997 l -1.41817,-0.0288 v 6.5688 6.5688 h -0.97366 -0.97367 z m -188.9759979,1.73567 v -11.72634 h -4.1909999 -4.1910002 v -2.07433 -2.07433 H -2.9905446 7.9737885 v 2.07433 2.07433 H 3.7827886 -0.4082113 v 11.72634 11.72633 h -2.5823333 -2.5823333 z"
         id="path55" />
    </g>
  </g>
</svg>
