<?xml version="1.0" encoding="UTF-8" standalone="no"?>
<svg
   xmlns:dc="http://purl.org/dc/elements/1.1/"
   xmlns:cc="http://creativecommons.org/ns#"
   xmlns:rdf="http://www.w3.org/1999/02/22-rdf-syntax-ns#"
   xmlns:svg="http://www.w3.org/2000/svg"
   xmlns="http://www.w3.org/2000/svg"
   viewBox="0 0 867.78668 189.01334"
   height="189.01334"
   width="867.78668"
   xml:space="preserve"
   id="svg2"
   version="1.1"><metadata
     id="metadata8"><rdf:RDF><cc:Work
         rdf:about=""><dc:format>image/svg+xml</dc:format><dc:type
           rdf:resource="http://purl.org/dc/dcmitype/StillImage" /></cc:Work></rdf:RDF></metadata><defs
     id="defs6" /><g
     transform="matrix(1.3333333,0,0,-1.3333333,0,189.01333)"
     id="g10"><g
       transform="scale(0.1)"
       id="g12"><path
         id="path14"
         style="fill:#231f20;fill-opacity:1;fill-rule:nonzero;stroke:none"
         d="m 5497.93,74.1484 c 0,26.9806 22.49,49.4606 49.48,49.4606 26.98,0 49.46,-22.48 49.46,-49.4606 0,-26.9882 -22.48,-49.4765 -49.46,-49.4765 -26.99,0 -49.48,22.4883 -49.48,49.4765" /><path
         id="path16"
         style="fill:#231f20;fill-opacity:1;fill-rule:nonzero;stroke:none"
         d="m 5660.18,131.48 c 0,76.981 56.7,129.551 128.8,129.551 44.32,0 75.11,-21.41 95.01,-49.57 L 5857.7,196.82 c -14.27,21.032 -40.18,36.43 -68.72,36.43 -54.82,0 -96.51,-42.059 -96.51,-101.77 0,-59.3394 41.69,-101.7691 96.51,-101.7691 28.54,0 54.45,15.0196 68.72,36.4297 l 26.66,-14.6523 C 5863.33,22.9492 5833.3,1.92188 5788.98,1.92188 c -72.1,0 -128.8,52.57812 -128.8,129.55812" /><path
         id="path18"
         style="fill:#231f20;fill-opacity:1;fill-rule:nonzero;stroke:none"
         d="m 6158.11,131.48 c 0,58.579 -36.05,101.77 -92.01,101.77 -56.33,0 -92,-43.191 -92,-101.77 0,-58.2105 35.67,-101.7691 92,-101.7691 55.96,0 92.01,43.5586 92.01,101.7691 z m -216.31,0 c 0,73.969 49.95,129.551 124.3,129.551 73.98,0 124.3,-55.582 124.3,-129.551 0,-73.98 -50.32,-129.55812 -124.3,-129.55812 -74.35,0 -124.3,55.57812 -124.3,129.55812" /><path
         id="path20"
         style="fill:#231f20;fill-opacity:1;fill-rule:nonzero;stroke:none"
         d="M 6477.19,9.16016 V 215.332 L 6391.95,9.16016 h -12.77 L 6294.31,215.332 V 9.16016 h -31.16 V 259.629 h 44.69 l 77.73,-188.5001 78.11,188.5001 h 44.68 V 9.16016 h -31.17" /><path
         id="path22"
         style="fill:#231f20;fill-opacity:1;fill-rule:nonzero;stroke:none"
         d="M 911.723,122.352 C 872.309,63.9688 809.727,34.7891 723.922,34.7891 c -28.184,0 -51.02,2.8125 -68.594,8.4414 -17.609,5.6015 -31.328,16.5078 -41.144,32.6992 -9.871,16.1406 -16.196,38.6793 -18.993,67.5193 -2.843,28.821 -4.23,67.192 -4.23,115 V 1391.63 h 50.644 c 67.536,0 118.891,-7.75 154.055,-23.22 35.153,-15.48 62.574,-41.51 82.293,-78.06 14.031,-25.33 23.918,-53.49 29.543,-84.42 5.606,-30.95 8.438,-68.25 8.438,-111.83 0,-63.3 -8.118,-117.846 -24.258,-163.537 -12.168,-34.336 -27.676,-61.321 -46.547,-80.969 -3.559,-4.246 -8.844,-9.043 -16.34,-14.461 -0.367,-0.266 -0.742,-0.508 -1.109,-0.774 -0.832,-0.613 -1.629,-1.328 -2.481,-1.921 -5.086,-3.528 -10.672,-6.661 -16.484,-9.641 -2.738,-1.434 -5.496,-2.82 -8.281,-4.102 -43.914,-20.3 -91.661,-22.265 -108.504,-22.254 v -25.214 c 0,0 90.492,4.324 157.664,-35.704 4.258,-2.539 7.984,-4.914 11.242,-7.14 0.769,-0.508 1.586,-0.926 2.344,-1.453 30.918,-22.532 54.148,-51.387 69.64,-86.524 25.317,-61.933 37.977,-141.379 37.977,-238.445 0,-128.039 -19.719,-221.231 -59.074,-279.609 z m 142.797,628.062 c -54.665,15.645 -84.118,18.703 -101.008,22.227 -16.875,3.496 -9.137,1.113 -28.125,4.629 -18.989,3.515 -63.61,8.73 -100.188,12.96 95.66,4.219 135.457,13.36 194.531,27.43 59.08,14.035 110.42,35.871 154.06,65.41 33.74,22.481 60.46,52.024 80.18,88.633 19.67,36.557 29.52,75.247 29.52,116.057 0,0.33 -0.04,0.64 -0.05,0.97 -0.15,67.27 -27.94,127.24 -83.3,179.84 -55.6,52.73 -130.5,89.66 -224.714,110.75 -29.551,7.02 -60.504,13 -92.832,17.94 -32.367,4.91 -67.504,8.78 -105.481,11.61 -37.988,2.81 -79.867,4.9 -125.554,6.32 -21.047,0.63 -43.672,1.12 -67.598,1.47 -6.438,0.15 -12.992,0.26 -19.777,0.29 -8.907,0.03 -23.067,0 -32.297,0 H 0 v -21.09 c 47.8125,-4.23 82.6289,-10.24 104.445,-17.95 21.789,-7.75 39.739,-21.46 53.817,-41.16 12.66,-18.28 22.152,-39.39 28.484,-63.3 6.328,-23.92 9.492,-56.97 9.492,-99.17 0,0 0,-868.018 0,-890.499 0,-22.519 -0.711,-41.5 -2.113,-56.961 -1.41,-15.519 -2.824,-28.859 -4.207,-40.109 -1.426,-11.27 -2.828,-22.52 -4.23,-33.75 C 181.469,130.441 172.309,109.32 158.262,89.6484 142.77,69.9414 124.133,55.8906 102.328,47.4609 80.5313,39 46.4297,33.3711 0,30.5586 V 9.46094 h 768.219 c 99.867,0 152.324,9.12886 232.521,27.41796 80.19,18.2813 148.04,44.6524 203.63,79.1411 55.55,34.468 98.11,76.32 127.68,125.562 29.52,49.219 44.3,104.777 44.3,166.707 0,80.184 -28.18,150.152 -84.41,209.957 -56.28,59.785 -136.14,108.254 -237.42,132.168" /><path
         id="path24"
         style="fill:#231f20;fill-opacity:1;fill-rule:nonzero;stroke:none"
         d="m 2169.17,427.504 c 0,-63.504 -1.57,-119.242 -4.64,-167.223 -3.13,-48.019 -10.1,-88.25 -20.91,-120.781 -10.85,-32.52 -27.11,-56.918 -48.79,-73.1602 -21.69,-16.2695 -51.08,-24.3906 -88.25,-24.3906 -37.18,0 -66.61,8.1211 -88.26,24.3906 -21.72,16.2422 -37.96,40.6402 -48.79,73.1602 -10.85,32.531 -17.82,72.762 -20.9,120.781 -3.13,47.981 -4.65,103.719 -4.65,167.223 v 181.184 c 0,61.914 1.52,117.664 4.65,167.234 3.08,49.543 10.05,90.949 20.9,124.269 10.83,33.282 27.07,58.829 48.79,76.649 21.65,17.785 51.08,26.71 88.26,26.71 37.17,0 66.56,-8.925 88.25,-26.71 21.68,-17.82 37.94,-43.367 48.79,-76.649 10.81,-33.32 17.78,-74.726 20.91,-124.269 3.07,-49.57 4.64,-105.32 4.64,-167.234 z m 231.1,454.101 c -42.6,48.77 -96.78,88.262 -162.58,118.455 -65.84,30.21 -142.86,45.3 -231.11,45.3 -88.26,0 -165.32,-15.09 -231.12,-45.3 -65.83,-30.193 -120.02,-69.685 -162.59,-118.455 -42.61,-48.777 -74.73,-104.519 -96.39,-167.234 -21.7,-62.707 -32.52,-126.582 -32.52,-191.633 0,-65.027 10.82,-128.898 32.52,-191.617 21.66,-62.711 53.78,-118.461 96.39,-167.23 42.57,-48.789 96.76,-88.2621 162.59,-118.4613 65.8,-30.1992 142.86,-45.300794 231.12,-45.300794 88.25,0 165.27,15.101594 231.11,45.300794 65.8,30.1992 119.98,69.6723 162.58,118.4613 42.58,48.769 74.7,104.519 96.4,167.23 21.67,62.719 32.51,126.59 32.51,191.617 0,65.051 -10.84,128.926 -32.51,191.633 -21.7,62.715 -53.82,118.457 -96.4,167.234" /><path
         id="path26"
         style="fill:#231f20;fill-opacity:1;fill-rule:nonzero;stroke:none"
         d="m 3307.73,427.504 c 0,-63.504 -1.57,-119.242 -4.64,-167.223 -3.13,-48.019 -10.1,-88.25 -20.91,-120.781 -10.85,-32.52 -27.11,-56.918 -48.79,-73.1602 -21.69,-16.2695 -51.09,-24.3906 -88.25,-24.3906 -37.18,0 -66.6,8.1211 -88.26,24.3906 -21.72,16.2422 -37.96,40.6402 -48.79,73.1602 -10.85,32.531 -17.82,72.762 -20.89,120.781 -3.13,47.981 -4.65,103.719 -4.65,167.223 v 181.184 c 0,61.914 1.52,117.664 4.65,167.234 3.07,49.543 10.04,90.949 20.89,124.269 10.83,33.282 27.07,58.829 48.79,76.649 21.66,17.785 51.08,26.71 88.26,26.71 37.16,0 66.56,-8.925 88.25,-26.71 21.68,-17.82 37.94,-43.367 48.79,-76.649 10.81,-33.32 17.78,-74.726 20.91,-124.269 3.07,-49.57 4.64,-105.32 4.64,-167.234 z m 231.1,454.101 c -42.6,48.77 -96.78,88.262 -162.58,118.455 -65.83,30.21 -142.86,45.3 -231.11,45.3 -88.26,0 -165.32,-15.09 -231.12,-45.3 -65.83,-30.193 -120.02,-69.685 -162.58,-118.455 -42.62,-48.777 -74.73,-104.519 -96.39,-167.234 -21.71,-62.707 -32.53,-126.582 -32.53,-191.633 0,-65.027 10.82,-128.898 32.53,-191.617 21.66,-62.711 53.77,-118.461 96.39,-167.23 42.56,-48.789 96.75,-88.2621 162.58,-118.4613 65.8,-30.1992 142.86,-45.300794 231.12,-45.300794 88.25,0 165.28,15.101594 231.11,45.300794 65.8,30.1992 119.98,69.6723 162.58,118.4613 42.58,48.769 74.7,104.519 96.39,167.23 21.67,62.719 32.52,126.59 32.52,191.617 0,65.051 -10.85,128.926 -32.52,191.633 -21.69,62.715 -53.81,118.457 -96.39,167.234" /><path
         id="path28"
         style="fill:#231f20;fill-opacity:1;fill-rule:nonzero;stroke:none"
         d="M 4521.36,119.75 C 4475.68,70.9609 4407.92,46.5898 4318.12,46.5898 h -220.65 l 511,903.5312 V 1008.2 H 3781.58 V 729.469 h 23.23 c 7.73,80.496 37.17,140.886 88.26,181.16 51.11,40.254 108.38,60.391 171.89,60.391 h 199.75 L 3739.78,60.5313 V 9.42188 h 891.9 V 313.699 h -23.21 c -12.42,-80.527 -41.45,-145.16 -87.11,-193.949" /><path
         id="path30"
         style="fill:#231f20;fill-opacity:1;fill-rule:nonzero;stroke:none"
         d="m 5398.93,52.9297 c 0,0 -27.5,-11.1289 -51.93,-11.1289 -58.89,0 -98.75,25.5508 -119.67,76.6682 -20.91,51.113 -31.37,134.781 -31.37,250.961 v 601.425 h 174.28 v 37.375 h -174.93 v 78.88 330.46 c 0,0 -17.14,0 -20.58,0 0,-33.35 -125.22,-407.68 -346.62,-409.21 h -106.14 l 0.09,-37.348 h 125.37 v -534.18 c 0,-85.203 10.45,-155.672 31.36,-211.441 20.92,-55.762 49.56,-100.309 85.97,-133.6215 36.38,-33.3203 79.01,-56.9101 127.8,-70.8593 48.8,-13.94145 100.29,-20.9219188 154.52,-20.9219188 66.68,0 120.6,9.7109388 161.83,29.0234188 -9.98,23.918 -9.98,23.918 -9.98,23.918" /></g></g></svg>