<?xml version="1.0" encoding="UTF-8" standalone="no"?>
<svg
   xmlns:dc="http://purl.org/dc/elements/1.1/"
   xmlns:cc="http://creativecommons.org/ns#"
   xmlns:rdf="http://www.w3.org/1999/02/22-rdf-syntax-ns#"
   xmlns:svg="http://www.w3.org/2000/svg"
   xmlns="http://www.w3.org/2000/svg"
   xmlns:xlink="http://www.w3.org/1999/xlink"
   xmlns:sodipodi="http://sodipodi.sourceforge.net/DTD/sodipodi-0.dtd"
   xmlns:inkscape="http://www.inkscape.org/namespaces/inkscape"
   version="1.1"
   id="Layer_1"
   x="0px"
   y="0px"
   width="488"
   height="428"
   viewBox="0 0 488 428"
   enable-background="new 0 0 1269.12 807.875"
   xml:space="preserve">
<path
   style="fill:#23315a;fill-opacity:1"
   id="path405-0"
   d="m 949.195,739.332 c -1.74,0.637 -3.667,-0.256 -4.305,-1.995 -0.638,-1.74 0.256,-3.666 1.994,-4.304 l 18.548,-6.801 c 1.739,-0.638 3.666,0.256 4.305,1.995 0.638,1.739 -0.255,3.666 -1.995,4.305 l -18.547,6.8 z"
   clip-path="url(#SVGID_14_-1)"
   transform="matrix(8.5486555,0,0,8.5486555,-7939.7433,-6206.5432)" /><path
   style="fill:#23315a;fill-opacity:1"
   id="path407-9"
   d="m 949.195,749.371 c -1.74,0.638 -3.667,-0.256 -4.305,-1.996 -0.638,-1.738 0.256,-3.666 1.994,-4.303 l 18.548,-6.801 c 1.739,-0.637 3.666,0.256 4.305,1.995 0.638,1.738 -0.255,3.667 -1.995,4.304 l -18.547,6.801 z"
   clip-path="url(#SVGID_14_-1)"
   transform="matrix(8.5486555,0,0,8.5486555,-7939.7433,-6206.5432)" /><path
   style="fill:#23315a;fill-opacity:1"
   id="path409-4"
   d="m 949.195,759.411 c -1.74,0.637 -3.667,-0.257 -4.305,-1.995 -0.638,-1.74 0.256,-3.667 1.994,-4.305 l 18.548,-6.801 c 1.739,-0.637 3.666,0.256 4.305,1.995 0.638,1.739 -0.255,3.666 -1.995,4.304 l -18.547,6.802 z"
   clip-path="url(#SVGID_14_-1)"
   transform="matrix(8.5486555,0,0,8.5486555,-7939.7433,-6206.5432)" /><polygon
   style="fill:#23315a;fill-opacity:1"
   id="polygon411-8"
   points="928.771,767.751 934.994,767.751 934.994,769.443 930.968,769.443 930.968,770.913 934.829,770.913 934.829,772.667 930.968,772.667 930.968,774.185 935.058,774.185 935.058,775.888 928.771,775.888 "
   clip-path="url(#SVGID_14_-1)"
   transform="matrix(8.5486555,0,0,8.5486555,-7939.7433,-6206.5432)" /><rect
   style="fill:#23315a;fill-opacity:1"
   id="rect413-8"
   height="8.1409998"
   width="2.214"
   clip-path="url(#SVGID_14_-1)"
   y="767.75098"
   x="944.66101"
   transform="matrix(8.5486555,0,0,8.5486555,-7939.7433,-6206.5432)" /><path
   style="fill:#23315a;fill-opacity:1"
   id="path415-2"
   d="m 954.951,768.013 -0.149,1.742 c -1.788,-1.034 -4.528,-0.705 -4.576,2.01 -0.052,2.711 2.821,3.107 4.644,2.186 l 0.114,1.779 c -3.216,1.001 -7.059,-0.018 -7.041,-3.965 0.015,-3.867 3.889,-4.937 7.008,-3.752"
   clip-path="url(#SVGID_14_-1)"
   transform="matrix(8.5486555,0,0,8.5486555,-7939.7433,-6206.5432)" /><path
   style="fill:#23315a;fill-opacity:1"
   id="path417-4"
   d="m 961.467,767.887 -0.149,1.696 c -1.115,-0.615 -3.233,-0.632 -3.233,0.333 0,1.429 3.775,0.397 3.775,3.457 0,3.009 -3.594,3.043 -5.925,2.345 l 0.165,-1.795 c 1.46,0.681 3.529,0.83 3.529,-0.351 0,-1.297 -3.792,-0.565 -3.792,-3.475 0,-2.385 2.955,-3.024 5.63,-2.21"
   clip-path="url(#SVGID_14_-1)"
   transform="matrix(8.5486555,0,0,8.5486555,-7939.7433,-6206.5432)" /><path
   style="fill:#23315a;fill-opacity:1"
   id="path419-5"
   d="m 968.146,767.887 -0.147,1.696 c -1.115,-0.615 -3.232,-0.632 -3.232,0.333 0,1.429 3.774,0.397 3.774,3.457 0,3.009 -3.595,3.043 -5.927,2.345 l 0.166,-1.795 c 1.46,0.681 3.528,0.83 3.528,-0.351 0,-1.297 -3.791,-0.565 -3.791,-3.475 0,-2.385 2.954,-3.024 5.629,-2.21"
   clip-path="url(#SVGID_14_-1)"
   transform="matrix(8.5486555,0,0,8.5486555,-7939.7433,-6206.5432)" /><polygon
   style="fill:#23315a;fill-opacity:1"
   id="polygon421-5"
   points="985.856,767.751 985.856,775.893 983.214,775.893 980.391,770.542 980.391,775.893 978.339,775.893 978.339,767.751 981.144,767.751 983.82,773.002 983.82,767.751 "
   clip-path="url(#SVGID_14_-1)"
   transform="matrix(8.5486555,0,0,8.5486555,-7939.7433,-6206.5432)" /><path
   style="fill:#23315a;fill-opacity:1"
   id="path423-1"
   d="m 973.235,767.556 c 2.3,10e-4 4.054,1.347 4.054,4.283 0,2.808 -1.763,4.253 -4.054,4.253 -2.287,0 -4.039,-1.411 -4.039,-4.253 0,-2.936 1.743,-4.283 4.039,-4.283 m -1.773,4.283 c 0,1.241 0.531,2.646 1.772,2.644 1.241,-10e-4 1.763,-1.402 1.772,-2.644 0.009,-1.121 -0.531,-2.64 -1.772,-2.642 -1.24,0 -1.772,1.403 -1.772,2.642"
   clip-path="url(#SVGID_14_-1)"
   transform="matrix(8.5486555,0,0,8.5486555,-7939.7433,-6206.5432)" /><path
   style="fill:#23315a;fill-opacity:1"
   id="path425-7"
   d="m 938.718,771.182 h 1.215 c 0.547,0.01 1.039,-0.319 1.033,-0.92 -0.003,-0.531 -0.438,-0.909 -1.002,-0.901 h -1.246 v 1.821 z m -2.117,-3.431 h 3.988 c 1.084,0 2.593,0.477 2.593,2.167 0,1.082 -0.49,1.689 -1.424,1.97 0.043,-0.003 0.532,0.21 0.734,0.821 0.008,0.021 1.141,3.177 1.155,3.184 h -2.354 l -0.837,-2.446 c -0.128,-0.376 -0.408,-0.624 -0.804,-0.624 -0.345,0 -0.887,-0.022 -0.887,0 v 3.07 h -2.166 v -8.142 z"
   clip-path="url(#SVGID_14_-1)"
   transform="matrix(8.5486555,0,0,8.5486555,-7939.7433,-6206.5432)" /></svg>