<?xml version="1.0" encoding="UTF-8" standalone="no"?>
<svg
   xmlns:dc="http://purl.org/dc/elements/1.1/"
   xmlns:cc="http://creativecommons.org/ns#"
   xmlns:rdf="http://www.w3.org/1999/02/22-rdf-syntax-ns#"
   xmlns:svg="http://www.w3.org/2000/svg"
   xmlns="http://www.w3.org/2000/svg"
   viewBox="0 0 98.400002 37.866669"
   height="37.866669"
   width="98.400002"
   xml:space="preserve"
   id="svg2"
   version="1.1"><metadata
     id="metadata8"><rdf:RDF><cc:Work
         rdf:about=""><dc:format>image/svg+xml</dc:format><dc:type
           rdf:resource="http://purl.org/dc/dcmitype/StillImage" /></cc:Work></rdf:RDF></metadata><defs
     id="defs6" /><g
     transform="matrix(1.3333333,0,0,-1.3333333,0,37.866667)"
     id="g10"><g
       transform="scale(0.1)"
       id="g12"><path
         id="path14"
         style="fill:#5a5758;fill-opacity:1;fill-rule:evenodd;stroke:none"
         d="m 374.219,106.563 c 0,24.121 -7.207,36.179 -21.426,36.179 -7.91,0 -14.758,-3.422 -20.156,-10.262 V 85.5078 c 5.215,-7.0312 12.597,-10.625 22.136,-10.625 12.961,0 19.446,10.625 19.446,31.6802 z m 33.109,0.722 c 0,-18.9061 -4.316,-34.0233 -12.598,-45.3709 -8.632,-11.875 -20.511,-17.8125 -35.812,-17.8125 -10.266,0 -19.074,3.2422 -26.281,9.7265 V 46.7969 H 300.059 V 202.863 l 32.578,16.379 v -55.98 c 7.922,6.84 16.738,10.258 26.281,10.258 14.219,0 25.559,-5.215 34.191,-15.477 9.356,-11.699 14.219,-28.629 14.219,-50.758 v 0" /><path
         id="path16"
         style="fill:#5a5758;fill-opacity:1;fill-rule:evenodd;stroke:none"
         d="M 466.918,46.7969 H 434.32 V 202.863 l 32.598,16.379 v -172.4451 0" /><path
         id="path18"
         style="fill:#5a5758;fill-opacity:1;fill-rule:evenodd;stroke:none"
         d="m 572.563,108.73 c 0,10.079 -1.973,17.989 -5.938,24.297 -3.945,6.118 -9.707,9.176 -17.266,9.176 -7.578,0 -13.32,-3.058 -17.109,-9.176 -3.965,-6.132 -5.937,-14.218 -5.937,-24.297 0,-9.9019 1.972,-17.8316 5.761,-23.5933 3.965,-6.289 9.707,-9.5312 17.285,-9.5312 7.364,0 13.321,3.4179 17.442,10.2539 3.789,5.9375 5.762,13.6914 5.762,22.8706 z m 33.125,0 c 0,-18.9058 -5.391,-34.3941 -16.016,-46.4448 -10.625,-12.0704 -24.121,-18.1836 -40.313,-18.1836 -16.211,0 -29.707,6.1132 -40.332,18.1836 -10.429,12.0507 -15.839,27.539 -15.839,46.4448 0,19.063 5.41,34.551 15.839,46.614 10.625,12.238 24.121,18.355 40.332,18.355 16.192,0 29.688,-6.117 40.313,-18.355 10.625,-12.063 16.016,-27.551 16.016,-46.614 v 0" /><path
         id="path20"
         style="fill:#5a5758;fill-opacity:1;fill-rule:evenodd;stroke:none"
         d="M 737.992,46.7969 H 699.105 L 686.508,67.5 C 681.645,75.4297 677.875,82.0898 675.16,87.6563 673.559,83.8867 669.77,77.0508 663.832,67.5 L 651.234,46.7969 h -38.711 l 43.926,67.3241 -37.265,57.063 h 38.711 l 5.937,-10.262 c 3.066,-5.039 6.836,-11.699 11.328,-19.981 1.445,2.52 5.235,9.364 11.348,19.981 l 5.937,10.262 h 38.887 l -37.441,-57.063 44.101,-67.3241 v 0" /><path
         id="path22"
         style="fill:#ed1c24;fill-opacity:1;fill-rule:evenodd;stroke:none"
         d="m 284.043,142.023 c 0,-23.546 -5.723,-45.7339 -15.84,-65.2652 v 94.4262 h -32.59 v -68.039 c 0,-18.7309 -7.195,-28.0864 -21.414,-28.0864 -7.031,0 -12.246,2.168 -15.84,6.3086 -3.418,4.3164 -5.222,11.875 -5.222,22.4998 v 67.317 h -32.578 v -70.032 c 0,-37.9684 15.3,-56.8747 45.894,-56.8747 12.426,0 22.141,3.6133 29.16,10.8008 V 46.7969 H 247.41 C 221.426,18.0664 183.848,0 142.012,0 63.5352,0 0,63.5352 0,142.023 c 0,78.301 63.5352,142.02 142.012,142.02 78.476,0 142.031,-63.719 142.031,-142.02 v 0 z m -144.551,57.602 c 0,-13.32 -10.613,-23.941 -23.933,-23.941 -13.137,0 -23.9379,10.621 -23.9379,23.941 0,13.141 10.8009,23.934 23.9379,23.934 13.32,0 23.933,-10.793 23.933,-23.934 v 0 0" /></g></g></svg>