<svg xmlns="http://www.w3.org/2000/svg" xmlns:xlink="http://www.w3.org/1999/xlink" preserveAspectRatio="xMidYMid" width="230" height="90" viewBox="0 0 230 90">
  <defs>
    <style>
      .cls-1 {
        fill: #00aa3c;
      }

      .cls-1, .cls-2 {
        fill-rule: evenodd;
      }

      .cls-2 {
        fill: #3c3c3c;
      }
    </style>
  </defs>
  <path d="M226.173,9.238 L225.627,8.699 C223.088,6.233 220.477,4.565 216.321,4.545 C209.797,4.558 204.878,9.883 204.844,16.979 L204.844,17.063 C204.871,24.193 209.889,29.575 216.360,29.580 C220.379,29.555 222.897,28.116 225.873,25.180 L226.408,24.643 L226.728,24.323 L230.004,27.545 L229.666,27.884 L229.108,28.437 C225.846,31.739 222.004,34.135 216.371,34.132 L216.335,34.132 L216.277,34.132 C206.971,34.123 200.071,26.555 200.064,17.152 L200.064,17.063 C200.073,7.790 206.956,0.012 216.301,0.003 C216.355,-0.004 216.391,-0.004 216.411,-0.004 L216.436,-0.004 C222.091,-0.010 225.743,2.242 228.902,5.222 L229.841,6.088 L226.500,9.561 L226.173,9.238 ZM220.587,40.426 L221.697,40.426 L207.224,55.257 L221.903,73.514 L215.793,73.514 L203.892,58.657 L197.717,64.996 L197.717,73.514 L193.020,73.514 L193.020,41.676 L193.020,40.426 L197.720,40.426 L197.720,58.691 L215.168,40.426 L220.587,40.426 ZM191.626,1.771 L191.626,0.521 L195.869,0.521 L196.330,0.521 L196.330,33.609 L191.626,33.609 L191.626,1.771 ZM184.625,73.515 L175.033,60.839 L167.008,60.839 L167.008,73.515 L162.306,73.515 L162.306,41.677 L162.306,40.427 L176.197,40.427 C180.149,40.429 183.445,41.677 185.550,43.804 C187.202,45.491 188.187,47.852 188.187,50.370 L188.187,50.461 L188.187,50.552 C188.174,55.594 184.757,58.855 180.328,60.037 L190.590,73.515 L184.625,73.515 ZM183.490,50.545 L183.490,50.464 C183.423,47.134 181.233,45.145 176.065,45.018 L167.008,45.015 L167.008,56.289 L175.702,56.289 L175.931,56.287 C180.642,56.200 183.470,54.093 183.490,50.545 ZM181.849,9.811 L171.804,24.650 L171.565,24.650 L171.162,24.650 L170.338,24.650 L160.291,9.811 L160.291,33.610 L155.677,33.610 L155.677,1.772 L155.677,0.520 L159.667,0.520 L171.115,17.639 L182.558,0.520 L186.553,0.520 L186.553,33.610 L181.849,33.610 L181.849,9.811 ZM128.551,1.773 L128.551,0.521 L152.455,0.521 L152.455,5.114 L133.256,5.114 L133.256,14.640 L150.516,14.640 L150.516,19.233 L133.249,19.233 L133.249,29.013 L152.209,29.013 L152.670,29.013 L152.670,33.611 L128.551,33.611 L128.551,1.773 ZM111.634,73.730 L103.694,49.819 L95.748,73.730 L92.192,73.730 L80.966,42.096 L80.379,40.423 L85.486,40.423 L94.048,65.027 L102.026,40.337 L105.526,40.337 L113.510,65.029 L122.063,40.423 L127.013,40.423 L115.194,73.730 L111.634,73.730 ZM107.874,33.610 L96.611,33.610 L96.611,1.772 L96.611,0.522 L107.874,0.522 C117.925,0.522 125.112,7.684 125.118,16.980 L125.118,17.068 C125.112,26.353 117.933,33.607 107.874,33.610 ZM120.329,17.068 C120.278,10.443 115.661,5.167 107.874,5.116 L101.313,5.116 L101.313,29.014 L107.869,29.014 C115.683,28.955 120.278,23.816 120.329,17.152 L120.329,17.068 ZM89.943,33.609 L86.112,25.043 L69.920,25.043 L66.089,33.609 L61.046,33.609 L75.889,1.026 L76.220,0.305 L79.941,0.305 L95.117,33.609 L90.243,33.609 L89.943,33.609 ZM78.034,7.051 L71.986,20.493 L84.050,20.493 L78.034,7.051 ZM48.362,29.579 C52.379,29.556 54.900,28.118 57.874,25.179 L58.409,24.643 L58.729,24.322 L62.007,27.543 L61.671,27.883 L61.111,28.443 C57.849,31.738 54.000,34.134 48.371,34.134 L48.336,34.134 L48.277,34.134 C38.977,34.125 32.074,26.556 32.065,17.151 L32.065,17.065 C32.074,7.792 38.956,0.014 48.302,0.005 C48.354,-0.004 48.394,-0.004 48.412,-0.004 L48.436,-0.004 C54.097,-0.009 57.744,2.241 60.903,5.221 L61.839,6.089 L58.505,9.564 L58.176,9.237 L57.623,8.701 C55.086,6.233 52.480,4.564 48.322,4.544 C41.802,4.557 36.879,9.885 36.850,16.978 L36.850,17.065 C36.874,24.192 41.892,29.574 48.362,29.579 ZM28.892,33.609 L25.059,25.043 L8.867,25.043 L5.033,33.609 L-0.004,33.609 L14.836,1.030 L15.042,0.578 L15.165,0.305 L18.886,0.305 L34.064,33.609 L28.892,33.609 ZM16.981,7.051 L10.935,20.493 L22.999,20.493 L16.981,7.051 ZM142.529,39.901 C152.307,39.914 158.780,47.838 158.870,56.706 C158.879,56.751 158.888,56.801 158.896,56.849 L158.910,56.927 L158.896,56.999 C158.883,57.072 158.870,57.131 158.870,57.099 C158.800,65.991 152.242,74.023 142.442,74.041 C132.601,74.023 126.106,65.995 126.099,57.056 L126.099,56.969 C126.108,48.024 132.680,39.914 142.529,39.901 ZM130.889,56.969 C130.913,63.934 135.803,69.479 142.529,69.486 C149.264,69.466 154.051,64.029 154.085,57.056 L154.085,56.969 C154.058,50.005 149.172,44.458 142.444,44.449 C135.709,44.465 130.918,49.910 130.889,56.883 L130.889,56.969 ZM229.053,73.513 L223.751,73.513 L223.751,68.549 L223.751,67.299 L229.053,67.299 L229.053,73.513 Z" class="cls-1"/>
  <path d="M226.765,85.051 C228.444,85.393 229.380,86.183 229.364,87.510 L229.364,87.532 C229.360,89.001 228.167,89.967 226.683,89.967 L226.656,89.967 C225.455,89.967 224.481,89.511 223.592,88.649 L223.362,88.428 L223.566,88.180 L224.124,87.488 L224.358,87.722 C225.120,88.466 225.729,88.772 226.714,88.777 C227.681,88.762 228.203,88.235 228.205,87.585 L228.205,87.563 C228.178,86.932 228.049,86.650 226.435,86.253 C224.695,85.906 223.753,85.114 223.776,83.753 L223.776,83.729 C223.778,82.354 224.939,81.369 226.383,81.369 C227.480,81.359 228.277,81.713 229.034,82.376 L229.272,82.587 L229.078,82.850 L228.536,83.577 L228.295,83.346 C227.663,82.766 227.089,82.563 226.365,82.556 C225.421,82.568 224.934,83.105 224.930,83.671 L224.930,83.700 C224.959,84.333 225.077,84.632 226.765,85.051 ZM216.838,81.815 L216.838,81.478 L217.151,81.478 L217.995,81.478 L217.993,88.657 L222.190,88.657 L222.190,88.996 L222.190,89.859 L216.838,89.859 L216.838,81.815 ZM214.054,89.860 L213.147,87.701 L209.334,87.701 L208.427,89.860 L208.227,89.860 L207.179,89.860 L210.718,81.614 L210.803,81.426 L211.002,81.426 L211.714,81.426 L215.329,89.860 L214.842,89.860 L214.054,89.860 ZM211.245,83.196 L209.845,86.512 L212.641,86.512 L211.245,83.196 ZM204.810,89.859 L200.242,83.638 L200.242,89.859 L199.929,89.859 L199.108,89.859 L199.108,81.815 L199.108,81.478 L199.420,81.478 L200.070,81.478 L204.535,87.552 L204.535,81.478 L204.850,81.478 L205.674,81.478 L205.674,89.859 L205.364,89.859 L204.810,89.859 ZM193.148,89.990 C190.799,89.988 189.254,87.951 189.250,85.692 L189.250,85.670 C189.254,83.401 190.819,81.352 193.166,81.345 C195.513,81.352 197.058,83.380 197.060,85.646 L197.060,85.670 C197.058,87.934 195.493,89.988 193.148,89.990 ZM195.886,85.670 C195.879,83.927 194.727,82.539 193.148,82.537 C191.561,82.539 190.435,83.902 190.426,85.646 L190.426,85.670 C190.435,87.414 191.585,88.798 193.166,88.801 C194.751,88.798 195.877,87.438 195.886,85.692 L195.886,85.670 ZM186.003,89.859 L186.003,81.815 L186.003,81.478 L186.318,81.478 L187.157,81.478 L187.157,89.859 L186.847,89.859 L186.003,89.859 ZM181.307,89.967 L181.287,89.967 C180.083,89.967 179.108,89.511 178.221,88.649 L177.987,88.428 L178.190,88.177 L178.748,87.488 L178.987,87.722 C179.744,88.464 180.356,88.770 181.338,88.779 C182.303,88.762 182.832,88.233 182.832,87.580 L182.832,87.563 C182.805,86.932 182.676,86.650 181.061,86.253 C179.320,85.904 178.382,85.114 178.400,83.753 L178.400,83.732 C178.402,82.356 179.565,81.369 181.012,81.369 C182.111,81.359 182.901,81.715 183.658,82.378 L183.901,82.587 L183.703,82.850 L183.162,83.573 L182.921,83.346 C182.289,82.766 181.716,82.563 180.990,82.556 C180.048,82.571 179.556,83.108 179.556,83.673 L179.556,83.698 C179.583,84.333 179.702,84.632 181.392,85.051 C183.071,85.388 184.004,86.186 183.988,87.508 L183.988,87.529 C183.984,88.996 182.796,89.967 181.307,89.967 ZM173.920,89.967 L173.897,89.967 C172.696,89.967 171.718,89.514 170.829,88.649 L170.599,88.423 L170.803,88.180 L171.359,87.488 L171.597,87.720 C172.361,88.469 172.968,88.772 173.949,88.777 C174.915,88.762 175.444,88.235 175.444,87.582 L175.444,87.563 C175.415,86.932 175.288,86.650 173.672,86.253 C171.932,85.904 170.992,85.114 171.012,83.753 L171.012,83.732 C171.015,82.356 172.176,81.369 173.623,81.369 C174.719,81.361 175.514,81.715 176.271,82.378 L176.514,82.587 L176.320,82.853 L175.775,83.573 L175.534,83.346 C174.902,82.766 174.330,82.563 173.600,82.556 C172.660,82.571 172.171,83.108 172.167,83.671 L172.167,83.698 C172.196,84.333 172.316,84.630 174.002,85.051 C175.683,85.388 176.614,86.186 176.601,87.510 L176.601,87.532 C176.596,88.996 175.409,89.967 173.920,89.967 ZM163.607,81.815 L163.607,81.475 L169.316,81.475 L169.316,81.815 L169.316,82.677 L164.759,82.677 L164.759,85.035 L168.856,85.035 L168.856,85.375 L168.856,86.239 L164.759,86.239 L164.759,88.657 L169.365,88.657 L169.365,88.996 L169.365,89.859 L163.607,89.859 L163.607,81.815 ZM157.334,85.165 L161.380,85.165 L161.380,85.504 L161.380,86.369 L157.334,86.369 L157.334,89.859 L157.024,89.859 L156.182,89.859 L156.182,81.815 L156.182,81.478 L161.840,81.478 L161.840,81.815 L161.840,82.677 L157.334,82.677 L157.334,85.165 ZM150.220,89.992 C147.876,89.990 146.326,87.952 146.322,85.691 L146.324,85.691 L146.322,85.669 C146.326,83.401 147.894,81.352 150.243,81.344 C152.587,81.352 154.132,83.379 154.134,85.645 L154.134,85.669 C154.132,87.933 152.567,89.990 150.220,89.992 ZM152.960,85.669 C152.955,83.923 151.801,82.541 150.220,82.536 C148.635,82.541 147.508,83.902 147.501,85.645 L147.501,85.669 C147.508,87.410 148.660,88.798 150.243,88.800 C151.823,88.798 152.951,87.435 152.960,85.691 L152.960,85.669 ZM144.653,89.860 L143.823,89.860 L141.550,86.666 L139.674,86.666 L139.674,89.860 L139.362,89.860 L138.518,89.860 L138.518,81.816 L138.518,81.478 L141.834,81.478 C142.776,81.478 143.564,81.794 144.066,82.331 C144.461,82.762 144.698,83.364 144.698,84.010 L144.698,84.027 C144.705,85.313 143.899,86.143 142.849,86.456 L145.292,89.860 L144.653,89.860 ZM143.542,84.048 L143.542,84.027 C143.528,83.207 143.019,82.712 141.805,82.678 L139.674,82.678 L139.674,85.474 L141.773,85.474 C142.881,85.450 143.537,84.930 143.542,84.048 ZM133.698,86.984 L132.082,86.984 L132.082,89.860 L131.773,89.860 L130.925,89.860 L130.925,81.816 L130.925,81.478 L133.834,81.478 C135.500,81.481 136.799,82.473 136.802,84.171 L136.802,84.193 C136.799,86.045 135.277,86.984 133.698,86.984 ZM135.643,84.205 C135.629,83.196 134.998,82.712 133.792,82.678 L132.082,82.678 L132.082,85.785 L133.729,85.785 C134.962,85.760 135.636,85.144 135.643,84.229 L135.643,84.205 ZM122.990,89.991 C120.561,89.986 119.085,88.006 119.081,85.690 L119.081,85.671 C119.085,83.431 120.601,81.348 122.926,81.348 C124.151,81.338 124.995,81.759 125.741,82.431 L125.987,82.653 L125.779,82.916 L125.225,83.600 L124.991,83.378 C124.455,82.884 123.904,82.540 122.894,82.538 C121.352,82.540 120.262,83.939 120.255,85.646 L120.255,85.671 C120.278,87.525 121.269,88.794 123.008,88.813 C123.765,88.816 124.500,88.488 124.973,88.105 L124.973,86.391 L122.580,86.391 L122.580,86.051 L122.580,85.187 L126.105,85.187 L126.105,88.650 L126.002,88.751 C125.310,89.413 124.241,89.989 122.990,89.991 ZM116.162,89.860 L111.596,83.639 L111.596,89.860 L111.283,89.860 L110.459,89.860 L110.459,81.814 L110.459,81.479 L110.774,81.479 L111.421,81.479 L115.891,87.553 L115.891,81.479 L116.204,81.479 L117.028,81.479 L117.028,89.860 L116.715,89.860 L116.162,89.860 ZM105.339,89.980 C103.484,89.978 102.097,88.627 102.097,86.320 L102.097,81.479 L102.410,81.479 L103.249,81.479 L103.252,86.267 C103.285,87.958 103.997,88.757 105.362,88.788 C106.670,88.752 107.389,88.056 107.427,86.320 L107.427,81.479 L107.737,81.479 L108.579,81.479 L108.579,86.255 C108.579,88.603 107.217,89.978 105.339,89.980 ZM96.844,89.992 C94.497,89.990 92.948,87.950 92.941,85.691 L92.946,85.691 L92.941,85.667 C92.948,83.403 94.515,81.352 96.862,81.347 C99.208,81.352 100.756,83.379 100.760,85.648 L100.760,85.667 C100.756,87.933 99.188,89.990 96.844,89.992 ZM99.583,85.667 C99.577,83.925 98.422,82.541 96.844,82.536 C95.256,82.541 94.129,83.902 94.122,85.648 L94.122,85.667 C94.129,87.415 95.283,88.798 96.862,88.800 C98.447,88.798 99.577,87.435 99.583,85.691 L99.583,85.667 ZM89.208,89.859 L88.895,89.859 L88.051,89.859 L88.051,86.577 L84.698,81.476 L85.303,81.476 L86.129,81.476 L88.641,85.368 L91.166,81.476 L91.327,81.476 L92.568,81.476 L89.208,86.567 L89.208,89.859 ZM75.208,81.813 L75.208,81.480 L80.915,81.480 L80.915,81.813 L80.915,82.677 L76.360,82.677 L76.360,85.032 L80.457,85.032 L80.457,85.372 L80.457,86.239 L76.360,86.239 L76.360,88.657 L80.966,88.657 L80.966,88.996 L80.966,89.859 L75.208,89.859 L75.208,81.813 ZM71.638,89.859 L71.634,86.249 L67.689,86.249 L67.689,89.859 L67.376,89.859 L66.534,89.859 L66.534,81.816 L66.534,81.476 L66.847,81.476 L67.689,81.476 L67.684,85.045 L71.638,85.045 L71.638,81.476 L71.949,81.476 L72.793,81.476 L72.793,89.859 L72.480,89.859 L71.638,89.859 ZM62.300,89.860 L61.988,89.860 L61.144,89.860 L61.144,82.679 L58.654,82.679 L58.654,82.342 L58.654,81.477 L64.792,81.477 L64.792,81.817 L64.792,82.679 L62.300,82.679 L62.300,89.860 ZM50.760,85.165 L54.803,85.165 L54.803,85.504 L54.803,86.369 L50.760,86.369 L50.760,89.859 L50.449,89.859 L49.603,89.859 L49.603,81.815 L49.603,81.478 L55.261,81.478 L55.261,81.815 L55.261,82.677 L50.760,82.677 L50.760,85.165 ZM43.646,89.994 C41.299,89.986 39.754,87.949 39.747,85.690 L39.747,85.671 C39.754,83.400 41.317,81.350 43.668,81.348 C46.012,81.350 47.557,83.381 47.562,85.647 L47.562,85.671 C47.557,87.932 45.994,89.986 43.646,89.994 ZM46.385,85.671 C46.378,83.925 45.226,82.540 43.646,82.538 C42.060,82.540 40.933,83.901 40.924,85.647 L40.924,85.671 C40.930,87.414 42.085,88.799 43.668,88.802 C45.249,88.797 46.378,87.439 46.385,85.690 L46.385,85.671 ZM29.548,81.814 L29.548,81.477 L35.255,81.477 L35.255,81.814 L35.255,82.679 L30.698,82.679 L30.698,85.036 L34.797,85.036 L34.797,85.374 L34.797,86.240 L30.698,86.240 L30.698,88.656 L35.306,88.656 L35.306,88.998 L35.306,89.860 L29.548,89.860 L29.548,81.814 ZM25.970,89.860 L25.968,83.914 L23.619,87.599 L23.454,87.599 L23.251,87.599 L20.900,83.914 L20.900,89.860 L20.587,89.860 L19.766,89.860 L19.766,81.814 L19.766,81.479 L20.078,81.479 L20.741,81.479 L23.443,85.776 L26.149,81.479 L26.314,81.479 L27.127,81.479 L27.127,89.860 L26.814,89.860 L25.970,89.860 ZM13.803,89.993 C11.457,89.988 9.912,87.951 9.903,85.692 L9.907,85.692 L9.903,85.670 C9.912,83.402 11.477,81.352 13.823,81.345 C16.172,81.352 17.713,83.380 17.719,85.648 L17.719,85.670 C17.713,87.934 16.150,89.988 13.803,89.993 ZM16.543,85.670 C16.536,83.924 15.384,82.539 13.803,82.537 C12.218,82.539 11.088,83.903 11.079,85.648 L11.079,85.670 C11.088,87.411 12.238,88.798 13.823,88.798 C15.409,88.796 16.536,87.436 16.543,85.692 L16.543,85.670 ZM6.696,89.859 L6.694,86.252 L2.749,86.252 L2.749,89.859 L2.434,89.859 L1.592,89.859 L1.592,81.815 L1.592,81.478 L1.594,81.478 L1.594,81.478 L1.906,81.478 L2.748,81.478 L2.748,81.478 L2.749,81.478 L2.749,85.044 L6.696,85.044 L6.696,81.478 L6.697,81.478 L6.697,81.478 L7.006,81.478 L7.854,81.478 L7.854,81.478 L7.855,81.478 L7.855,89.859 L7.540,89.859 L6.696,89.859 Z" class="cls-2"/>
</svg>
