<?xml version="1.0" encoding="UTF-8" standalone="no"?>
<svg
   xmlns:dc="http://purl.org/dc/elements/1.1/"
   xmlns:cc="http://creativecommons.org/ns#"
   xmlns:rdf="http://www.w3.org/1999/02/22-rdf-syntax-ns#"
   xmlns:svg="http://www.w3.org/2000/svg"
   xmlns="http://www.w3.org/2000/svg"
   viewBox="0 0 702.81335 84"
   height="84"
   width="702.81335"
   xml:space="preserve"
   id="svg2"
   version="1.1"><metadata
     id="metadata8"><rdf:RDF><cc:Work
         rdf:about=""><dc:format>image/svg+xml</dc:format><dc:type
           rdf:resource="http://purl.org/dc/dcmitype/StillImage" /></cc:Work></rdf:RDF></metadata><defs
     id="defs6" /><g
     transform="matrix(1.3333333,0,0,-1.3333333,0,84)"
     id="g10"><g
       transform="scale(0.1)"
       id="g12"><path
         id="path14"
         style="fill:#a60c2e;fill-opacity:1;fill-rule:evenodd;stroke:none"
         d="M 0,629.297 H 144.719 V 2.90234 L 0,2.90234 Z m 452.883,0 H 668.879 L 295.918,309.613 668.879,2.90234 447.836,5.78125 182.156,228.977 181.438,396.738 452.883,629.297 Z M 721.441,2.90234 722.156,570.254 c 0,37.441 33.844,59.043 68.403,59.762 21.597,0 37.437,-8.637 52.562,-23.039 L 1198.8,254.176 v 375.121 h 142.56 V 64.0938 c 0,-38.879 -24.48,-64.796925 -64.08,-64.0820812 -22.32,0 -43.2,7.9296912 -59.04,23.7695812 L 866.879,376.578 V 2.90234 H 721.441 Z M 1495.44,629.297 h 144 V 2.90234 h -144 V 629.297 Z m 3409.2,-2.164 h 366.47 V 486.016 H 4914 c -56.88,0 -104.4,-25.918 -135.37,-74.161 -20.15,-30.96 -28.07,-65.515 -26.64,-103.679 2.17,-46.797 20.17,-87.84 54.73,-119.52 30.23,-28.078 66.24,-41.039 107.28,-41.039 h 357.11 V 3.61328 h -366.47 c -90.72,0 -167.04,36.73052 -224.64,107.28472 -50.4,61.926 -71.28,133.918 -71.28,212.399 0,63.359 16.56,120.238 51.12,173.519 56.16,86.403 141.84,130.317 244.8,130.317 z m -2842.56,0 h 366.48 V 486.016 h -357.12 c -44.64,0 -84.24,-15.84 -114.48,-48.243 -33.12,-33.835 -48.96,-77.035 -47.52,-124.554 0.72,-41.039 12.96,-79.203 40.32,-110.883 31.68,-35.273 74.16,-54.719 121.68,-54.719 h 257.76 v 84.238 h -277.92 v 135.364 h 421.2 L 2471.76,3.61328 H 2066.4 c -97.2,0 -177.12,41.76952 -235.44,118.79672 -46.08,61.203 -66.24,131.047 -64.8,207.367 1.44,77.039 25.92,145.438 77.76,203.039 58.32,64.079 132.48,94.317 218.16,94.317 z m 514.8,2.164 h 144 V 2.90234 h -144 V 629.297 Z m 491.04,0 h 144.72 V 2.90234 H 3067.92 V 244.816 H 2757.6 v 143.282 h 310.32 V 629.297 Z M 3659.03,486.738 V 2.90234 H 3514.32 V 486.738 h -228.25 v 141.117 h 601.22 V 486.738 h -228.26 z m 481.69,-95.761 V 247.695 h 341.27 v 143.282 h -341.27 z m 366.48,238.32 V 486.016 H 4104.72 V 147.617 H 4507.2 V 4.33594 L 3960.72,2.90234 V 629.297 h 546.48 v 0" /></g></g></svg>