<?xml version="1.0" encoding="utf-8"?>
<!-- Generator: Adobe Illustrator 15.0.0, SVG Export Plug-In . SVG Version: 6.00 Build 0)  -->
<!DOCTYPE svg PUBLIC "-//W3C//DTD SVG 1.1//EN" "http://www.w3.org/Graphics/SVG/1.1/DTD/svg11.dtd">
<svg version="1.1" id="Layer_1" xmlns="http://www.w3.org/2000/svg" xmlns:xlink="http://www.w3.org/1999/xlink" x="0px" y="0px"
	 width="1280px" height="285px" viewBox="0 0 1280 285" enable-background="new 0 0 1280 285" xml:space="preserve">
<g id="Layer_2">
</g>
<g id="Layer_1_1_">
	<g>
		<path fill="#18B2D6" d="M700.91,0c10.789,0.633,21.577,1.267,32.365,1.898c27.416,1.601,54.845,3.021,82.245,4.854
			c22.578,1.511,45.153,3.196,67.676,5.375c26.318,2.544,52.632,5.28,78.849,8.713c29.981,3.926,59.959,8.111,89.753,13.255
			c51.271,8.852,102.079,19.807,150.39,39.878c20.797,8.639,40.883,18.761,57.648,34.157c5.328,4.893,10.158,10.641,14.02,16.755
			c8.254,13.082,8.072,26.779,0.396,40.177c-8.642,15.086-21.952,25.172-36.625,33.722c-7.873-1.037-15.604-2.054-24.31-3.198
			c2.038-1.122,3.443-1.786,4.735-2.624c9.326-6.048,18.816-11.866,27.851-18.328c3.851-2.752,7.044-6.62,9.978-10.415
			c11.012-14.253,10.288-29.065-1.805-42.49c-10.811-12.003-24.562-19.783-38.896-26.572c-28.34-13.42-58.251-22.346-88.538-30.021
			c-39.812-10.088-80.126-17.716-120.822-23.16c-31.804-4.254-63.646-8.322-95.56-11.635c-26.804-2.783-53.704-4.823-80.61-6.356
			c-41.049-2.34-82.137-4.008-123.215-5.837c-7.294-0.325-14.614-0.047-22.187-0.047c1.302-6.428,2.48-12.264,3.661-18.099
			C692.245,0,696.577,0,700.91,0z"/>
		<path fill="#18B2D6" d="M0,139.982c4.094-18.052,16.285-30.128,30.416-40.577c6.398-4.733,13.334-8.762,20.127-12.944
			c11.513-7.091,23.706-4.301,36.769-2.547c-8.323,3.939-15.848,7.262-23.153,11.01c-13.865,7.114-26.817,15.501-36.51,28.073
			c-13.434,17.427-12.314,34.159,3.327,49.453c1.901,1.858,3.918,3.622,6.025,5.243c14.277,10.98,30.673,17.853,47.319,24.216
			c40.154,15.349,81.614,26.063,123.786,33.922c31.522,5.873,63.16,11.267,94.904,15.756c27.983,3.957,56.138,6.909,84.301,9.326
			c37.806,3.247,75.672,5.901,113.551,8.144c27.422,1.623,54.908,2.162,82.366,3.188c1.771,0.065,3.538,0.157,5.859,0.265
			c-0.938,3.354-1.715,6.137-2.644,9.465c-10.854,0-21.325,0.17-31.79-0.031c-32.475-0.631-64.976-0.778-97.411-2.289
			c-33.911-1.58-67.812-3.906-101.614-7.037c-33.94-3.145-67.843-7.021-101.6-11.752c-64.369-9.018-127.438-23.403-187.096-50.068
			c-11.932-5.333-23.48-11.809-34.468-18.902C16.912,181.846,4.418,168.904,0,149.98C0,146.648,0,143.314,0,139.982z"/>
	</g>
	<g>
		<path fill="#FFFFFF" d="M825.979,116.961c9.329-0.001,18.659-0.014,27.988,0.01c1.997,0.005,4.017-0.025,5.984,0.247
			c9.659,1.333,12.918,5.031,12.971,14.908c0.071,14.16,0.067,28.321,0.003,42.481c-0.048,9.953-3.075,13.404-12.914,14.914
			c-1.966,0.301-3.98,0.39-5.976,0.392c-18.656,0.028-37.315,0.047-55.976-0.017c-2.646-0.01-5.314-0.315-7.933-0.74
			c-7.589-1.232-10.938-4.266-11.095-11.711c-0.339-15.984-0.325-31.985-0.008-47.971c0.146-7.265,3.344-10.339,10.545-11.705
			c2.597-0.493,5.273-0.747,7.918-0.772C806.987,116.906,816.483,116.961,825.979,116.961z M796.73,175.669
			c19.617,0,38.989,0,58.487,0c0-15.251,0-30.146,0-45.293c-19.604,0-38.854,0-58.487,0
			C796.73,145.509,796.73,160.561,796.73,175.669z"/>
		<path fill="#FFFFFF" d="M1198.023,137.499c-0.168-2.819-0.292-4.922-0.43-7.239c-16.826,0-33.388,0-50.249,0
			c0,4.993,0,9.729,0,15.199c1.888,0,3.651-0.014,5.42,0.002c16.145,0.139,32.293,0.081,48.43,0.51
			c7.78,0.207,11.45,3.154,12.091,10.571c0.682,7.878,0.136,15.901-0.389,23.829c-0.324,4.904-3.829,7.602-8.5,8.503
			c-2.926,0.565-5.931,0.989-8.902,1.007c-16.148,0.098-32.301,0.051-48.452,0.039c-1.33-0.002-2.668-0.039-3.988-0.184
			c-11.902-1.289-15.692-6.229-14.084-18.983c4.628-0.919,9.441-1.875,14.731-2.924c0,2.75,0,5.174,0,8.054
			c18.112,0,35.812,0,53.866,0c0-5.117,0-10.34,0-16.263c-2,0-3.929,0.017-5.857-0.002c-15.31-0.146-30.626-0.091-45.928-0.521
			c-10.184-0.287-13.711-4.027-14.093-14.104c-0.201-5.314-0.178-10.665,0.181-15.968c0.454-6.708,3.423-9.885,9.962-11.159
			c2.596-0.505,5.268-0.849,7.904-0.862c14.984-0.08,29.97-0.061,44.954-0.014c2.149,0.007,4.332,0.161,6.442,0.556
			c9.737,1.816,12.903,6.528,11.281,16.997C1207.856,135.48,1203.18,136.441,1198.023,137.499z"/>
		<path fill="#FFFFFF" d="M479.031,165.41c0-16.648,0-32.215,0-48.114c5.354,0,10.266,0,15.562,0c0,23.945,0,47.988,0,72.334
			c-3.768,0-7.539,0-11.973,0c-19.894-15.849-40.289-32.096-61.479-48.979c0,16.876,0,32.753,0,48.953c-5.549,0-10.598,0-15.93,0
			c0-24.062,0-47.981,0-72.274c3.884,0,7.796,0,12.318,0C437.37,132.84,457.691,148.727,479.031,165.41z"/>
		<path fill="#FFFFFF" d="M245.636,145.805c0,4.479,0,8.074,0,12.239c-11.617,0-23.01,0-34.727,0c0,6.284,0,11.995,0,18.254
			c20.34,0,40.403,0,60.76,0c0,4.634,0,8.729,0,13.231c-25.948,0-51.988,0-78.413,0c0-23.893,0-47.919,0-72.26
			c25.718,0,51.429,0,77.433,0c0,3.999,0,7.901,0,12.329c-19.859,0-39.599,0-59.724,0c0,5.569,0,10.623,0,16.205
			C222.386,145.805,233.796,145.805,245.636,145.805z"/>
		<path fill="#FFFFFF" d="M1028.77,117.367c0,19.649,0,39.047,0,58.705c17.115,0,33.706,0,50.775,0c0-19.514,0-38.923,0-58.722
			c6.16,0,11.853,0,17.836,0c0.097,1.406,0.263,2.696,0.265,3.986c0.02,16.489,0.017,32.979,0.006,49.467
			c-0.001,1.163-0.039,2.332-0.155,3.489c-1.188,11.871-4.263,15.209-16.327,15.459c-17.979,0.37-35.974,0.132-53.958,0.056
			c-2.309-0.011-4.643-0.461-6.907-0.959c-4.688-1.031-7.552-3.976-8.433-8.729c-0.334-1.801-0.765-3.621-0.771-5.434
			c-0.056-18.97-0.034-37.938-0.034-57.317C1016.787,117.367,1022.352,117.367,1028.77,117.367z"/>
		<path fill="#FFFFFF" d="M921.921,156.973c0,11.383,0,21.795,0,32.58c-6.101,0-11.801,0-17.775,0c0-24.029,0-47.941,0-72.226
			c5.692,0,11.397,0,17.664,0c0,9.449,0,18.813,0,29.13c5.845-4.019,10.877-7.459,15.889-10.929
			c7.935-5.492,15.787-11.1,23.826-16.433c1.802-1.195,4.209-1.96,6.372-2.042c6.759-0.258,13.533-0.095,20.683,0.883
			c-16.054,10.768-32.104,21.536-48.851,32.769c18.455,12.917,36.562,25.59,55.609,38.924c-9.906,0-18.619,0-27.881,0
			C952.812,179.125,937.73,168.311,921.921,156.973z"/>
		<path fill="#FFFFFF" d="M595.897,146.645c15.069-10.423,29.005-20.065,42.574-29.452c8.393,0,16.31,0,25.528,0
			c-17.092,11.463-33.179,22.252-49.969,33.513c18.521,12.961,36.542,25.575,54.564,38.19c-0.064,0.324-0.128,0.647-0.192,0.974
			c-8.532,0-17.064,0.094-25.594-0.099c-1.302-0.028-2.649-1.27-3.848-2.127c-12.724-9.107-25.415-18.258-38.125-27.381
			c-1.303-0.935-2.67-1.773-4.645-3.08c0,11.168,0,21.576,0,32.362c-5.97,0-11.548,0-17.568,0c0-23.882,0-47.91,0-72.266
			c5.597,0,11.16,0,17.271,0C595.897,126.692,595.897,136.077,595.897,146.645z"/>
		<path fill="#FFFFFF" d="M387.828,189.857c-8.653,0-17.308,0-26.229,0c-14.823-10.637-29.798-21.383-45.63-32.744
			c0,11.256,0,21.728,0,32.5c-6.272,0-11.837,0-17.74,0c0-24.062,0-48.091,0-72.39c5.716,0,11.291,0,17.312,0
			c0,9.413,0,18.679,0,28.896c1.888-1.1,3.104-1.703,4.209-2.467c11.77-8.131,23.461-16.38,35.337-24.354
			c2.039-1.368,4.822-2.125,7.304-2.24c6.575-0.305,13.174-0.103,20.079,0.844c-16.072,10.773-32.144,21.547-48.926,32.793
			c18.498,12.947,36.608,25.621,54.721,38.298C388.119,189.283,387.974,189.57,387.828,189.857z"/>
		<path fill="#FFFFFF" d="M116.118,116.715c-14.153,0-27.412,0-40.906,0c0-5.389,0-10.298,0-15.479c33.965,0,67.724,0,101.93,0
			c0,4.989,0,10.006,0,15.457c-13.435,0-26.704,0-40.579,0c0,24.46,0,48.509,0,72.896c-7.02,0-13.438,0-20.443,0
			C116.118,165.662,116.118,141.617,116.118,116.715z"/>
		<path fill="#FFFFFF" d="M685.814,189.615c0-24.133,0-48.045,0-72.309c25.465,0,50.871,0,76.691,0c0,3.855,0,7.908,0,12.462
			c-19.398,0-38.961,0-58.951,0c0,6.513,0,12.545,0,19.166c10.455,0,20.844,0,31.476,0c0,4.637,0,8.694,0,13.252
			c-10.536,0-20.787,0-31.661,0c0,9.355,0,18.24,0,27.431C697.189,189.615,691.639,189.615,685.814,189.615z"/>
		<path fill="#FFFFFF" d="M528.119,189.631c0-24.252,0-48.162,0-72.373c5.606,0,11.017,0,16.853,0c0,24.042,0,48.057,0,72.373
			C539.514,189.631,534.091,189.631,528.119,189.631z"/>
	</g>
</g>
</svg>
