<?xml version="1.0" encoding="UTF-8" standalone="no"?>
<svg
   xmlns:dc="http://purl.org/dc/elements/1.1/"
   xmlns:cc="http://creativecommons.org/ns#"
   xmlns:rdf="http://www.w3.org/1999/02/22-rdf-syntax-ns#"
   xmlns:svg="http://www.w3.org/2000/svg"
   xmlns="http://www.w3.org/2000/svg"
   viewBox="0 0 984.82666 286.81332"
   height="286.81332"
   width="984.82666"
   xml:space="preserve"
   id="svg2"
   version="1.1"><metadata
     id="metadata8"><rdf:RDF><cc:Work
         rdf:about=""><dc:format>image/svg+xml</dc:format><dc:type
           rdf:resource="http://purl.org/dc/dcmitype/StillImage" /></cc:Work></rdf:RDF></metadata><defs
     id="defs6" /><g
     transform="matrix(1.3333333,0,0,-1.3333333,0,286.81333)"
     id="g10"><g
       transform="scale(0.1)"
       id="g12"><path
         id="path14"
         style="fill:#00adef;fill-opacity:1;fill-rule:nonzero;stroke:none"
         d="m 369.789,1490.25 c -32.965,0 -49.93,27.76 -38.066,61.98 l 137.882,392.26 c 12.043,34.14 48.665,61.93 81.68,61.93 h 596.995 c 3.92,83.76 -50.34,144.67 -139.41,144.67 H 422.695 c -110.234,0 -231.871,-92.6 -271.918,-206.6 L 12.832,1552.23 c -40.0508,-114.01 16.7852,-206.47 126.84,-206.47 h 586.082 c 89.348,0 186.141,60.78 241.082,144.49 H 369.789" /><path
         id="path16"
         style="fill:#00adef;fill-opacity:1;fill-rule:nonzero;stroke:none"
         d="m 1206.1,1345.76 c -110.23,0 -166.83,92.46 -126.91,206.47 l 138.15,392.26 c 39.87,114 161.61,206.6 271.61,206.6 h 677.78 c 110.09,0 166.93,-92.6 126.74,-206.6 l -137.75,-392.26 c -40,-114.01 -161.83,-206.47 -271.98,-206.47 z m 549.1,144.49 c 33.06,0 69.56,27.76 81.59,61.98 l 137.83,392.26 c 12.09,34.14 -5.08,61.93 -38.06,61.93 h -318.83 c -33.21,0 -69.74,-27.79 -81.74,-61.93 l -158.8,-454.17 378.01,-0.07" /><path
         id="path18"
         style="fill:#00adef;fill-opacity:1;fill-rule:nonzero;stroke:none"
         d="m 5041.42,1614.15 c -33.01,0 -69.46,-27.76 -81.59,-61.92 l -72.63,-206.47 h -318.77 l 210.41,598.73 c 39.82,114 161.78,206.6 271.81,206.6 h 677.84 c 109.96,0 166.62,-92.6 126.7,-206.6 l -210.51,-598.73 h -318.81 l 94.34,268.39 z m 369.72,144.47 c 33.01,0 69.55,27.76 81.49,61.98 l 43.53,123.89 c 12.09,34.14 -4.96,61.93 -38.06,61.93 h -318.85 c -33.07,0 -69.59,-27.79 -81.58,-61.93 l -65.32,-185.87 h 378.79" /><path
         id="path20"
         style="fill:#00adef;fill-opacity:1;fill-rule:nonzero;stroke:none"
         d="m 3479.52,1929.9 5.23,14.59 c 40.06,114 -16.78,206.6 -126.75,206.6 h -677.81 c -110.1,0 -231.74,-92.6 -271.79,-206.6 l -210.55,-598.73 h 877.13 c 110.15,0 231.83,92.46 271.94,206.47 l 5,14.13 c 27.52,78.57 9.24,146.86 -40.86,181.77 74.55,34.82 140.98,103.22 168.46,181.77 m -795.68,-109.3 43.43,123.89 c 12.01,34.14 48.54,61.93 81.61,61.93 h 318.83 c 33.1,0 50.11,-27.79 38.11,-61.93 l -21.73,-61.97 c -12.05,-34.22 -48.63,-61.92 -81.61,-61.92 z m -116.14,-330.35 43.49,123.9 c 12.03,34.19 48.57,61.92 81.58,61.92 h 318.97 c 32.93,0 50.02,-27.73 37.99,-61.92 l -21.84,-61.92 c -11.86,-34.22 -48.31,-61.98 -81.41,-61.98 H 2567.7" /><path
         id="path22"
         style="fill:#00adef;fill-opacity:1;fill-rule:nonzero;stroke:none"
         d="m 4208.35,1758.62 c 32.97,0 69.55,27.76 81.54,61.98 l 43.54,123.89 c 40.06,114 161.81,206.6 271.87,206.6 h 119.53 l -282.89,-805.33 h -318.88 l 94.41,268.39 h -378.73 c -33.12,0 -69.61,-27.76 -81.66,-61.92 l -72.66,-206.47 H 3365.59 L 3576,1944.49 c 40.04,114 161.78,206.6 271.82,206.6 h 119.63 l -137.87,-392.47 h 378.77" /><path
         id="path24"
         style="fill:#00adef;fill-opacity:1;fill-rule:nonzero;stroke:none"
         d="m 6879.76,2151.09 c -54.3,0 -111.51,-22.46 -160.3,-59.06 -23.12,36.6 -64.37,59.06 -118.71,59.06 h -349.59 c -110.12,0 -231.99,-92.6 -271.99,-206.6 L 5768.9,1345.76 h 318.88 l 210.34,598.73 c 11.93,34.14 48.61,61.93 81.66,61.93 h 99.68 c 32.93,0 49.98,-27.79 37.93,-61.93 l -211.5,-598.73 h 318.9 l 211.49,598.73 c 12.07,34.14 48.5,61.93 81.74,61.93 h 99.59 c 32.95,0 49.92,-27.79 38.01,-61.93 l -211.49,-598.73 h 318.83 l 210.33,598.73 c 40.1,114 -16.46,206.6 -126.62,206.6 h -366.91" /><path
         id="path26"
         style="fill:#000000;fill-opacity:1;fill-rule:nonzero;stroke:none"
         d="M 270.145,0 C 98.0117,0 11.9219,127.551 11.9219,281.699 c 0,152.59 100.1681,283.262 267.6251,283.262 61.816,0 118.945,-16.422 174.5,-53.981 l -33.656,-86.859 c -48.516,33.641 -92.328,49.309 -140.844,49.309 -46.168,0 -82.176,-19.578 -107.199,-49.309 -31.313,-37.57 -46.172,-89.992 -46.172,-139.293 0,-97.039 43.035,-191.6991 151.812,-191.6991 50.856,0 98.594,14.8511 151.02,45.3711 L 459.52,52.4219 C 396.914,17.9883 335.883,0 270.145,0" /><path
         id="path28"
         style="fill:#000000;fill-opacity:1;fill-rule:nonzero;stroke:none"
         d="m 700.449,320.828 c -65.73,0 -95.469,-59.476 -95.469,-118.93 0,-59.48 27.387,-120.5191 93.122,-120.5191 66.515,0 94.691,60.2501 94.691,120.5191 0,59.454 -26.605,118.93 -92.344,118.93 z M 698.102,0 C 570.559,0 497.781,84.5117 497.781,201.898 c 0,115.813 80.598,201.09 202.668,201.09 123.637,0 198.762,-86.078 198.762,-201.09 C 899.211,86.0781 822.523,0 698.102,0" /><path
         id="path30"
         style="fill:#000000;fill-opacity:1;fill-rule:nonzero;stroke:none"
         d="m 1206.67,297.352 c -13.29,10.949 -30.51,17.988 -53.21,17.988 -25.82,0 -55.55,-11.738 -75.13,-28.16 V 114.238 c 17.23,-16.4177 49.31,-31.2966 78.26,-31.2966 18.79,0 40.7,7.0391 53.99,21.1286 23.47,24.258 28.18,61.821 28.18,101.731 0,35.988 -8.61,71.199 -32.09,91.551 z M 1302.14,60.2617 C 1273.19,23.4805 1229.37,0 1171.46,0 c -27.38,0 -53.2,6.26172 -73.55,15.6484 -15.66,6.25 -29.74,16.4219 -38.35,23.461 l -3.92,-28.9375 H 975.828 V 574.371 H 1078.33 V 367.789 c 18.79,17.191 61.84,35.199 98.6,35.199 43.83,0 78.26,-14.078 104.86,-36.789 43.04,-37.551 64.17,-99.371 64.17,-164.301 0,-54.789 -14.87,-104.8667 -43.82,-141.6363" /><path
         id="path32"
         style="fill:#000000;fill-opacity:1;fill-rule:nonzero;stroke:none"
         d="M 1671.43,10.1719 V 219.879 c 0,41.473 -2.35,61.043 -13.31,75.91 -9.39,12.512 -25.83,20.32 -50.08,20.32 -25.04,0 -59.47,-13.281 -83.73,-28.929 V 10.1719 H 1422.58 V 574.371 h 101.73 V 366.199 c 36.79,24.262 76.69,36.789 121.29,36.789 61.03,0 98.6,-32.859 112.68,-65.726 13.31,-30.524 14.87,-61.821 14.87,-126.782 V 10.1719 h -101.72" /><path
         id="path34"
         style="fill:#000000;fill-opacity:1;fill-rule:nonzero;stroke:none"
         d="m 2082.94,194.852 c -44.59,0 -122.85,-10.961 -122.85,-68.09 0,-26.59 25.04,-41.4807 53.22,-41.4807 22.68,0 54.78,13.3085 69.63,25.8277 z m 16.44,-184.6801 -6.25,28.9375 C 2068.09,17.9883 2021.13,0 1982.78,0 c -64.16,0 -129.11,38.3281 -129.11,123.629 0,118.16 151.02,142.422 230.06,142.422 -0.79,7.051 -1.57,16.429 -3.13,21.898 -6.26,22.699 -25.04,34.442 -57.9,34.442 -21.13,0 -70.43,-8.61 -121.3,-44.61 l -31.29,68.867 c 53.21,37.563 117.38,56.34 164.32,56.34 100.15,0 148.68,-47.726 148.68,-151.808 V 10.1719 h -83.73" /><path
         id="path36"
         style="fill:#000000;fill-opacity:1;fill-rule:nonzero;stroke:none"
         d="M 2745.69,10.1719 V 242.578 c 0,50.871 -14.09,73.531 -57.14,73.531 -25.82,0 -57.11,-14.07 -75.9,-26.589 3.13,-17.989 3.93,-31.301 3.93,-77.469 V 10.1719 H 2514.84 V 242.578 c 0,25.82 -2.34,39.902 -10.17,52.442 -7.82,11.718 -21.91,21.089 -46.17,21.089 -25.04,0 -57.89,-14.839 -77.46,-28.929 V 10.1719 H 2279.31 V 391.25 h 83.72 l 6.28,-32.859 c 6.25,5.468 23.47,16.437 36.76,22.687 29.74,14.094 63.39,21.91 84.51,21.91 47.74,0 79.83,-15.648 100.94,-44.597 10.97,7.808 24.26,15.648 39.13,23.48 22.7,10.949 57.12,21.117 87.66,21.117 63.37,0 100.16,-25.816 115.79,-62.597 12.53,-29.743 13.32,-64.95 13.32,-127.563 V 10.1719 h -101.73" /><path
         id="path38"
         style="fill:#000000;fill-opacity:1;fill-rule:nonzero;stroke:none"
         d="m 3416.16,0 c -181.55,0 -269.98,113.449 -269.98,280.922 0,162.758 104.08,284.039 277.79,284.039 50.08,0 98.59,-10.949 149.46,-34.41 l -28.95,-85.301 c -43.04,21.109 -82.15,27.391 -120.51,27.391 -112.68,0 -165.1,-86.871 -165.1,-189.371 0,-98.598 40.69,-191.7309 151.81,-191.7309 25.82,0 51.65,3.1523 74.33,11.7499 v 90 h -71.98 v 89.981 h 180.75 V 56.3281 C 3542.13,21.1094 3480.31,0 3416.16,0" /><path
         id="path40"
         style="fill:#000000;fill-opacity:1;fill-rule:nonzero;stroke:none"
         d="m 3891.83,194.852 c -44.59,0 -122.86,-10.961 -122.86,-68.09 0,-26.59 25.04,-41.4807 53.23,-41.4807 22.67,0 54.76,13.3085 69.63,25.8277 z M 3908.25,10.1719 3902,39.1094 C 3876.96,17.9883 3830.01,0 3791.65,0 c -64.14,0 -129.1,38.3281 -129.1,123.629 0,118.16 151.01,142.422 230.06,142.422 -0.78,7.051 -1.57,16.429 -3.13,21.898 -6.27,22.699 -25.06,34.442 -57.91,34.442 -21.13,0 -70.43,-8.61 -121.29,-44.61 l -31.29,68.867 c 53.21,37.563 117.37,56.34 164.32,56.34 100.16,0 148.67,-47.726 148.67,-151.808 V 10.1719 h -83.73" /><path
         id="path42"
         style="fill:#000000;fill-opacity:1;fill-rule:nonzero;stroke:none"
         d="M 4095.22,10.1719 V 391.25 h 101.72 V 10.1719 Z M 4145.3,433.5 c -26.6,0 -55.54,18.789 -55.54,52.441 0,34.43 27.38,53.977 55.54,53.977 28.17,0 54.77,-19.547 54.77,-53.199 0,-32.867 -28.95,-53.219 -54.77,-53.219" /><path
         id="path44"
         style="fill:#000000;fill-opacity:1;fill-rule:nonzero;stroke:none"
         d="m 4420.71,0 c -44.59,0 -97.03,14.8516 -136.93,33.6406 l 25.04,75.1294 c 37.56,-18.0083 82.95,-29.7387 117.38,-29.7387 26.6,0 43.81,10.1601 43.81,32.8667 0,18.77 -14.86,28.942 -43.03,43.032 l -61.83,31.289 c -40.69,20.351 -75.9,46.961 -75.9,100.961 0,80.609 71.21,115.808 139.29,115.808 43.03,0 87.64,-11.738 131.45,-35.199 l -28.95,-74.34 c -29.72,16.422 -61.81,28.16 -94.68,28.16 -27.39,0 -44.59,-10.961 -44.59,-29.75 0,-10.937 10.17,-19.539 41.46,-35.199 l 51.64,-25.832 c 39.92,-20.348 82.97,-49.289 82.97,-110.308 C 4567.84,33.6406 4496.63,0 4420.71,0" /><path
         id="path46"
         style="fill:#000000;fill-opacity:1;fill-rule:nonzero;stroke:none"
         d="M 4651.49,10.1719 V 574.371 h 101.74 V 10.1719 h -101.74" /><path
         id="path48"
         style="fill:#000000;fill-opacity:1;fill-rule:nonzero;stroke:none"
         d="m 5025.52,320.051 c -22.72,0 -44.61,-9.403 -60.28,-25.821 -12.5,-12.531 -21.11,-32.101 -23.47,-49.3 h 140.08 12.52 c 0,40.679 -25.84,75.121 -68.85,75.121 z M 5196.08,176.07 h -256.66 c 0.79,-21.14 14.87,-51.652 31.31,-66.531 18.77,-16.4101 44.59,-25.8202 71.98,-25.8202 50.07,0 92.34,14.871 133.82,43.0432 l 17.21,-76.6839 C 5146.01,17.2109 5090.44,0 5032.55,0 c -122.07,0 -201.11,82.1602 -201.11,203.461 0,116.59 80.6,199.527 197.98,199.527 32.86,0 63.36,-7.816 88.42,-22.687 50.84,-28.949 82.15,-83.731 82.15,-149.473 0,-18.777 -1.54,-36.769 -3.91,-54.758" /><path
         id="path50"
         style="fill:#000000;fill-opacity:1;fill-rule:nonzero;stroke:none"
         d="m 5496.51,304.398 c -15.64,5.473 -28.94,8.602 -42.26,8.602 -25.04,0 -53.99,-8.602 -71.97,-27.391 V 10.1719 H 5280.54 V 391.25 h 76.68 l 7.85,-33.641 c 11.72,14.09 28.16,25.813 46.13,34.411 15.68,7.058 32.89,10.968 47.76,10.968 19.55,0 35.99,-3.129 46.17,-7.027 l -8.62,-91.563" /><path
         id="path52"
         style="fill:#000000;fill-opacity:1;fill-rule:nonzero;stroke:none"
         d="m 5980.01,384.211 h -1.56 C 5962,336.469 5923.68,236.309 5923.68,236.309 h 114.24 c -36,89.222 -54,134.601 -57.91,147.902 z m 151.8,-374.0391 -61.8,148.6801 H 5895.52 L 5836.03,10.1719 h -107.99 l 226.93,543.0661 h 57.13 L 6247.63,10.1719 h -115.82" /><path
         id="path54"
         style="fill:#000000;fill-opacity:1;fill-rule:nonzero;stroke:none"
         d="m 6455.69,256.66 c -12.52,0 -27.4,-0.781 -39.12,-0.781 V 89.1914 c 17.99,-1.5508 37.56,-3.1133 55.55,-3.1133 55.57,0 102.52,21.1209 102.52,78.2419 0,68.86 -53.99,92.34 -118.95,92.34 z m -7.83,223.012 c -10.15,0 -21.13,-0.774 -31.29,-1.563 v -143.98 h 17.99 c 59.47,0 101.74,14.082 101.74,77.461 0,48.531 -39.14,68.082 -88.44,68.082 z M 6470.56,0 c -51.64,0 -107.99,5.46875 -161.98,13.3008 V 550.109 c 36,7.809 92.33,14.852 145.55,14.852 95.45,0 188.58,-36.781 188.58,-148.68 0,-47.711 -23.46,-84.492 -61.04,-108.75 57.91,-18.011 103.28,-71.222 103.28,-135.383 C 6684.95,45.3711 6581.67,0 6470.56,0" /></g></g></svg>